<mxfile host="65bd71144e">
    <diagram id="TiwrJ065zfOV_j0houeN" name="Page-1">
        <mxGraphModel dx="492" dy="560" grid="1" gridSize="10" guides="1" tooltips="1" connect="1" arrows="1" fold="1" page="1" pageScale="1" pageWidth="1169" pageHeight="827" background="#FFFFFF" math="0" shadow="0">
            <root>
                <mxCell id="0"/>
                <mxCell id="1" parent="0"/>
                <mxCell id="59" value="&lt;font color=&quot;#4d4d4d&quot;&gt;AWS Cloud&lt;/font&gt;" style="sketch=0;outlineConnect=0;gradientColor=none;html=1;whiteSpace=wrap;fontSize=12;fontStyle=0;shape=mxgraph.aws4.group;grIcon=mxgraph.aws4.group_aws_cloud;strokeColor=#4D4D4D;fillColor=none;verticalAlign=top;align=left;spacingLeft=30;fontColor=#AAB7B8;dashed=0;" parent="1" vertex="1">
                    <mxGeometry x="360" y="80" width="780" height="670" as="geometry"/>
                </mxCell>
                <mxCell id="45" value="" style="rounded=0;whiteSpace=wrap;html=1;fontColor=#232F3E;fillColor=none;strokeColor=#0000CC;dashed=1;strokeWidth=2;" parent="1" vertex="1">
                    <mxGeometry x="984" y="380" width="110" height="230" as="geometry"/>
                </mxCell>
                <mxCell id="6" value="" style="edgeStyle=none;html=1;exitX=1;exitY=0.5;exitDx=0;exitDy=0;exitPerimeter=0;fontColor=#1A1A1A;strokeColor=#232F3E;entryX=0;entryY=0.5;entryDx=0;entryDy=0;" parent="1" source="8" target="14" edge="1">
                    <mxGeometry relative="1" as="geometry">
                        <mxPoint x="601" y="435" as="sourcePoint"/>
                        <mxPoint x="641" y="435" as="targetPoint"/>
                    </mxGeometry>
                </mxCell>
                <mxCell id="8" value="Load Balancer&amp;nbsp;" style="sketch=0;points=[[0,0,0],[0.25,0,0],[0.5,0,0],[0.75,0,0],[1,0,0],[0,1,0],[0.25,1,0],[0.5,1,0],[0.75,1,0],[1,1,0],[0,0.25,0],[0,0.5,0],[0,0.75,0],[1,0.25,0],[1,0.5,0],[1,0.75,0]];outlineConnect=0;fontColor=#232F3E;gradientColor=#945DF2;gradientDirection=north;fillColor=#5A30B5;strokeColor=#ffffff;dashed=0;verticalLabelPosition=bottom;verticalAlign=top;align=center;html=1;fontSize=12;fontStyle=0;aspect=fixed;shape=mxgraph.aws4.resourceIcon;resIcon=mxgraph.aws4.elastic_load_balancing;" parent="1" vertex="1">
                    <mxGeometry x="520" y="400" width="70" height="70" as="geometry"/>
                </mxCell>
                <mxCell id="9" value="Route 53" style="sketch=0;points=[[0,0,0],[0.25,0,0],[0.5,0,0],[0.75,0,0],[1,0,0],[0,1,0],[0.25,1,0],[0.5,1,0],[0.75,1,0],[1,1,0],[0,0.25,0],[0,0.5,0],[0,0.75,0],[1,0.25,0],[1,0.5,0],[1,0.75,0]];outlineConnect=0;fontColor=#232F3E;gradientColor=#945DF2;gradientDirection=north;fillColor=#5A30B5;strokeColor=#ffffff;dashed=0;verticalLabelPosition=bottom;verticalAlign=top;align=center;html=1;fontSize=12;fontStyle=0;aspect=fixed;shape=mxgraph.aws4.resourceIcon;resIcon=mxgraph.aws4.route_53;" parent="1" vertex="1">
                    <mxGeometry x="380" y="400" width="70" height="70" as="geometry"/>
                </mxCell>
                <mxCell id="12" value="" style="edgeStyle=none;html=1;exitX=1;exitY=0.5;exitDx=0;exitDy=0;exitPerimeter=0;fontColor=#1A1A1A;strokeColor=#232F3E;entryX=0;entryY=0.5;entryDx=0;entryDy=0;entryPerimeter=0;" parent="1" source="9" target="8" edge="1">
                    <mxGeometry relative="1" as="geometry">
                        <mxPoint x="460" y="430" as="sourcePoint"/>
                        <mxPoint x="560" y="430" as="targetPoint"/>
                    </mxGeometry>
                </mxCell>
                <mxCell id="14" value="" style="rounded=0;whiteSpace=wrap;html=1;fontColor=#232F3E;fillColor=none;strokeColor=#CC6600;dashed=1;strokeWidth=2;" parent="1" vertex="1">
                    <mxGeometry x="634" y="260" width="110" height="350" as="geometry"/>
                </mxCell>
                <mxCell id="15" value="Landing Server" style="sketch=0;points=[[0,0,0],[0.25,0,0],[0.5,0,0],[0.75,0,0],[1,0,0],[0,1,0],[0.25,1,0],[0.5,1,0],[0.75,1,0],[1,1,0],[0,0.25,0],[0,0.5,0],[0,0.75,0],[1,0.25,0],[1,0.5,0],[1,0.75,0]];outlineConnect=0;fontColor=#232F3E;gradientColor=#F78E04;gradientDirection=north;fillColor=#D05C17;strokeColor=#ffffff;dashed=0;verticalLabelPosition=top;verticalAlign=bottom;align=center;html=1;fontSize=11;fontStyle=0;aspect=fixed;shape=mxgraph.aws4.resourceIcon;resIcon=mxgraph.aws4.fargate;labelPosition=center;" parent="1" vertex="1">
                    <mxGeometry x="659" y="281" width="60" height="60" as="geometry"/>
                </mxCell>
                <mxCell id="17" value="Landing Server" style="sketch=0;points=[[0,0,0],[0.25,0,0],[0.5,0,0],[0.75,0,0],[1,0,0],[0,1,0],[0.25,1,0],[0.5,1,0],[0.75,1,0],[1,1,0],[0,0.25,0],[0,0.5,0],[0,0.75,0],[1,0.25,0],[1,0.5,0],[1,0.75,0]];outlineConnect=0;fontColor=#232F3E;gradientColor=#F78E04;gradientDirection=north;fillColor=#D05C17;strokeColor=#ffffff;dashed=0;verticalLabelPosition=bottom;verticalAlign=top;align=center;html=1;fontSize=11;fontStyle=0;aspect=fixed;shape=mxgraph.aws4.resourceIcon;resIcon=mxgraph.aws4.fargate;" parent="1" vertex="1">
                    <mxGeometry x="659" y="522" width="60" height="60" as="geometry"/>
                </mxCell>
                <mxCell id="21" value="" style="rounded=0;whiteSpace=wrap;html=1;fontColor=#232F3E;fillColor=none;strokeColor=#CC6600;dashed=1;strokeWidth=2;" parent="1" vertex="1">
                    <mxGeometry x="814" y="260" width="110" height="350" as="geometry"/>
                </mxCell>
                <mxCell id="23" value="API Server" style="sketch=0;points=[[0,0,0],[0.25,0,0],[0.5,0,0],[0.75,0,0],[1,0,0],[0,1,0],[0.25,1,0],[0.5,1,0],[0.75,1,0],[1,1,0],[0,0.25,0],[0,0.5,0],[0,0.75,0],[1,0.25,0],[1,0.5,0],[1,0.75,0]];outlineConnect=0;fontColor=#232F3E;gradientColor=#F78E04;gradientDirection=north;fillColor=#D05C17;strokeColor=#ffffff;dashed=0;verticalLabelPosition=top;verticalAlign=bottom;align=center;html=1;fontSize=11;fontStyle=0;aspect=fixed;shape=mxgraph.aws4.resourceIcon;resIcon=mxgraph.aws4.fargate;labelPosition=center;" parent="1" vertex="1">
                    <mxGeometry x="839" y="281" width="60" height="60" as="geometry"/>
                </mxCell>
                <mxCell id="24" value="API Server" style="sketch=0;points=[[0,0,0],[0.25,0,0],[0.5,0,0],[0.75,0,0],[1,0,0],[0,1,0],[0.25,1,0],[0.5,1,0],[0.75,1,0],[1,1,0],[0,0.25,0],[0,0.5,0],[0,0.75,0],[1,0.25,0],[1,0.5,0],[1,0.75,0]];outlineConnect=0;fontColor=#232F3E;gradientColor=#F78E04;gradientDirection=north;fillColor=#D05C17;strokeColor=#ffffff;dashed=0;verticalLabelPosition=bottom;verticalAlign=top;align=center;html=1;fontSize=11;fontStyle=0;aspect=fixed;shape=mxgraph.aws4.resourceIcon;resIcon=mxgraph.aws4.fargate;" parent="1" vertex="1">
                    <mxGeometry x="839" y="522" width="60" height="60" as="geometry"/>
                </mxCell>
                <mxCell id="25" value="" style="edgeStyle=none;html=1;exitX=1;exitY=0.5;exitDx=0;exitDy=0;fontColor=#1A1A1A;strokeColor=#232F3E;entryX=0;entryY=0.5;entryDx=0;entryDy=0;labelPosition=center;verticalLabelPosition=bottom;align=center;verticalAlign=top;" parent="1" source="14" target="21" edge="1">
                    <mxGeometry relative="1" as="geometry">
                        <mxPoint x="770" y="435" as="sourcePoint"/>
                        <mxPoint x="780" y="440" as="targetPoint"/>
                    </mxGeometry>
                </mxCell>
                <mxCell id="34" value="Text" style="text;html=1;resizable=0;autosize=1;align=center;verticalAlign=middle;points=[];fillColor=none;strokeColor=none;rounded=0;dashed=1;fontSize=8;fontColor=#CC6600;" parent="1" vertex="1">
                    <mxGeometry x="870" y="530" width="40" height="20" as="geometry"/>
                </mxCell>
                <mxCell id="35" value="/api/*" style="text;html=1;resizable=0;autosize=1;align=center;verticalAlign=middle;points=[];fillColor=none;strokeColor=none;rounded=0;dashed=1;fontSize=10;fontColor=#1A1A1A;" parent="1" vertex="1">
                    <mxGeometry x="760" y="418" width="40" height="20" as="geometry"/>
                </mxCell>
                <mxCell id="36" value="Redis Server" style="sketch=0;points=[[0,0,0],[0.25,0,0],[0.5,0,0],[0.75,0,0],[1,0,0],[0,1,0],[0.25,1,0],[0.5,1,0],[0.75,1,0],[1,1,0],[0,0.25,0],[0,0.5,0],[0,0.75,0],[1,0.25,0],[1,0.5,0],[1,0.75,0]];outlineConnect=0;fontColor=#232F3E;gradientColor=#F78E04;gradientDirection=north;fillColor=#D05C17;strokeColor=#ffffff;dashed=0;verticalLabelPosition=top;verticalAlign=bottom;align=center;html=1;fontSize=11;fontStyle=0;aspect=fixed;shape=mxgraph.aws4.resourceIcon;resIcon=mxgraph.aws4.fargate;labelPosition=center;" parent="1" vertex="1">
                    <mxGeometry x="1009" y="280" width="60" height="60" as="geometry"/>
                </mxCell>
                <mxCell id="38" value="" style="edgeStyle=none;html=1;fontColor=#1A1A1A;strokeColor=#232F3E;entryX=0;entryY=0.5;entryDx=0;entryDy=0;labelPosition=center;verticalLabelPosition=bottom;align=center;verticalAlign=top;entryPerimeter=0;exitX=0.995;exitY=0.143;exitDx=0;exitDy=0;exitPerimeter=0;" parent="1" source="21" target="36" edge="1">
                    <mxGeometry relative="1" as="geometry">
                        <mxPoint x="950" y="350" as="sourcePoint"/>
                        <mxPoint x="1050" y="435" as="targetPoint"/>
                    </mxGeometry>
                </mxCell>
                <mxCell id="39" value="Aurora Serverless" style="sketch=0;points=[[0,0,0],[0.25,0,0],[0.5,0,0],[0.75,0,0],[1,0,0],[0,1,0],[0.25,1,0],[0.5,1,0],[0.75,1,0],[1,1,0],[0,0.25,0],[0,0.5,0],[0,0.75,0],[1,0.25,0],[1,0.5,0],[1,0.75,0]];outlineConnect=0;fontColor=#232F3E;gradientColor=#4D72F3;gradientDirection=north;fillColor=#3334B9;strokeColor=#ffffff;dashed=0;verticalLabelPosition=bottom;verticalAlign=top;align=center;html=1;fontSize=11;fontStyle=0;aspect=fixed;shape=mxgraph.aws4.resourceIcon;resIcon=mxgraph.aws4.aurora;" parent="1" vertex="1">
                    <mxGeometry x="1009" y="521.5" width="60.5" height="60.5" as="geometry"/>
                </mxCell>
                <mxCell id="41" value="&lt;span style=&quot;color: rgb(204 , 102 , 0) ; font-size: 9px&quot;&gt;Auto Scaling (1~8)&lt;/span&gt;" style="sketch=0;outlineConnect=0;fontColor=#232F3E;gradientColor=none;fillColor=#D45B07;strokeColor=none;dashed=0;verticalLabelPosition=bottom;verticalAlign=top;align=center;html=1;fontSize=12;fontStyle=0;aspect=fixed;pointerEvents=1;shape=mxgraph.aws4.auto_scaling2;" parent="1" vertex="1">
                    <mxGeometry x="670" y="418" width="38" height="38" as="geometry"/>
                </mxCell>
                <mxCell id="43" value="&lt;span style=&quot;color: rgb(204 , 102 , 0) ; font-size: 9px&quot;&gt;Auto Scaling (1~8)&lt;/span&gt;" style="sketch=0;outlineConnect=0;fontColor=#232F3E;gradientColor=none;fillColor=#D45B07;strokeColor=none;dashed=0;verticalLabelPosition=bottom;verticalAlign=top;align=center;html=1;fontSize=12;fontStyle=0;aspect=fixed;pointerEvents=1;shape=mxgraph.aws4.auto_scaling2;" parent="1" vertex="1">
                    <mxGeometry x="850" y="418" width="38" height="38" as="geometry"/>
                </mxCell>
                <mxCell id="44" value="&lt;span style=&quot;font-size: 9px&quot;&gt;&lt;font color=&quot;#0000cc&quot;&gt;Auto Scaling (1~8)&lt;/font&gt;&lt;/span&gt;" style="sketch=0;outlineConnect=0;fontColor=#ffffff;fillColor=#0050ef;strokeColor=#001DBC;dashed=0;verticalLabelPosition=bottom;verticalAlign=top;align=center;html=1;fontSize=12;fontStyle=0;aspect=fixed;pointerEvents=1;shape=mxgraph.aws4.auto_scaling2;" parent="1" vertex="1">
                    <mxGeometry x="1020" y="416" width="38" height="38" as="geometry"/>
                </mxCell>
                <mxCell id="48" value="" style="edgeStyle=none;html=1;fontColor=#1A1A1A;strokeColor=#232F3E;labelPosition=center;verticalLabelPosition=bottom;align=center;verticalAlign=top;entryX=0;entryY=0.5;entryDx=0;entryDy=0;exitX=1.005;exitY=0.671;exitDx=0;exitDy=0;exitPerimeter=0;" parent="1" source="21" target="45" edge="1">
                    <mxGeometry relative="1" as="geometry">
                        <mxPoint x="925" y="495" as="sourcePoint"/>
                        <mxPoint x="980" y="495" as="targetPoint"/>
                    </mxGeometry>
                </mxCell>
                <mxCell id="49" value="VPC" style="points=[[0,0],[0.25,0],[0.5,0],[0.75,0],[1,0],[1,0.25],[1,0.5],[1,0.75],[1,1],[0.75,1],[0.5,1],[0.25,1],[0,1],[0,0.75],[0,0.5],[0,0.25]];outlineConnect=0;gradientColor=none;html=1;whiteSpace=wrap;fontSize=12;fontStyle=0;container=1;pointerEvents=0;collapsible=0;recursiveResize=0;shape=mxgraph.aws4.group;grIcon=mxgraph.aws4.group_vpc;strokeColor=#248814;fillColor=none;verticalAlign=top;align=left;spacingLeft=30;fontColor=#006600;dashed=0;strokeWidth=1.5;" parent="1" vertex="1">
                    <mxGeometry x="480" y="240" width="640" height="390" as="geometry"/>
                </mxCell>
                <mxCell id="57" value="/assets/*" style="text;html=1;resizable=0;autosize=1;align=center;verticalAlign=middle;points=[];fillColor=none;strokeColor=none;rounded=0;dashed=1;fontSize=10;fontColor=#1A1A1A;" parent="49" vertex="1">
                    <mxGeometry x="210" y="370" width="50" height="20" as="geometry"/>
                </mxCell>
                <mxCell id="62" value="" style="shape=image;verticalLabelPosition=bottom;labelBackgroundColor=#ffffff;verticalAlign=top;aspect=fixed;imageAspect=0;image=data:image/png,iVBORw0KGgoAAAANSUhEUgAABJ4AAAE+CAYAAADMN9qjAAAABGdBTUEAALGPC/xhBQAAACBjSFJNAAB6JgAAgIQAAPoAAACA6AAAdTAAAOpgAAA6mAAAF3CculE8AAAABmJLR0QA/wD/AP+gvaeTAAAAB3RJTUUH4QgdCDkYkDTiUAAAbIZJREFUeNrt3Xl8VOW9P/DP95yZhCDgBloVrXUhmQRZMiGTgCQzCWpRuW3vFfvror3t7dXWtiwKYiEJQxIQirLVVu29XdTa24LtbSvKVSEzQYFsExbNAuKurYq4sCUkM+f7+wNsXUBIMmcyy+f9+vX1uy/JnDnn+zznnOf5zrMIiIiIiKhXvF5PAaBzITIe0EEQeVEVD6U7O1Y9+eSOg4wQERERpTphCIiIiIh6rrgk/2ui8gAA5zH++Q2olAW9dQ/CD4vRIiIiolTFxBMRERFRD3m9nuEq2CnAwBP86TZD9LaamoYaRo2IiIhSkcEQEBEREfWUfOskkk4AMMZS2eAtKXjU6y3MYtyIiIgo1TDxRERERNRDKsju2Qf0Woj1bLHP87OJEycOYwSJiIgoVTDxRERERNRDosjoxcccAtxiOrpe9JYU+L1e7wBGkoiIiJIdE09EREREsTUIqvMhHc/7fJ6b4Gd7jIiIiJIXGzpERERE/WO4Avd7az31JSXjihgOIiIiSkZMPBERERH1rzxLjdqjC5BfwnAQERFRMmHiiYiIiCgeHFmAvLXY57mfC5ATERFRsmDiiYiIiCh+OAW4yXR07fR6C+ZMnjw5nSEhIiKiRMbEExEREVH8OR2iizsOv/tscUn+VADCkBAREVEiYuKJiIiIKF4pLhWV1V6fZ3NJSeF4BoSIiIgSDRNPRERERPGvwFLrGZ+vYHVRUf4XGA4iIiJKFEw8ERERESUGUehUMaW92OdZOWmS+1SGhIiIiOIdE09ERERECUSANAGmhSOOF7xez3Sv1+tgVIiIiCheMfFERERElJjOhGAFpOPDBciJiIiI4g4TT0RERESJLevIAuQF673ecWMYDiIiIoonTDwRERERJQUtVTFCPp/nwYkT3ecwHkRERBQPmHgiIiIiShICGArcYDgcu70l+YsnTJgwmFEhIiKi/sTEExEREVGSEWAgVOY40sLtPp/npqlTp5qMChEREfUHJp6IiIiIkpQA5ypw/9vvvLrD5/NczYgQERFRrDHxRERERJTkBMhW4DGvz/NUUVHhZYwIERERxQoTT0RERESpY5JhWs3FPs/9paWesxkOIiIishsTT0RERESpxSHATRELu70lBX6v1zuAISEiIiK7MPFERERElJoGQXU+pGOXz+e5CX62C4mIiCj62MAgIiIiSm3nK3C/t9azubg0v5DhICIiomhi4omIiIiIAMADS57xlnhWeL1eB8NBRERE0cDEExEREREBAAQwoJgOHPoTk09EREQUDUw8EREREdHHiUyB0XEXA0FERER9xcQTEREREX2KKn5UUlKYz0gQERFRXzDxRERERESfIoBhqTWXkSAiIqK+YOKJiIiIiI7naq93zGkMAxEREfUWE09EREREdDxOkTQPw0BERES9xcQTERERER2XCr7AKBAREVFvMfFERERERMdnySkMAhEREfUWE09ERERE9FmtRWEQiIiIqPdNCSIiIiIiIiIiIhsw8URERERERERERLZg4omIiIiIiIiIiGzBxBMREREREREREdmCiSciIiIiIiIiIrIFE09ERERERERERGQLJp6IiIiIiIiIiMgWTDwREREREREREZEtmHgiIiIiIiIiIiJbMPFERERERERERES2YOKJiIiIiIiIiIhswcQTERERERERERHZgoknIiIiIiIiIiKyBRNPRERERERERERkCyaeiIiIiIiIiIjIFkw8ERERERERERGRLZh4IiIiIiIiIiIiWzDxREREREREREREtmDiiYiIiIiIiIiIbMHEExERERERERER2YKJJyIiIiIiIiIisgUTT0REREREREREZAsmnoiIiIiIiIiIyBZMPBERERERERERkS2YeCIiIiIiIiIiIlsw8URERERERERERLZg4omIiIiIiIiIiGzBxBMREREREREREdmCiSciIiIiIiIiIrIFE09ERERERERERGQLJp6IiIiIiIiIiMgWTDwREREREREREZEtmHgiIiIiIiIiIiJbMPFERERERERERES2YOKJiIiIiIiIiIhswcQTERERERERERHZgoknIiIiIiIiIiKyBRNPRERERERERERkCyaeiIiIiIiIiIjIFkw8ERERERERERGRLZh4IiIiIiIiIiIiWzDxREREREREREREtmDiiYiIiIiIiIiIbMHEExERERERERER2YKJJyIiIiIiIiIisgUTT0REREREREREZAsmnoiIiIiIiIiIyBZMPBERERERERERkS2YeCIiIiIiIiIiIlsw8URERERERERERLZg4omIiIiIiIiIiGzBxBMREREREREREdmCiSciIiIiIiIiIrIFE09ERERERERERGQLJp6IiIiIiIiIiMgWTDwREREREREREZEtmHgiIiIiIiIiIiJbMPFERERERERERES2YOKJiIiIiIiIiIhswcQTERERERERERHZgoknIiIiIiIiIiKyBRNPRERERERERERkCyaeiIiIiIiIiIjIFkw8ERERERERERGRLZh4IiIiIiIiIiIiWzDxREREREREREREtmDiiYiIiIiIiIiIbMHEExERERERERER2YKJJyIiIiIiIiIisgUTT0REREREREREZAsmnoiIiIiIiIiIyBZMPBERERERERERkS2YeCIiIiIiIiIiIlsw8URERERERERERLZg4omIiIiIiIiIiGzhYAiIiIiIiIiI6EPLNg/P6BwwYFBXON3EKTjgz2k5wKhQbzHxRERERERERJTCKhuzx4ph/YvAKFboZQeBoVDANC2gE6gKuT4A0KLQzYDxVyu3dZNfYDFydDKYeIoyrzc/TwTfUcg4AF8AcCaAgwBehuBZha6uLWr4C/y8SYniiX/7qLPMcCRXNXKGAaPbMuXl0wYd3jHt0t2HGR0iIiIiSkbVoawpCpkLaAEgUOjx/vRUAOMFMh7QWWaza2dlSBdb+z73W78vGGYk6bMIQxAdJSXjL7YsaylEv3ISf75dDcys3VAfYOSI+o8qpHprzr9BrZkACo/xTNwnwCNqYHH52LbnGTEi+pDXW/Cnk3znJ0NrcXawpv4uljr1hs/ncVuQ6wWWRyHnA4Ao3lJBoynWH2tqGjcySkSxV9mcM9pQXa5QXx8P9awlMnN+busGRjV++LePOssRDm/pXR9JO8rz2kYCQFWz6zFRyQIAhR6KDDDc/pyWrhMdozrk+iUg3qPH28fEUx9NmDBhsNMZngvRmYCk9/Djf7QiOnvjxoaXGEmi2KpuzsxTmCugOuEk/jwskF8Z0lU2N3f3HkaPqH+VlnpGWRa+rEAuFGepoBvAyxB5xiHWnzZsaNhr9zkw8UR04vs0bGGpAFee4E/rBDIrEKjbxKgRxSAhsTnnDGNAZL6o/ACAGcVDr4WaM8rznnuBUY6Dcm7OPNdU441efvxQubvtFACoCrm2Axj14T8Yimvn5bU99pnfXXfJENPpfAvAgKP/6X1Otet1ScLwBgtuhIQXATinl4PH/s0w5ZpiX8Ey0QF3BoNBLthGZLPqbSPO04i5WBXfAPRkb1yHQm+KqPPfKptcFdb+s3/BIcVEsefzedwKLI5YmPSP/yj/eAMXQfXGsMqKYl/+fZHutOpnnnnmPUaNKLa8XvdQwFkVsfQ/5eQ6tQUKfdrn8/xeFbcHg/WvM4pE0Xd/k9u5Rw79QGHNh8ppNnzFtZDIFZXN2cutdFnIxcj715DOg+8dShty/bH+TUX/G8AQCIJiyc8//e9W5HjHtQxMBfCZiSeHw/EV/WfS6cPmGvVUcem4cRIxVkJQGMXD/l0Af6C4/r+5/hNR9C3bPDzj0IDBt6niDgCn9PFwz0Ewszy3bT0jS2S/0tL8M8OWVAhw0r/OKvCuKCqBjJ8Fg9FPFHPEE9En7wmvQ6TjOwosBDC0N8dQ4JCILD3cIUu2bNnSwagSRUdVKOeLCl0u0KwYfeXfRfXHYXf7Q1yAPB7rg+ttAMMA/XW5u/07J/jbD0c87Tj6/78fGWCc/VnT7apCWesA+aJC2o/WufcNhv3kXXHFhHN9Ps+DYhn1UU46AcA5CtzvrfU0+HwFExhtouipDmVNOZg2uEUVVeh70gkARkLxVFXI9dSi5pxsRpjIHm632+n1eqZHLHlBgGnowZQAAc6AYAWk49nikoLJjCaRfXy+caWQzq0K3I9eJp2O3rcDoTo/fYC1y+fLvxH8kZyobwmGra5Lq5pdqwFrXQyTTkf6tiK/MZtdDdVNOZezJJKAai2gbwM4zdlhXXG8P/M3jRgKyJGR6YrHP/zvnGp3EgoLCzPS03Vadzg8D8Bgu9vZR4YbFzwiYsyuqdn8CkuAqHcWNrlyLcEKBSba1HSdFFFra1XItTLS3V3tL9i9j1Enig6vt2CSiq4E0NfkbpaoPu71edZbEZm2cWNdG6NLFB1FRZ5LTVMWKnQqjr8TVm8MV8gDXp/n2wKdEQg0bGe0iU7e4qaLTu02BpTD0h8BSOvHU3GrWBurQq6HxYzcUTZm1xssnQQlEhbFn1Twvc+abmeK498AdSikHWK99OHvBxzxdALFJQVT0gdYLRBdDPuTTv8oVoVOjWik1VtS4C8sLMxgSRCdvEX1WWdWNmettAQNACba/HVpAGabTueLVU2u6atXR3WRRqKU4/PlZRb7PI9B9Cnpe9LpoyYZpm4v9nlWTprkPpWRJuo9r9c7yFtS4DdMffZI0sm+r7IgzT6f58Errxx/FiNP9Nn8CqOy2XVjt5G+E6q3oX+TTv/o2wL4pkbMXVWhbP+yzcPZt01QKsaaI/8HvrTq+UuOs7Gafu1IoVu/F4jzw//KxNNxFBUVji32eWpF9a8AvtBPdyiHGxP1wKrnL0mvDrlujzjkRVHp0bScKDgTghU7L3Y1VDe7ilgaRD1z+eWXn+4tyV9swdwhwNU2fY1TgGnhiOMFr9czferUqUwUE/WoVwvD58u/EdKxG6rze7Gjc2/aw4YCN3R1R9q93oI5U6fmpLEgiD6tutlVZDa7mkTxABRnx+EpDgR0/qH0wa1VzTnXscQST+YLLf+Ybrf/A+ekT70imjPPxdEf/U21/vDRf2Pi6RNKS/PPLPZ5Vhqm1ShAvHQejw43zg94vePGsJSIjvGyDWVN+WCfs0WBJQCG9OOp5KqitirkerRqe+YXWDJEJ9eRdTi7dkJljsTm19kzIVjx9juvNhSX5k9kIRCdmM9X4PHWejYr5AGgXzq1p0N08Z53Bu3gum1EH3mNbr9keFXI9aAqggDGxvv5KnAh1FpTFXIFF27NYd82gVx/PSKi8ifgH7vbfYxDjesBGFBsm5u3q/2j/8bE01F9WcA0dqRYxQj5fJ4HS0s9Z7PUiIBFTSOyKkOuxxXyVwAXx9GpXYuw0V7ZnLVyyTOZg1lSRJ9WXOrxFdd6th7pyMqwmL9VgVyxZKO3pODRoqJ8JoqJjsHr9Qz3+TwPKnQLAE8cnFKmqD7uLSl4dNKkcRexhChV+ZvcA6uaXXPMsLMNwA1IvNkxxZZlhapCrgcX1o1k3zZBfHS6nb/l4yNQFfjqkfaV/uGTn2PiCUcWMB08xLEVghUA4nrdhw+HG0cstHu9BXMmT56czhKklHzZbs45o7I5a2VEzGcFiNdfPtNEZVpXhtFeGcq6ya985hIBwKRJ7guO7BKLGjmyNW8/t6L0WsOUFm9J/uIJEyYwUUwEYMoU90Cvt2AOBG0aj51a1Wu7I0Zbsc+zkvctpZrqUNYUUw61QrEYwKAEvhQDwA2WM9Je1eyac/x1gyhefHS63Ud3t/M35VyAoz9OKBxrjlXQKauoqMDl9eWvg+hTAHIS7PRPg+jijs53t3G4MaWS+5vczqom13Qz3dp9dB2nRNid81yB3G82uzZXNmV7WIqUqiZMmDDYW5K/OBwxdx3tyMaTDKjMcaaFW32+/K+fqJOtolygnJKV+Hz5X99/wLHz6OY6cdupFSBNgGnOtHCb11vwDXA9VEpy1c2ZeVUh16ajI/0/b/PX1UOMqZbI1QDW2t63VSz+YJ9z+4LmbPZt49j11yMC4H+Bj0+3Mw3ra0efwfXlec+98MnPpWTi6cgCpp4VhqnbAfligl9Olqg+XuzzPObz5WXyVqBkVtXsmvS2HGo+Ojrx9AS8BI+Ibqlqdq2ubnZ9niVKKcMPo7jE821nWngXVObEYkHiPhiukIeLffnPFJeOG3esP/B63UMBFLBgKdkUl44bV+zLf0YhDwMYnkCnfh5Ef1vsy3/G683PY0lS0r1Gm0YMrWzOWqlq1AEYb/PX/U2hN0dy28aX57Y8Mj+3dV25u22KJTIJwLM2f3emofp4Vcj1VOW27ByWfHyyjjXdzsL/AwABfn+sz6RU4mnq1KmmtyT/ew5n9y4opgNwJsu1CXC1wnzW5ytY5vWOOY23AyWTRduyRlQ1u1ZD8RSAkQl/uyqmqqK1qsm12N+SM4glTMmspKRwvLfWUy+KXwH4XOLcqDIellHnLfH8+oorJpz74X+/6qrCMyDO3wswkKVLyWLiRPc53hLPr2EZdQIZn6jXIZDxKlJf7PP8kuuhUjL4x0h/MV+IwY7NXSq6KtLd7apwt//CL7A++o/zc1s3RPadnavQmwHssfnSJ0lEt1aHsu/3N40YypoQX1y7W4MfnW5X1ZiZCcEYABbMyJpjfSZlEk/FpR7f2++82gyVewEka+V1KnQmJG2Xz+e5idtEU6Lzbx1zWlWTa3EkIjugn945IcENhGCO2RFpq2x23ajK6QGUXLxez/BiX8HDllrPAEjIEQhyZGeWf+8Kh1/y+jxPeb2exw93Wa8AWsoSpmQwefLkdG+J5w7T4dgJxb9LEvQNBDAE+E7Ywi5viWfW1Kk5aSxpSkRHR/pvPzrS3+4dm9dGrIirIrd9ur9g977jts19wXCFu/0XDqcjU0VXAQjb3Le9yTTMnVVNrumrV4N92zjxqel2hvm1ow/gjWVjdr1xrM8kfeKpqGjc+XG1gGlsXrnDFLh/z95Xn/X58q/irUGJZvVqmJXN2d8zrcPPQzAHQPIuNCgyXBQPVDe7ahc2uXJZ+pToCgsLM44uSNwq0BOulZQgHdk0AJMgmIzEXsSV6B+KSwqmdHTubYHiTgBJtzi3AEOgWLrnnUEtxSX5U1nilCgqt2XnVIVcTx0d6e+y99t0Oyz1lbvbpvjH7XrxZD/141HPvleR2z7dsDBWgA32niLOgGDFzotcTZXNWcWsIfHho9PtVPVI4snC6uP9vSNZAzFlinvg/oPO26E6R4EBKVkbFC6F/J+3pGCtw4hMX7++8UXeIhTvFjRl+naKLBfV0Sl26RMtQVNVyPXbSMS43Z/f8iZrAyViR1bUWgngC4wGUXzyeguzAGsZVCenyFrcl4jKaq+vYIMgMj0QaGxhLaB4dOeOy07vDnf7JaK32N5PF7wLC5WZL7bfc3T0Sq/MG9f2HIBJVc2uSVCsgp2JMsEYUQlWhVxr4bCmlY/e+RJrTf9x7W4N7rw4621AzhLBaQDCEafzj8f7+2Qc8STFJflT9x1wtkF1PlI16fRR3G6WEkB1w8jzq0KuBw0xagAZnaJhEAA3mKa1uyqU7fcHLuTzixJCUVHh2GKfp1ZU/womnYji0lVXFZ5R7POshFjPHh29l2oN4lKFsbXY51k5aZKbu1JS3PAHvI7KUNZN4e7wzhjs2Nytoqsikn5xeV7byr4knT6qPLdt/Vk6cDQUMwDsszlk1yJstFc2Z61c8kwm+7b95KPT7Y4+Y9f7R+94+3h/n1SJJ683P6/Yl/+MqKwW6AWsDh/rzaYJMM2RFm73+Tw3wZ+aOxpS/FnyTObgqibXYjUjzyP+tlfvL6cAOt8xJOPZ6q3ZX2I4KF6VluafWezzrDRMq1GAIkaEKB7bx16Hz+e56XBXpF0Auzu18c4pwLRwxPGC1+uZzvVQqb9VNbsmmYPf2iaQ+wEMs7lD+Dgs67KK3Pbp/rHb3o/24W/OC3WX57WtjESMTEB/DXx8cfIoSxOVaV0DpLU6lP0NrpXaQ4q/QrBGVZpO/Kf6JARrRHX7p6qUZf4KgjUQrIElP/3kvxuKXRCsEcifk6KArrhiwrld4fB8AN8VMKFykpoMMabX1GzZzFBQvzzvFFK11XWDKJYggXa66g8CCQgiM+a5d+5gNCgeuN1u5+DBjlsgWACAIweS/yE0O1hTfxcDkXh8vnGlKsZyKC5jNI5Vt3WrCqbXbmh4msGgWPKHci4xxVoUi81zVLFLRG8rd7evjeU1Lmxy5VpHFkafGIOeRaMYmFE2tp1927htSiSwqVNz0vbsGfR9CKqQhIsixqLvL5BHTLN71vr1oVcZDoqV6sacfDWslQAKGI2TZgF4OOJwzvqsYaxEdvN6Cyap6EoBshmNlGktMvGUcPdp4SUiukihXFT7pOq4rDVg/LCmZvMrDAbZaen2Uad0hsOzAZ0D+5eEeR+CxacO7l4x7dLdh/ut3R/KmgLIKgUutLtvC8EjEcuY5c9rYd827poSCerIAqbKBUyjcofikIgshTVgcTAY7GREyC7+7ZcMN8PORQC+CXBIbCI3Iij1lJbmj4hYsgzANYxGyrUWmXhKEFdeOeqUrvDA2VDrDkDSGZGet4cPd8iSLVu2dDAiFNX6FduR/nH3Y+WyzcMzDg4YPA2KMti/O+xBQO6K7Du02O97mX3buGlKJJiiogKXYepyAFex+KLuNYGWBQINDzIUFE3+JvdA0zj0oxi9bFKlAdMvw6Yp9Vx++eWnO9K65qjKTAHSGJGUbC0y8RT3L1oYvtr8byqE09f77nWBzgsEGh4CoAwH9VXl1pxxYlkrARTG4HkdVBgzKnJbtsdjLKq3jThPI+adiM2P0K+poKwit41927hoSiSIq64qPKOzy5ovwA8AcCFAewUFOiMQaNjOUFBfqEIWhrKvU9GlAD7PiNhivWFh5tHtbImi3pG1IEsFOIsBSenWIhNPcaykpDDfUk5fZ3uY4g2TLJ8RmyPLbqxADJJxXCs1XpoSce4jC5j6AZzGIotRwgCwDOBhp9Oc9eSTm7meDPVYZSjLLWKshOoERsN23QL5dVjD8/x5u95hOKiviks9PlhYIcAoRoOYeIpPJSWF56ladyqnr7M9THHlI9PK5sH+dYgTdlpZqk8/TL2mRBzzegsmQXQFgBwWVb95HyqLhw3bv3zNmpYuhoNOxN+cea5DzfkK/S64y2Ssn+jvwkJlZP/ZP/P7gmEGhHqqqGjc+aZpLFTgBkaDPvJsYeIpjkyZ4h64f7/zRxDl9PXYeQ8qS9gephOpDmVNUZWVENvXIU6ahbRjvOD6exAsiaQby/05vJdj25SIQ6Wl+SMiatwN1WtZRPFBgV0G9NZAoOExRoOOxd+Sk2Z2WN+HoBLAEEakP+9XaVfBrfNzW9cxGnQy/rkgcUwafZR4rUUmnuLE0c11VsH+3aHo2HaqyMzamjq+X+ljKhuzx4qhKwAUxaCl1ygGZpSNbd+cVH2JUM4lpliLoIjFbpw7YeHW8nFtj7P2xqopEUe83jGnwUi7A4oZ3Ikjbq0XWDMCgcYWhoI+dGSbVGOFQi9iNOLKWqg5ozzvuRcYCjpeO6C4JP86qHGXQC9gOOg4rUUmnvpZSUlBrmXpCggmMhrxcE/IWocRmb5+feOLDEZqW1SfdWbYiQpRicU6xH9T6AIrt/2//QIrWWNaFcopAazliM10//WmGNPn5ra0sjbb3ZSIB1zANNF0K3Cv0wxXrF8f+oDhSF1Hf91ZDqCY0Yjj+1X0XqsrXO4v2L2P4aAPFZeOGwdLVghkPKNBJ2gtMvHUT7xe91AVRzk314k/CnQBuC/c5SjbtGnTfkYktdzf5Ha+jUO3QLAAwKk2f10HFKvSOq2Fcy7fmRJ1za8wjK2ub4riLgDDYtFWTrO6Ku7Ie5F9W9uaEv3+Qi3wHl3HaTSLI+HshaJq2LAL7lmzZk2E4UgdMf51h6LjHSiqM19su+f668H7NYVdccWEc7vC4fkAvitch41OrrXIxFOMfbi5jgoqhdPX45oCfzOABYHi+v+GP3lHodA/VTW7JsHCCkhM1iFeC4c1rXz0zpdSMdZ37rjs9HBXeA4EMwGkxaJvy7ayXU2JfuL1eoaLYBF34kiGWqRbDeiMmprGjQxGcovxrztkj2aFzKhwtz7NUKSWqVNz0vbsGfR9CKpg/y47lFytRSaeYtpGLpgEQ1dB4WI0EohKo5rW9NoNDVsYjOS0aFvWiEhE7gYQi3WIt4pgRlluG/tXAKoaMzNhGsuguJpt5URtSsTYlCnugfsPOm/nAqbJWJtkrRW2pm3c2PASg5GED/xm1yRVrBQgm9FICin9C1qqObog8UrA9l12KDlbi0w8xYDPl5dpwVwmiEnHiuyhAvxW1bo9GGx8k+FIDv6tY04zI4fv4KiblOuPrI0Y+iP/2PaXGfloNCVi+F1cwDQldEB0Vfdh50LOd0+SB3xsf2GgWN+vKbZmQKrxeseNUTFWSkx22aEkbi0y8WSjyy+//HTT2e0X4BYADkYkKRyEyF0Z6affuW7dusMMR2L65zpDuhQQu9ch5jpDJ6k/1teKZBjV/pyWA4x+X5oSMWn45udBZAWACQx5auB898R3547LTu8Od/tFhQ3h5JcSu6SkktLS/DPDllRwQWKKUmuRiSdb2sdeh0jHdxRaDcgwRiQp7VbRubU1DWsYisRS1ZjlhYEVgMRiHWLurNYLMV5z9g0VzC0f2/aQCJTR701TwkZcwJSg0mgYMqOmZstmBiMx+ANehzHkze8IpBr27yJB8aVJDJ1eNrad92uC+nBBYq7DRlFuLTLxFGUlJfklFmQFFJcxGilxE20QRKYHAo0tjEV8q24Yeb6akYWIzTrEOw3FbfPy2h5j5Hvv6C7bKxCL0d2CBlFML3O31THyPQ2dDT5cwJQ7cdBRKpBHIpHIbRs3Nr7GcMSvBc3ZpYbqcoAN4VS+XyF4JGIZs/x5La8yHInD6y2YdHSX2BxGg6LcWmTiKWr3aeElIrpIoVMZjZTTrcC9TjNcsX59iFOp4oy/yT3QlI7bgZisQ/weBEsi6cZyf05LF6MfHdWhrCmqshJi+3qWCuC3kYhxuz+/hWu5nXRTIsqKSwqmQHWFABcxvPQJByFyF6wBi4PBYCfDET+qtrouhWIhFGwI04cOAbL0lMP7ltw6/vUOhiN+lZbmj4iocTdUr2U0yKbWIhNPfXTllaNO6QoPnM3NdQhHF48eNuyCe9asWcPFo/uZKmRhKPs6Fb0LgN3rEFsAHo44nLP8o3e8zehH37LNwzMODhg8DYp5sH8H34OA3HXqkK47p126m2u5nbApESVFRQUuw9TlAK5iWOkEXhNoWSDQ8CBD0b/8LTmDzE6dBegdANIZETpGi+x1NWQe57THH693zGkw0u6AYgYgvH/JztYiE099iJ7Pl3+DQpYA+BzDQf+sGbpVBdNrNzRwy/Z+UhnKcosYK6Fq+zrEAgkIIjPmuXfuYORj0MdpzjzXVGMxYjBlUoDdUJlbltfKtdw+O059c9VVhWd0dlnzuYAp9bxDi4BpYsaGDfV8AMf6YfzhLh3AT6A4mxGhk1CvKtMr8lrrGYr+voFh+Grzv2lBlgpwFgNCMWgtMvHUCyUlhfmWZa2AoJDRoOPfX7LWgPHDmprNrzAYsbGwyXWOivgV+l3Yvw7xqyoor8ht4w/u/aBya844sawVAMbb/6rEBkt1ZkVe+7OM/DHj0zv/3IkDCwEMZSipNxSwDOBhp9Oc9eSTmznkNAZivEsHJRcLwMNGtzl7XsFzbzEcsef1FniPruPE+5di2Vpk4qkHSkoKz1O17tTYLE5MydEePiQiSw93yJItW7ZwertN/C05aWaH9X0IKmH/OsQHAbkrsu/QYr/vZS4x0p/3V2ynU4YF8quwhuf583a9w+h/tCnRu4bvJAiWAzqSIaQoeQ8qS4YN2798zRousmeHj+zScQOjQdFoTHFOe+wUFY073zSNhcr7l/qntcjE00koLCzMSE/XaRAtAzCIEaFeeF2g8wKBhocATm+Pajs4lDUFMFYo1O51iLnwdJxaun3UKZ3h8OyYLCAveBcWKiP7z/6Z3xcMM/o9TDwVFXkuNU1ZyJ04yEY7BXpbINDAbUUT8SFLqfYC4Zx2m02Z4h64/6Dzdi5ITP18szPxdALFJQVTRHUVgAsZDYqCoEBnBAIN2xmKvlnUNCIrIsZyQL5o/7dpowqmV+S2b2Hk41csf4xXSLtAZpa7W/6PTYmT4PV6B8HonAW17uACphQj600D0zdsqG9lKHrHrzCM5qwbBbIIwDmMCNn2IhE8ZRkys2JMawujEb2wFpfkXwc17hLoBQwH9XNrkYmn4ygpKci1LF0BwURGg6LbYeVyFH2xqD7rzIhTqqC4CfavQ/yaiM6ZN7b999yIJXFUhXJKAGsFgMti8HV/gsOaVT5650up25T4zJ7rkQVMFfITgAsQU8x1K3Cv0wxXrF8f+oDhOHlHF9JbCXBBU4oZC8DDpnTfNjd39x6Go/e83vw8FawUyHhGg+KktcjE0yeUluafGbakgpvrUAxwOYoeqm7KnqqiPwMwzOav6oBiVSTDqPbntBxg5BPPPzZcUl0KyFm21xfBgsjYtqV+gZV6TYnj8PkKi/VIBnAMqyT1s71QVA0bdsE9a9asiTAcn/GibRh5vhqRJRD8P3BBU+qft8q7gPgjH5x1L+e098wVV0w4tyscng/gu2L/LjtEPbmvmXg6yu12OwcPdtwCwQIApzIiFEM7VWRmbU3dOobi+EkER3P2SoX+0OavUgB/iKgxx5/X8iojn/ju3HHZ6eHu8HwAtwBw2lp5FH8Z1LX/a7eOfz2lNhL4VMd00iT3BZGI8y6u40TxRoFmAzItEKjbxGh84kXb5B5oSsftgM4GMJARoTi4X1sVeut8d/sTjMZn83q9A4DO2yD6YwCnMCIUh61FJp5wdB0n6N1QXMpKQf33gpX/dTgis9avb3yRwfhIW1hhmM2u3wH4qs1fFRI1ZpTltTzDqCefqtBIFxBeZvuaYCKbIlbGlf680KHUaUp8rPFb8A2I3gtgMKsdxWln1hLB8mFnXjCHo5+OqN6a/SW19KcAzmc0KP7uWXnUcnTd4h+9+3VG49O8Xs91EPwEwBcYDYrj1mJKJ55KSz3ZYQvLBbiSlYHiRKdClqU7Dy168skdBxkOoLIp+24RvdXGr3hTReZZY1t/k4rTpFLNwibXNRFgmQhG2Niv/V8rt+26VKlPxkcavz+A6ENg0oniuu0LA4rb9rzz6sPwp/ZUFFVIZVP23Wrpn8GkE8XtPatTzIhze2Vj5gRG4598vvzRXp8nAMEaMOlEFJemTp1qer2eqoiFbUw6UZwZINC5h7sHthaXenypHozqUNYUG5NOhxX4SaS7O7Mit/VXTDqlhnl5bY9ZGcZlInobAFvWGhbgK2aza3oK9eMBr7fAq6IbuKYEJVbtlfJgTV11ql5+ZXP2naJ6BysCJYj9KsbEityWlN4a2uv1DlA5tFAg08EFiSlxWospN+Jp6tSctD17TnkEIlNYASjOdUPl28Fg3cOpePFLnskc3JVhtAE4L9rHVsVfLDFm+d0tu1nNUpd/+6izHOFwlUL/w4a226GIFbnMP25X0k+dNaZOnWpC9D4mnSjRqGp5UVF+So4UWNCcXSqqc1gLKIEMFrX+Z9Xzl6SnagAmT/YMATqeFMitYNKJKK7teWfwz5l0ogThhOivfb7C4lS8+K6Bxi2IdtJJ0QLBFRV5bV9m0on8o3e8XeZuvdkwjDwAtVE+/ECHYc5LhTgae/a8+hUAmaxSlGgESBNTZqTadatCDLXuBneto8Tj+mCf87up+sg61In/gWAiqwFRfPP58q/CkV+2iRKFU2H9evLkySn1446/JScNGtUpdnsB/DCy/+wx5blt61mt6KPmjW3ZVu5u80KMqQK8HLW+HXCDvznz3GSPnwHBdaxGlLA9OSDldl+sas6+HJDRLH1KUD9IxYsuLin4rgBXs/iJ4p9CFjAKlIC+0NGx999Tqh9wWEsBOSsKhwoL5J7IYWNEubvtZ35fMMzqRMdTntvyyMDD+7MBlAGIxuL+Toca1yd73AwA+aw+lMDOKSoal1ILa4vqNSx2SmCuqqaRF6fSBU+dmpMmqvNZ9ETxr7Q0fwQADyNBiUgFN6bS9ZqKL/e5XS14Sk0ZU+Zu/ZF/fMu7rEV0Mm4d/3pHubttoZiRTAC/BaB9unfR97oc7wxAz2XVoYR+6ZhmStVhERnDUqeErsNGOKXq8DvvDP4ibFj0lIiiL6xGMaNACft+hXimTHEPTJXrVdW+DKB4HmJ8qSy37cqKMa0trD3UG2Vjdr1R7m67QYDxAOr7cCi3X5N7zW0DkHRWGUrw1+yAVLpahQ5lmVMis2AMS7ErnsRSJ0qQhrHqFxgFSmDmgQOSEjMB/AoDgpxefDQM1bmRAcbI8tyWv7LKUDSUudvqynLbClXkPwAc7sUhBqE556JkjpGD1YQo4TgZAkrojp2FtFS6XlXJ4lYARInBAk7h7UqJ/c4xBqfCdaY/e9mpYYR70SaWheV5bXeyplC0iUCB1l9VN7u6VfFgTz/vgDUUQNLuomigj/MRiYiI6DM6AYJTGQUiIorJO8fUlMidRsLhIb2KjyGPsZaQnZyHrD/3qk5Dk7q9aIBbslOCEwkzeUpE8fuMQnLP2SciIoq1cCRi9uqDii5Gj+yUcXakV3XMsMRM5rhwxBMREREREREREdmCazwRERERERERUZ8s3T7qlI7urotUcK7AGCbQYQodKiqmQpyGYNDRP+1S1YMAANEOiPGuWtZeEfNdQ623JaKvzPW072VEkwcTT5TwIiIctUdERERERBQj1Q0jz4cZGW8BBQZktEJHdIa7zxORo2v5HOmiCQRH/p9+fKqVfOT/UIWIALBgCQCHoCrk2gfoSxDZBSAEIORwOEI/HvXse4x+4nEooMJ1noiIiIiIiIj6jSqkuilzhBoy6IQdeTE7usa2tPsFVizOzd+Sk2Z2RLwixhRAr1VELgSOJBLUntV7hgAyGorRAKYCQLg7rFUh1zYonrRgPaH7z3na7wuGWXPiH0c8EREREREREfUjf8DrqGp+669iYPLJjAqJqAVzq6vB32KU+nNaDth1XlWhkS4g8p/otG6AyFDt3yWiBcBYCMYaMObg1Lfeqgy5/sc0jAfmjW3ZxloUv7jTDiU8iXCqHRERERERJS7z1Le8Akzu0YcU+UZn5Do7zqe6MSe/MuR6HIi0ApgJYGjcBU1xtgAzLMvaWhVy1S5odF3BmhSfHMJd7YiIiIiIiIj6jSjO7E3H3FAjqgmhqu2ZX9CwuVJhTUmw9XiKDANPVoVcdYbiB/Py2ppZq+IHRzwRERERERERpTC/wqgKuWYibDwr0CkJfCkFlqChMuRavnT7qFNYsvGBiSdKeMJd7YiIiIiIiHrFX3fJELPZ9UcAywAkQ7LGFGBGRzjctKhpRBZLuP8Z4FS7aAsDeEyAHxhiFQuQB0WhQL8lwK8BfMAQRZeqcldGIiIiovj1dwD3C1ClwIMK7GNIiOJD1fbML5hOZxOALyfbtQk0KyLm5gVNmT6WdP9ygImnaFGF/I8pRkVNzeYXjvHvdQAenDTJPbM74rgVwCwBBjJsUXigcMQTEVHqvXSBLlH8XARBCxglRxY+PZ2RIYor7wnEP3To/vvWrGnp+vA/TpgwYbAjLXKHQG8FMIBhIuof/qacC9BtbYDgC0l8macbYqytCuVMKXe31LDU+4eBI1sSUt8av81QFNUG6r5xnKTTP6xfH/qgNlA/3xRjhAAPgYm/PmPiiYgo5azXiIwJButnBgL1f6kN1FelpxmXKLAKR0YeE1H/to0tAR5Kc5pZgUDdqo8mnQBg06ZN+2sDdfOguJTtYaL+sag+60wTVjDJk04fGghYf61syvaw5PsHp9r1zV4oZpw19IL8YLD+mZ58sKZmyxuBQP2NhhgFAOoZSiIiohPaKcA1wUD9FRs31rV99B+eeGLLu7WB+ulQ4zJA/4+hIuonioDDwNhAoP7GJ5/c/PZn/WkwWP96IFB/I1RKAGxn8Ihiw68wwg55KEWSTh86RWA9sqj5kmGsAbHHxcV7p1uBVQ4zfHEwWL9yzZo1kd4eqKZmS0OwuH68QL8F4C2GloiI6FPeg8odw4YeGBUI1D/+2R3ZLe3BQMNkFfkXBV5k6Ihi5jWBfisYrC/ZsKF+R08+GAzWBYPF9blsDxPFhhnKminA5JS7cJHhlqY9pMpZX7HmYAh6bL1pYPqGDfWtUTuiH1YADQ96vd4/weicBbXuACSdoT45EYlw1B4RURJSwDKAh51Oc9aJRk58Um1N3aNTp+Y8sWfPoO9DUAVgMCNKZIuDELkL1oDFgWCws+/t4TF/hZF2BxQz2B4mir6FTa5zLMF8m79mL6CvA7JfBB0KvA/gkFjoUEFEIE5VHQADGVA4ITgNinMAXAAgw962hV61cGvW/wPa/4e1IXYcCnBLsJNr/O4yoLcGAg2P2fUdwWDwAAB/UZHnYcMhy6B6LSNPREQpKmhAZwQCDb2efnN0XZmVV1wxYU1XODwfwHeFo72JotY8FsgjkUjkto0bG1+LXnt42/sA7igtzf9VROVutoeJonzjGqiERvHHGMG7UDyp0E0GpCnc3d3qL9jd650rFzVfMiwcSRsuhpUHSBGAYgDnRzUGKkv9LTmP+nNaDrBGxAZHPJ3Y+1BZPDDj9BXr1q07HIsv3Lix/nkAU7zegkkQXQEgh8VAREQp4jWBlgUCDQ9G64BPPbXpbwBu9nrz/0sFKwUynmEm6kuvTRrVtKYHN9RvsesrNmxo2MX2MFF0+bePOkvD3d+MxlMA0EcB897M3S1PXX89ItE6x7m5u/cA2ANgK4D/AoCqra5LNYIbxcB/QnF2FL7mPEeHfg/AXawVscFf/Y5/J1kCPGQayAoG65bEKun0UcFg3fr9+8Jjjww1xgcslWOTCHe1IyJKgvfuIYgsgGaMiGbS6ePv1Yam2kDD5Sp6PYDXGHWiHt+nfzuyjlOdp3ZDw5ZYfOeH7WEBbgbwDkuBqPfM7u6bAQzo44Ngm4iVX+5u/1K5u+X/opl0Op7ysW3PV+S1lUesgReJ6o8BdPT5eSb6I3/Ay4E4MWIIlJ32T6s3IOMDgfobN2yo79cFDkOhUHcwWL/SNPTio9tER1g8RESUTH1ZgawxxcwO1tT5g31ZI+Ykv6+2pmFNmrPDBZEFADpZBEQn1AHRJeEuR9bRxHBM+w+hUKg7EKj/RXqakcn2MFEfiP5bH1+hD0cyDE9Z7s6m/jh9f17oUFle+2LT1DEA2vp4uAscg9/+CitFbBgAR4v84zaCvCqQrwYD9QWBQF19PJ3bhg0Ne2sD9dMF8ADYxNIiIqLEf/FKoxo6IRCou76mZvMrsfzqJ5/ccTBYU+eHGpcB+AsLg+h47WNdbYjpCtY03LFp06b9/XkuTzyx5d3aQP10qJUHaC1L5xh5hQi6GQU6Fv/2S4YDMqr3zwKsy3yh/Vv+nJau/r6WuWPad0WM9PEAQn17vlnXs2bEBqfaHbmJDgkwv6tTsgKButXxfK6BQH0oGKifqKJfB/A6S4+IiBLQ36Hy7aC3riBW03WOJxjcsjsYqP+yGrgSQAuLhugo0a2GWMW1gYavxjoxfOL7tnFbMNDghWIqgJdZWB/r3nE6Ih27ZnQ7igD0dl+xLsuK/DAW0+pOln/stvcjDufVUO19n1hk8rLNwzNYO2JQ/1L8+hWC32vEygoE6iu3bNnSkSjnXVvT8D9pzo4sAaoQhTmuREREMXh9HYboku4uR2YwWPcb+GHFy5nVbqh/CpoxRkWmKfAuy4pSt3GMt6Hyn8GihryamsaN8XyuwWD9I9AMF1TKABxk6WFvMFj/BsNAxyS9X6BfgN/6x+16Md4uyT96x9sQ81vo/fTfUw46B/tYOexnIMZztOPI61C5MlhT/7VobgEbS08+ueNgIFBfATVGQbElVSuxCKeLEhElgL8Y4siJh+k6x+/EBsO1NXU/dRg6QoGfg+vIUApRoAuKu5xmeEQwWPff8ZQYPsF92xkM1i00xMiE4Lcp3LcBIGtT+/rpM2sHJLv3Dwj5v3i9rnJ3Sw1U/9j7S0Mha4f9UnUV952GGKU1gS1J8YtAMLhl9+TJk30dne/+AcCXWK2JiCiOtKiBmbUb6p9KlBPesKFhL4AfFBUV3iemtUKAEhYjJXePVNY6xLptw4aGXXYc3t+Sk+botGYo8O8QeRcRq6x8XHswmt9RU7PlDQA3eL2en6lgpQD5KVeOat3DykyfcZ8P6+2+YuqMNMV11QcqBbiuN581DHhYOeyXilPtPnCY1tVHX05JY926dYcPdxpfU6CZ1ZqIiOKgEfiuikyDZoxJpKTTR23cuOXZ2kB9qUD+DcBLLFVKQn9XkauDNXVT7Eo6LWxyXWN2Ws8psASAC6oTYEigqtm1urrZ9flof18wWF9XG6gvgOp3kULT7wR4KBhsaGKVpuO/mHVIbz/q7O6O6ynoFXntz0IQ7F1YMJaVw36GpthwTAHmrl/f+GIyXtuWLVs6HAa+rUiModFRK1NOtSMiiidhBX7uMHREbU3dT4PBYDjRLygQqPsTNCNboPPAdWQoebxhiDGutqZunR0Hr2rMzKwMuR63BGsBXPrp3h6mqqKtKpTt9ze5B0a7ix0MNvxSIFcBKbDLm+DZAQPwQ1ZpOoFe32ed5hCJ+9vAkv/t5UeH+usuGcLqYa9UG/H0+r594f9K5gvcsKF+hwj+xKpNRESxpy8INK82UP+Do9PVkkYwGOwMBBoWGWJkQvE0y5oS/3bVH9oxA8Bfd8mQylDWUhjGDgEmn+DPMwCdb8qhtuqm7KnRPpdAoG6TQO9L6mIEGkzBFevW1e9jpaYTONTbD5qR8Jnxfy8Yj/X2s06neSGrh71SKvGk0NWhUCjpf/UQxW9ZtYmIKObvHxjfCgQatifzNdbUbHkjLc28DtDDLHFKYHuD3oa/RvOAfoVRFcr+tul07hTILABpPfj4BSq6uqrZFVgYyhwV1fa/yuok7dkcFqDqrKEHJm7YUP8WqzSdhAO9rm1iueP94srznntBIe29+WwYcg6rh70MSaGpdpIiv1CmpRlPI4XKNSJhTrUjIooDAwacnhLrizz55Oa3IfIqS5wSlsqL0dy1rrIp22NudW0B9FcAPtf784LXgtFcHXL9zL8554yodHYMIxnXZ/uLIY6cQKC+Ys2ali5WaDq52wu9XqdJRG/zB7xxvzGZoFe72x1S0WdZQ+xlKCCpcrGmKS+mwnU+8cSWdwF8kCrlKhGu8UREFA/efvvt1FljUBFhiVPCVl+xojIDYGGT65yqZtdvRHQLNGq7yJkK3GIOsJ6vbHLdsno1zD61E8UKJ1HR7RTgmmCg/ss1NZtfYE2mHt74O/vwzss3T337gWWbh2fE8yUOcDjvBPB7AHsAvHcS/3vWgv6rP3fn31hB7OVIpRFPqmYqLQh6AMBpKVGupgpvZSIiIqLY8LfkpDk6rRkWUAbFYHsaeDhDBD/bebHr5qpGnV4+rj2YwiF/Hwr//v3hn6fCsiFkW6+prY+d6a8fSh+cX9mUNd/a/7nVfl/8bR4ye/SOgwC+xrKOPw6GIHmfLKlyoRzxRERERBQbC5tc11id1nI91k519hgFQwJVza41Aswuy217JYUa85YBPOx0mrOefHLz26x91Bemos6SPtfJS0TkYfPUt35aFcr6i6Hyx+79HRv8vpc7GWH6LEw8UcITYeKJiIiIyG5VTa7/tgT/0S9frpiqwDULmrOvm5/bui7ZY61AgwGZFgjU1bPmUTTMG9f2XHXI9bICF0ahgp4ByLctwbfNIRmHq0KuZgXqAdliiNanUoKYTo4DKTQyhoiIiIiIem7RtqwRkUg/JZ3+aaChOh9AMiee3hDo3GCg4SH20yjaLODPAsyI8mHTARQKUAjoDFWgKuT6AECrCFpU0WpZeE7Tutv8o3e/zlJITRzxREREREREn91hVQyNk1MZmqQh7oDoqu7DzoWbNm3azxpHdhCHtQph44cxyAOcCqBQFYUAYBgAwk5UhVyHBfKGQl8UyIuq2goDLZFI5MXsl3a9cv313LgjWTHxRIn/AOVUOyIiIiJK3MbsWitsTdu4seElBoPsVD5650tVIdcfAXy1n04hXaEXAbhIoYAAUMA0TOy82NVZFcIuqO5SwS6I7IQlO51p5q4fj3r2PZZeYuNUOyIiIiIiothrF+iMQE39EwwFxUrE0T3LDDsnAxgSZ6c2AMAoiIwS4EiWQhTh7jCqQq49ANpUpckQbVCH1VA+eicTtQmEI56IiIiIiIhi5z0oFgAZPwsE429Lekpu/tG7X68MZc0WyP0JdNrDAAwT0SIFgLBxJBklaIRqAxRbTuk68PSt41/vYAnHJyaeKOGFw5xqR0RERETxTQHLAB4Oh9Nue/rpp/cwItRfKtztv6hqyhoJkR8l8GUMg+JqQK6GAAfTB3dUhbJqFXjMipiP+PNb3mRJxw+HAiqMAxERERERkV2CDgPTN2yo38FQUDzIfLF95s6LXacD+GaSXFIGIF8U4Iumaa2oCrkCAvlNeICs8ee0dLHE+5fBEBAREREREdnidYF+Kxio9zHpRPHk+usRKcttu1Ghi5Lw8kwAkxT6W7PTerm62VW25JnMwSz1/sPEEyV+JTbCnGpHRERERHFDgUMQWXC40xgRCDQ8yIhQPBKBVrjb58HCNQD+lqSXeY4qqroyZHdlk+uW1athsuT7oc8u3NWOiIiIiIgoWr35taKSE6yp82/ZsoWLHVPcKx/X9rjD6RgJYCWAw0l6Y54lgp/tvNi10d844iKWemxxxBMREREREVHfbTPEKg7W1E0JButeZjgokfx41LPvlbvbZoggUxT3ATiQpJc63jTMbVWhnC+y1GOHiSciIiIiIqJeUuBdKGYMG3pBXk1N40ZGhBJZWW7bK2V5bd936uHhojIdQD2Sb5bUYMD6a3Vz1tdY4rHhYAgo0YkIp4sSERERUayFFfiVaHheMBh650j/nCg53JH34gcAVgFYVd3s+rxa+DIMXAlFEYBBSXCJTlV5YEFT5pvz83YGWOL2coBrPBEREREREZ00BWo0YszYuHHLs4wGJbuy3LZXcGT9p5X3N7mde8yD49SSsSIYo4qxAEYCSE/AS3MaYqzxb79kjH/07tdZ0vbhiCciIiIiIqKT85pAy4LcqY5S1M15oW4Am4/+DwBwf5Pb+Y4ccEXEGAMLl4rg8wAuPPq/c4G43knuTCOctgLAdSxd+zDxRAnPMDjVjoiIiIjso8AhEVkKa8DiQDDYyYgQ/dPRZNSOo//7mPub3M63nQeGo0s+fzQh9XkYcj5UzlfoBQA+D2Bgf56/QP+tqjHLWz6uPcjStAen2hERERERER2bCuQRh9k9a/360KsMB1HPHE1KvXT0f8e0qD7rTE0zz1eNXKyWZEMwEoocCEYAcMbkRA3MBBBkidmDI56IiIiIiIg+QYFmUUwPBOueYTSI7DPX074XwF4A2wD88cP/fn+T2/mOHsqMiI4yIBNV4AOQac9ZyDXVDSPPL8t/7jWWSPQx8UQJr7vb4Kg9IiIiIhupoX+HJfFwKn/vyR9HIhkfQDoUQE9Ofi8UVWcNu+CeNWvWRFj6RP3j6Gip547+73cAsLDJdU4E6hORKQC+gugtam5aZngygF8w8tFnKKfaERERERHRZygfvfMlFVmM/uw7CN5Vy7qjJx8JBoOdCpzsznPdENztMMMXB4P1K5l0Ioo/8/La/l6R1/67cnfb1yIaGS6itwF4PjpHN65khO1hCBNPRERERER0AhW5rT8WyygAsCXGXx2G6k8jncalFeN2bupxhwe65IR/pFgniFwWrKmftX596AOWNlH88+fteqcst33ZWTowB6qzABzuy/EEOo5RtQen2hERERER0UkpG9fSoIoJVaGsr8mREVDn2/l9AnnCELl1rrultbfHCAQafuf1elwQzMMnp9wJnhfVmYFgw2MsXUpGlc05ow21blLBsBP+sYUOMeVPZWNb/5JI13h0St7dlc1ZTaLyOHq/S97wZZuHZ9w6/vUO1pzoYuKJiIiIiIhOmggUaP+dv8n9Z1M6bgd0NqK/HfpOWLi1bFzr49E4WDBYX+7zFaxV6LehGAEDexX461lnHvjDmjUtXSxVSkbVDSPPV408o8Cgk5rnJIBaekNlc5avIre9NtGutyK3vbYylDVHID/t5SGMzgGnfgF4vZW1J7qYeKKEZxjdnC5KREREFGP+vNAhAP7qhpG/VIe1GKpfQ88W8T6W9wSoHKYDf3bzuFB3NM83EKirB1DPkqPU6SiFSwAZ1MNPiUC+CqA2ES85w5H2685w92IAp/Tm8+FI+HRWHBuqIrjGExERERFRyhCRqHasyvKfe608t/UbKjoBgoZeHiYswM/NsF5a5m5bcXTqDBH1gSW9TAQrEnato9mjdxwE9Onefl6NHifq6CQYDAERERERUepQxcVer3totI9bkdu+pWxsW4EIbgTwxsl+TgRPGRbGlrnbfjDX076XJUQUJSKdvfzkZf6WnLSEvWwYb/b2s6ZhDGDFiT4DUI54ogR/ngrrMBFRHLjook5JlWtV/nhHidx2AtJUnDPtaZdBy3LbHhrgcGZCUAXguIv0qmKXQP+lLLftynnj2p5jyRBF/V5/p5cfTXccDo9K4Evv9bptqnqQNSf62GgiIiKiqNi7d/DIVLhOr3fMaWLzTl5E9ndIdY7P5/k3u44/e/SOg+W5bRURNbIA/AEfX97jfRG9zcowLitztz/K0iCyScR6rdefteTqRL1shZ7W62djxNjHihN9TDwRERFRVFiqvyopGf/5ZL7GSZPcp0LSfwsggyVOCc5UYI3XW/DTq64qPMOuL/Hntbxa7m77f2pZEwE8BJE7TekeUZbbvsyfw93kiOwUOXD4FQDhXr3TxfiaKhJzJLNiRK8/KsLpvjbgrnaU8AzD4FQ7IqL4MNrSSJu3JH8VrIHVwWDwQNJcmR+Grzb/m+GI/ATA2SxqShIC0R8e7tJveL0FS4YN2798zRp7kkEV43ZuArCJISeK4avL93JnVcjVBuCynj8cNKtya/YXgdZ1CXXNm3POgFi9HYHdmfnicy+z5tjQZ2cIKNF1d3ONJyKiOJIBlTmQjnafL/9GAAm/7lNJSWG+t9azSSEPgEknSk6nQ3TxnncG7fD58q9hOIiSiTb1Ollg6aLVq2Em0tUaA/R69HaAjaL9+usRYZ2xoVwU7LQTERFR1J2nkAeKfZ46r9dTkIgXUFJSeJ7P53nQUqsOQAGLlFJApkLWen2ep3y+cTkMB1HiU5Ene/1hwZidF7nmJsq1Lts8PMNQzO7D9TayxtiDI56IiIjINgLkq2CTz+d5sLTUkxCjhQoLCzO83oI5llrtCtyAJBi1RdRDkxTG1mKfZ6XXO+Y0hoMocaVZh9ehD7u8QTC/MpR9fSJc66G0wcsUelHvr9VYyxpjDyaeKPErscFRe0RE8UwAQ4EbIhZ2e0sK/JMnT06P13MtLimYkj7AaoXoYgCDWHqUwpwCTFNJf8Hr9Uz3er1cG5YoAd2R9+IHAB7vwyFMgT5c2eS6JV6vURVSFXJVq+B7fThMxwDT3MAaY1OfXT6+tSkRERGRXQZBdX7H4XefLS7JnxpPJ1ZUVDi22OepFdW/AriQRUV0hABnQLAC0vFscUnBZEaEKCG7/T/t4wEcIvhZZcj1p+pmV1ztXutvzjy3KuT6XwDz+nYk/f3s0TsOsq7YVAMZAiIiIoopxaWisjoe1pEpLc0/s9jnWWmYVqMARSwcouPKEtXHvSUFj5aUjL+Y4SBKHGW5LQEotvX1OAJ8RRVtVaGs+xY2ukb25zX5mzPPrWzOvtNUo00EX+rr8QzoCtYU+3DILCU8kW6O2iMiSkwfriNzr9MMV6xfH/ogVl/sdrudgwc7bolYWCDAqSwKopOkeq2FyFX9cd8SUW/7S9CqkHEbYEVjKlkGIDdbBm6uCrmeU8WfRYxAZAAa/DktB+y6hvub3M49csgN0fGqMhkKH6BR2XFPIY/Oc+/cwZpiHwc41Y6IiIj6j1OAaeGI4xter6dq2LAL7lmzZo2tWxl7vQWTILoCAHftIkqQ+5aI+qbc3VJTFXL9CcC/RvGwI0UwErDKzE6EK0PZuwFtE8UuGPKGqL4OQ9+yLBwWSw9EoN0Q7EtPS48cvuzZD/wCa3HTRadq2inG4S5rMLTbYYhxioh5HsQ6DyrnC/R8BS59G4fyAGRAo77fR4dlhWewhtiLI56IiIgoHpwJwYo9e1/5VknJuBk1NY0bo/0FRUWeSw2HLIPqtQw3UXTvW5+vcGYgsKWWISGKX6Z0fy+iTg+A82w4vEOgWQCyIABUj4xwseTI1rCG4MPhSeHuMMxmF6pCQDcAdIdhCgD58C+so8Nj1PZRMqJa6R+360XWDntxjSdK/EpsGBy1R0SULFTGWmrUeksKHvV6Cy6MxiG9Xu8gb0mB3zD1WSadiOy5bxVW0FtS8OikSeMuYkCI4tPc3N17RPB1AGFG48gUu7C7/SeMRAz67OBUOyIiIoq71qBeC9FWb0n+Yq/XO6hXx/DD8Pnyb4R07IbqfEDSGVgie+/b7ojRVuzzrJw82TOEASGKP2W5bRtF8B0AVko/roDWNO28wS+pHYdY4YgnIiIiilcZUJkD6Wj3+fJvBHDSCzuUlBTme2s9mxXyAICzGUqi2BAgTYBpHZ1o9/k8N02dOtVkVIjiS1lu20OAfBepm3xqs8S64o68F7k5Qoww8UQJr7tbOGqPiCi5naeQB4p9njqv11PwWX9YUlJ4ns/nedBSqw6Ah6Ej6jfnKHD/nnderS8uzZ/IcBDFl3J3668hxlcBHEipCxc0RDRS5M/d+TfWgtgxlFPtiIiIKCHaishXwSafz/NgaannY6OYCgsLM7zegjmWWu0K3IAejI4iIlu5xZKN0Vy3jYiiozy35RHDQqEAu1OiHaG479TB3UX+vF3vsPRjyyFMPBEREVGiNBqP/Gh2Q8TCv/h8+T9RlRpAR0OseQDOZ4SI4pTqtSooKfZ57hoyKLzk0UdDhxgUov43b1zbc0u3jxrTGQkvgOp0ICl3vn9TgBlleW1/YIn3D0P5iyAleiXmrnZERKnoVIUshGALRO4Dk05EcU+AgQJU7DvgeN7n89wEP5f9IIoHs0fvOFie2zrLMIxxAGqT6NLCKrrKqYezytxMOvVrn50jnoiIiIiIKFYEOFeB+721nnqfr2ACI0IUH+aNbdlW7m7zqmVdDmAtEjdX0AXgIRjIrshtn85FxPufgyEgIiIiIqJ+kKfQp32+gkdEjNk1NZtfYUiI+l/FuJ2bAExZ2OgaGTFwg6h+HSLDE+DUd0L1AQPym3l5bX9nScYPJp4o4RkGd7UjIiIiSlCi0KmWRq7xluT/FNbA6mAweIBhIep/88a1PQdgjl/xY7Mpq0hNfEVUSgDkIH6W7NkBxToR/LnM3VbHUotPDnCqHRERERER9SMBBkJlDqTjGz5f/rxAoOEh9lOI4oNfYAHtQQBBAPBvH3WWEQ57IdYEUYwEMBKQs2JwKh0AtkG1SQxpDJvdAf/o3a+zhOIfRzwREREREVG8GK6QB4p9nh/A0Bm1Gxq2MCRE8cU/esfbAFYf/d+R/9Y0Yqipxkg1cKEB41xLrLNF5XMAzgEwVCDpqlYaRE7BkdFSpx396EEcWZPJEsgHCn0X0HcAeQfAHgAvWNDdhjp2R/YPfcXvC4ZZAomHiSdKeIbRzV/DiIiIiJKIAPmwZJPPV/BIJBK5bePGxtcYFfqQmSaKXqQfTMsyGT17+PN2vYOjI6JS2eFDAx1Ad48/Z5nJvXyMAQ5hJSIiIiKi+CMKnWqYRpu3pMDv9XoHMCQEAJFu3d+bz1lQH6NHdurs6hrXq4ddJLIvmeNisGoQEREREVEcOwWq8yEdu3y+/BsRP4saU3/Zf+77AKye9+5lSVWza879TW4ng0jRVrU98wswsKI3nxXD+W4yx8ZQpM6OYJZlRVKo3lu89YmIiIgoiZyvkAe8Pk+N1ztuDMORuvy+YFghu3rxUROKxW/h0HMLmrMnM5IUlfrY5B5YFcr2I2y0AjK6F4c4fJam707mGKXUiKeMDH03hS73PT4CklYXQ0CJTAWHGQUiikciXIIiQXghRpPP5/nFlVeOP4vhSNH7FdrUh3t9hKH6eFXI9Uf/1qwLGU3qVZtWIZXNrhtNOfQ8oPMB9HI6sO64OS/UncyxSqXE0yvr1tXvS5mrFTyXKpfa1SWp1UgUvM3HPCV0FTbwJqNAlECs1EnGqOIDFnjCMBX4z67uyC5viWfW1Kk5aQxJirUngLVROMy/mpa0VjZnL/A3uQcyqnSyKpuzCqu3uupE8QCAc/v28pFHkz1eqZR4WptSd4KFx1LlUg3DSKnEk0KaQJTAVThsdIVS657FIRY7JfaLVg+mTk9W21ngCedUKJbueWdQS3FJ/lSGI3WEBxiPATgQhUNliGqFKYfaKkPZ1ydeO8PiSM0Y8m+/ZHhVKOu3orIJivxoFKHp0D8kfVNCoElfURWwBNa9qXVLZPwZwOupcKWWZaXUApOmyP/ykU8JrME/evfrqXTBAuUW4JTYdVjl1ZS5VksDACIs9YR0iais9vo8T3m9eSMZjhRIAOS0HFDofVE85AUC/UNVsytQ2ZR1Wcz7NCKn9K5Hb3AZjhhYtnl4RnVTVoUZdrYD8g1EbZMDfXTumPZdyR6/VBnxdF8g0NiSSjdGMBjshGJ2Klxrqo14mje2ZRugNXz8U0J26oDlqXbNKsYmljwlsLBhaH3qtJ8a31TgLyz2hDYJYm71+fJ/7vW6hzIcyc2KmHcDiO5yKgqviDRXh7J/6t+cc0bsLka/0KvTtbSDNcHGdpxCqkOurx5MH9yuIgsAnBLFw0cMlQUp0WcHknzevkrjkEHh2al4kwSD9b8HcD8fF0lYrU1jGsAFminhrJ+X27Y61S7aIfonQHm/UqJ6YsOGhr0p9Y6NSBmAThZ9Yj96FfJ9iGOXt8Qzw+12OxmS5OTPb3lTRebYU4f0h2a6tbMqlH3z6tUw7b4WMXB5rzr0qTQdOsYqQ1nu6mbXRgV+D+CCqL9voMvn5bU1p0Isk3vEk2IL0H31o4+GUnZ9jWFDL/iBAP/Fx0ZyqRjT2qKq3wFgMRqUIF6IOJzfSMUdozZsqH8LkP9mFaBEbEkZYixKtYveuLGuTUVuZfEnhdOhWD54iONZny//GoYjOZWPbb1fAbuWohgK6H07L3Y1VjflXG7XNVQ3jDwfiom9+awF/I21ILr8DTmfqw65fimQBgB2lXu9ta+zPFVimqyJp7BCfpKRcYYvGAy9k8o3zZo1ayKBQP1NUP13Bd5NykqcYlPtPlSR1/47iPFVAPv5eqA4V2coJvpH70jZHRkdZngegJdZFSiRCPSempotm1Px2mtr6u6Fyh0AuGhvcshUyFqvL39dUVGBi+FIsmeVQC0d+E0AdTZ+zVgVa2NVc/bD1dtGnBf1o5vW7UDvRlWJ5XidtSA6Vj1/SXpVs2uOaVq7FPgO7MuXvGB0m1/y+15OmdG1yTjV7gkrIqNqA3Vz1q1bx6kNRwWDDQ8MSDMuhco9AMKMSHIoz215RASXAfgzo0FxaD+A2yP7zp44L6/t76kciPXrQx+YBq4B8BarBSVIT27tvn2R21K77VS3REWuAcANApKnYn/RMHWHz5e/6qqrCs9gPJKHPy90KDLAuEIgT9hZgaD6dY2YO6uasn686vlL0qNx0MrGzAkK/X4vP955FtJfZQ3ou6om15c/2OdsgWIxgME2ftVWQzFxXsFzKdUmFK/P8yKALyTBtewU6G2BQMNjvG0+W2mpJztsYbkAVybD9RhiXlhTs/mVlH9YNrsmQbEcAHdyof5mAfpAJGLO9ee3vMlw/NOkSeMu6o4Y/yOIyva7RFGngGVAVqoOuD0YDPKHKgBTprgH7t9vzlaR2wUYyIgkjb0Q9cMaeB/revK4v8ntfFs65gE6F4Dda3u9ADFuLc9t+Wuv2++NmZkwjVoozu7lIZrK3W3jWPK9V9mUdZkhslyBUrtfsQL5r/AAuc2f03Ig1eKcDImn9xVaeWBf5J5QKNTNW+fkeb3516rI3QKMSOTrYOLpn/wBr8Mc8tbNABYAOJMRodi/VWSTIDKjLHdnE4NxvGev1wHj0PdUZYEA/MWd4odKo5rW9NoNDVsYjGPdu57hMHAnFFHcRpv6vdoDraZgZk1N/ZOMRvJYuDVnjGVZq4DerZvUo6YP5AkLWFjhbn26J59bEMq6yoD8FkCvd18UxX1leW3fZ4n3ot/UNGKoaZiVUNwE2Lt4vAKtIphentu2PmW7CImaeDryixwedjrNWU8+uflt3jq943a7nYMHO26BwA/gtES8BocZ/vz69SEOMf3og3RzzhlmWsQPke8DcDAiFAOvieiceWPbf5+KC4j3xuWXX366I61rjqrMFCCNEaF+9HcB/EOHXvDLNWvWRBiOz+bzedyqWA6xv0NLMbVeYM0IBBpbGIrkoApZ2Oy6XoGfwIYdyY4hJMBvw2r8yZ/X8upxz2lbVqFlGbcK9F/R1yS24ivleW1/ZmmfvPub3M49cugHClQAON3WLxO8C4g/8sFZ9/p9qT2yMjETT4qAiM4MBBq289aJjquuKjyjs8uaL8APAPu3C40mK2JdsHFjI9dfOIbKbdk5hqXLVXEFo0E26VCRpZaVscSfl7o7iPatE5uXacFcJsDVjAbFWLcC9w4cgPJ16+r3MRw9U1xSMEVUVyI5lqygf94TvxYNz0v1DYqSybLNwzMOpQ2arSJzELvpsq8ACEH1DUAOQZCmiotEMA7AuVH6jsNpHdawOZfv5EZDJ2lBc/ZkUSwTaJbNXxUGcL8Z1vlzPe17GXlAin2eFwS4KBFOViGvGrDKA4GGB1l09igqKnAZprUMkC8myjkz8XRiVc2uSapYKUA2o0FRtDZi6I/8Y9tfZij6zustmKSivE8pRi1AWWvAmFFTs/kFBqP3CgsLM9LTdZqKzhVgCCOSHBR4VxSVQMbPuP5T8qjeNuI8jZh3AvgmkmO67O/L3W1fY8me2KJtWSMiEbkbwLUxeILUGNCZ89w7dzDyH2l2JEji6SBE7oI1YHEwGOxksdnvyK941nJALo73c2Xi6eT4W3LSzE5rOoAysHFMfdOskBk9XcuATuwj058XADiVESEbtKvIrbU1desYiuiZONF9juFw+AX4DyTYyHHi/ZJqKhszJ4hhrACQl8jXYYlMmp/buoElenx37rjs9O7ucMXRWT12Lzb/PMSY1ZfF5pNZXCeePlzHSdW6PRhs5M5I/dQBUkFlXP+Kpzg/GKx/nSV2chbVZ50ZdqJCVBJuWiX1u71QVGW+2HbP9deD68DYqLQ0/8ywJRWJOP2Z4vVVyREcsVBSUpAbUV0uQBGjkVTWWxGZtnFjXRtDkSTPRIVUbXXdIIolAD6XgFfQWJbb7uG6msfmVxjGVtc3RXUpIGfZ/HUHAbnr1CFdd067dPdhRv/YxOvL3x2no1rqoZgRDNbXsZj6l9frHqriKI/bDhATT71SGcpyC2QFgMsZDTqBLoWusrrDVf6C3VwHJsadWMvSFVzEmPogrMCvrHBa2dNPP72H4YiN4pKCKVBdkSjLWdBJ6VbgXqcZrli/PvQBw5EkCYq6S4YYTuc8AaYDSE+cMzdKy90tNSzBT6sK5ZQA1goAl9n8VZYIfhU2nfP8o3dws7MTiMfE0+sCnRcINDwEMIMbbx2guPwVj4mnPqkOZU0BZJUCFzIadAzrTTGmz81taWUo+rcTK6qrwPuUetbM22BFZObGjVueZSxib+rUnLQ9ewZ9P+5HjlNP7YWiatiwC+7hLpDJwx/KucQUaxEUU+P+yQ75TZm79dsstU+UYVPOBaZY1QBuiMHX1avK9Iq81npG/iTrbbwknhQ4JCJLD3fIki1btnSwaOK+AxQ3u7gYYgyvqdnyBkumLw9q90BTDs4G5HbEbrcPimMKtIrqzPK89icZjfjw4SLGEC0DMIgRoc+wW0Xn1tY0rGEo+l/cjxynXvaidKuoOTMQ2FLLYCSPBY2uKwzBcghy4rSB9pIjzeH+8ahn32NpHbHkmczBXQOMeRDMgM2j1gR4GSq3l+W18v3a09h5fZ7nAVzSn7ePAg+lORw/fuqpTX9jkSRQByhDb4PqHQBO6ecHMEc8RUkS7vZBPfceBEsi6cZyf05LF8MRfyZNcl8Qjjh+AuB63qf08dch9gFafdbQgyvXrOH9G2+KigrHGmZkOSDFjEby3HYCWREorpsFPyyGIzn4A16HMeTN7wikGsCwODq1/ao6oSKvnaNYEfN1ug4BsvSUw/uW3Dr+dQ6S6QXxlnh2QXFpP7WQthiGMaOmZksDiyIxlZQUnmfBWgzFN/qrA8QRT9FXuTVnnFjWSgCFjEbKsAA8HHE4Z3GeemLwej2Xq2ClALmMRoo3vgFLIL82DZ23YUP9W4xIfPP5Cv7Vgi7l+k/JdBPKHcFg3RIGIrncueOy08Nd4TkQzASQ1s+n876oMaUsr+UZlgxQ3ZiTr4a1IgZ9FYXgkYhlzPLntbzKyPdefyWeXhfonECg4X/AdZySpRHlUegKAAWx/m4mnuxxZDeI7H8X1YVIyN0+6KRfBMAGS3Umf0FLxBsVhjeY/22ILARwNgOSkp4xRKbX1NQ1MxSJY/LkyemdnXunW5B5XP8pKbx3uNM4j8uFJKeFja6RlqELAZmCfvihXSAvWiL/WpHbsj3lmz1H1nGK1ajvOlWZwXWcolSPY5x46oDoqu7DzoWbNm3az/AnX30qLsm/TlSWAvh8rL7U6XCcx2maNj7g/7nbxwz0/689FOWGDKCzytxt/8toJLYrrxx1Sld44GyodQcg6YxISnhDoHO5GUtiKy3NPzNsSQXXf0p8hoibCeDkVrktO0csnQ3F1wE4Y9NYk985rc5b7sh7MaV3UvQ3uQcaRsccUZ0NIMPu96tC7ijPbX1YhO/X6CUKfJ6dAoyw+XsUgj9YYev2jRsbX2PYk78D1N2dMUeBWTF4MDDxFKsHfijnEhORuwH5F0Yj4e0X1UVDTg0vn3bp7sMMR/IoKvJcahh6N0SmMBrJSYFDovqTw4fNn3B0RfIoLfWMCltYLkAJo5GgnSpIQSBQx5ERKeDImqiO/wT0PwGca9PX1KvonIrc9pRevF4VsrA5++uq1mKIDLf56zpUcXeG07l49ugdB1nTo/yMjEHiqUkgMwKBuk0Md2qJ1QK4TDzFVtzv9kGfxRLIg6I6d15e298ZjuRVUuK5MqJYLkA2o5E87W8Bfh+JWHP4I17y8vk8X1LB0n5bf5V66wA045xgMHiAoUgd/oDX4Rjy5mQFvnr0h9nBfTzk+wDWihr3cy2nmK7jBACrRXB7WW7bK6zZ9rAz8fR3qMwNeuse5C4Pqc3r9VwOwQoAbjuOz8RT/7xojSFvfk9EFkBxBiOSELaoYUyvGNvSyFCkyrPX61Cj8/tQ9Qt4nyY4/oiXQqZOzUnbs2fQjyAoA3AaI5IAHSrgzkCgfi4jkcpt4wsHyOD0QoFRIgZyRZGtR0ZDHW+ZigNQvALB8wCaLLU2a4ZjE3cUBvzNmeealnEnBDfA/nWcmhUyo8Ld+jRrsc3PSa/P0w4gM4rH7BRguWrGImb96Z9PEBjFGz3fEsVCAOdE89CRcPjcp58OcfRGP1hUn3VmxCELANwMwMGIxCHV10WMO+bltv6O89RT09E1ZCoFuIn3acJ5U4B5geL63/BHvNQzceLEYQ7H4QUKuQlc/yme/QGa8c1gMBhmKOiT7txx2ekAELEOD1SRNIekvZ9+4L3OW8e/zqnSn+wuBi4c4Bgy8FaF/hjAIFu/TPAWgHmRsW2/9gvfr7EQ3cST4BErrLdv3NjwEkNLxzJhwoTBTmd4LkRnRmsBXCae+l9VY2YmTGMZFFczGnGjA4pVaZ3WwjmX7+RmDgSvN28kxLEC0FJGI97pYYWxcuAAXbhuXf0+xoP3LmAug+AKRiOuvAbF3GCw/rcMBVHfVIeypgDGCoVeZPNXdavovWlWV0WqL9gea9FJPIluFTVnBgJbahlSOhlFRePON01joQLfRF+HUKp1TjDY+Caj2v+qml2ToFgFwMVo9Ku1cFjTykfv5I8A9CnFJQVTRK3lgFzMaMSl9VZEpm3cWNfGUNBHeb0FkyC6AuAai/3sIETvgTWwmrM7iPrYdwiNdAms5Qq9KhbvV8CcVu5+ju/XftDXxNNeKKqGDbvgnjVr1kQYTupFI8oL0eUAxvT6IEw8xZX7m9zOt3HoFggqAQxhRGJqqwhmlOW2bWQo6LO43W7n4MGOW1RQKbxP48VOAW4NBOofZyjos+7dIUMc31ZoNSDDGJHYUcAygIdVrdvZ7iTqm0X1WWeGnagQlR/A5qnECmlXwa3zc1vXMfL9R7w+z3Po4S8nCnSJYpXDEa5evz7EIWrUJ1OnTjXfeefV/7CAKgHO6unnI+G0s55++uk9jGR88TfkfM40I4sA+RYAgxGx9ZX6NoCySG77LzlPnXpi4kT3OabTsUgVNwrv0/7qzL4rovNhDbyPa8TQySotzT8zEjH8EP0euHZbLDxmGrh9w4b6VoaC4s2dOy47vbu7e66I3ADF26JSVZbXuiYu+wctOWlmR+RHECkHcKrNX7dXFRXW/rN/4ffx/drfxOvLXwfIF3vQQPqrRjBr48b65xk+iqZJk9ynhi1HuSp+JMffAeKTDgYD9YOPVE2KRwubXLnWkV0NJzIaUcd56hQVxaXjxsGSFQIZz2jETBgq96Wny/wnntjyLsNBvVFa6smOWHp3T9ry1CPbBNasQKBxA0NB8cbfkpNmdEb+XSDVAD4+AlIQNCL40bxxbc/Fy/lWNbsmqWKlANl2v18F8itDusrm5u7m4IQ4IT6f5yYF7j+JP30OipnBYN16ho3sVFTkudQw9G6ITDlhrQQeCgTqb2TU4psqZOHWrP+nFn4CkeGMSBRiCjzmMPXWuWPadzEaFL02Qf7XFLIEAO9Te2/gp0SsmYFAYwuDQdFQXFIwWaB3Q7nGYpS8AZWyoLfuQe4oSfHGH7hwgDkk4z8A3A7ggs/4026Frkzv0Mr+3GhmUXNOdkSt5QCujMEL9v8Ax61cxykOG5lut9s5aIgZ/IxfOfcKUKGa8QsOAaeYNqJKPVeIheU4zlRQBd42xcitqdnyBqOVIC/KJvdAw+iYI6qzAWQwIr3SBhi3lrtb/o+hIDtceeWoU7q7M+YoMIv3adTtFmBWIFD/F4aCos3tdjsHner8nqjOB3AmI9IrByCyZPAp3csefTR0iOGguGpHh3IuMcW6EYrvAjinBx/9m0Bun5fb+juR2M0S8W/OOcORrgsUMZkSvNNQ3DYvr+0x1pT4JMCRLe7T0sIrFbjhI5XioEB+0d3tqHrmmWfeY6ioP3i9XgfQcbMK5gpw7j/+QfG0YZjfrqnZ/AKjlHiqt404TyPmnYjGroap430IFkfSjeX+nJYuhoPsVlIy/vMRDf9EINczGn2jwD4DunDAgDNXrlu37jAjQna66qrCMw53WxVQ3ALAyYiclIgAv1K1KrhwOMWTZZuHZxxKG3Ktit4EoLSP7eanDVg/nOfeucPOc/YHvA5jyJvfOeYUQJvax6cO7l4x7dLdfL/GsY9V3IkT3ecYTucYE9Zhy+pqDga3vc8QUTxwu93OQaeZeYZlDFOVXcHglnZGJfFVhrInCnQFgFxG4zMaw4r/CiNS7s/b9Q7DQbFWUjKuyIKsgMpYRqNnFLAA/EbUmsfOLMWaz5eXqTDvBnANo/GZd+r/Qa3ZwWDTc4wFxU0buTlntFjWrRBcB2BgFA8dVtGfWzJgvn9s9Pv6VU1ZVwKyDNKzzct60z4G9L9NCZdzHafEwJEGRNSv/ArDCLm+IwaqoTibEfnoA1oCgsgMu3+ZIjrxjQrDV5v/TYX8BOB9elJdWaABhs6o3dCwhdGg/uTzjSu1YCwTYBSj8bGXbBssvT0YbFjLYFC8qQq52gFk2viWehsw7ijLbf1NNKbfVW11XaqW3C3QKfbfuhKwRGZW5LZsZ01JpEcuEVEcWNx00aldklYmkGk4+V0Nk7XH+hJEZ5W72//EmkHx5MorR53SFR44G2rdAUg6I3JMbwh0biDQ8BC44yrFi6PJYwuyVICzUvsVi78ZwIKhQy/45Zo1ayKsHBSPFjRl+gwx1sD+9drqFPrDCnd7KN7b7wJ5UWHNZvs4MTHxRERxJZa/mMShA1BdFNnfudzve7mTtYHiVVGR51LTlIUKncpo/EMHRFfBGlgdDAYPMBwUj7zeMafBSLsDihmpljxW4JCI/rT7sHPhpk2b9rM2ULzzbx91ltndvRSCG2zut1uA/pcZxry5nva9J/OB1ath7rw46zsAqgGxO5m9H6p3sn2c2Jh4IqK4tKA5u9RQXQ7gspRoDwseiVjGLH9ey6ssfUoUPt+4UoW5AtCRqd2akrWw8KNgsO5l1gpKBF5v4SUiuigVkscKWAbkj6bZPWv9+hDfsZRwqpsz81SNnwIosPmr3oNiQeaLbfdcfz2OOxqwsjmrWCxZAcEYto/ppJtKDAERxasY74rRX5rE0OllY9s3s8QpMTuwXodIx3cUWAhgaCpduwLNR9dxepo1gRJRcanHJxaWAxidpJe4/sjC4Y3bWNqU0O8bhVRtdd0gqktjMMJoqxj6w0+2Tf3bLxluhp2LEJNdqbVRBdMrctu5TmKSYOKJiOLeovqsMy2HVCpwEwBHklzWGwq5ozy39eFoLOpI1N+uuqrwjM4ua74AtyTRfXo8e6GoGjbsgnu4RgwlvOTcPKBdRStqaxrWsIApmdy547LTw13dCyDyfZvftQrob9Qw77UQ2WNY+E+B3ApggM2X+JqIzpk3tv33bB8nFyaeiChhLGoakRUWc5kAkxP4MrpU9L70Q1o25/KdXGOCko7XW5gFiSwH5ItJeHndCtzrNMMV69eHPmBpUzL55+YBOicGnUu7vANFNZDxs2AwGGapUjK3iS1xrFDoVUlySR1QrIpkGNX+nBauk5iEmHgiooRTHcqaopDlAC5OsFNfG7Ei0/3jdr3IUqRkV1xSMEXUWg7IxUlySetNA9M3bKhvZelSMps0yX1BJOKoVuCGRDnnDxcOz0iXRevW1e9jKVIqtYkBWaXAhQl8GWsjhv7IP7b9ZZZo8mLiiYgS0v1NbufbOHQLBJUAhsT56bZZ0Jnz3e1PsOQolbjdbufgwY5bVFAp8X+fHs9OAW4NBOofZ4lSKvF6C7wwrGVQGRuv5/jhwuEixuyams2vsNQoFfmb3ANN6bgdSLjRis0KmVHhbuU6iSmAiSciSmgLm1znqIhfof8BwIyzJ+y7sFB5ot1BiJLdxInucwyHww/guwIYCXLa70FlybBh+5evWdPSxVKk1OzR/mP9pyUAPhdPp6ZAjUaMWRs3btnKgiICqppGXgwjcicU8b5b5d8V6s96of2XbB+nDiaeiCgpVIay3AJZAeDyODidboH8Oqzhef68Xe+wdIiO8Pk8bgVWApgQr+d4ZAQFHg6H0257+umn97DUiOJu/aedKlrOhcOJjm1Bc3apYelKCHLi7NS6VfReqytc7i/YzSmxKYaJJyJKGqqQhaHs61R0KYDP99NprFdTZlSMaW1hiRAdu+1RXJJ/naj05316nIcIAqaJGRs21O9gMRF9WlHRuPNN01ioMdlO/VP2QlHFhcOJTiwOl6RYCzVnlOc99wJLJ0UbfwwBESUbf5N7oGkc+hEUZQAGxaS/qtgloreVu9vXsgSITmzKFPfA/Qedt0P1dgAZ/Xw6rwm0LBBoeJAlQ3RiPl+BR1WXQ1AYg6/rgOgqhxG5k7tJEvXMR5ak+C76Z6p7G2DcWu5u+T+WRmpj4omIkpZ/+yXDzbBzEez9ZfZ9CBafOrh7xbRLdx9m1Il6xuv1DBfBon4aQXEQInfBGrA4GAx2sjSIetaPKC7Jvw5q3CXQC2w4vgrkEVXcHgzWvcxwE/Ve5daccWJZPwXgiVGWgeuc0ieqBBFRsr9sm7I9Iroyyi9bC8DDRrc5e17Bc28xykR94/MVFiusFQDGxODrVIDfqlq3B4ONbzL6RL1ny+hFxRY19bbaDQ1bGGGi6PArDGOr65uiuhSQs2z6Gq5zSsfExBMRpdbLFvgJFGf38XC1Ksb0ityW7YwsUTRv1H/soPUToM/36XE6tNKopjWdHVqi6IrG6EUFdkG0jAuHE9nnzh2Xnd4d7vaLyi0AHFE8NNc5peNi4omIUqtf25IzyOzUWYDeASC9Zy1ifV0NmVc+tu0hESijSWRXB9Y7CEbnLKh1ByDpUTrsGwKdGwg0PHSkf0tEdiguHTcOlqwQyPgefGwvVJYOG7Z/+Zo1LV2MIpH9FjWNyIqIuRLAlX05Dtc5pZPBxBMRpebLdlvWiHBElglwzUn8+UEAd0b2ddzt973MdWCIYsTny8u0YC4T4Oo+HKZDgLuczo4lTz654yCjShSbPkZxieebojofkIs/4+8OQHFPRgbuXLeunturE8WYKqS6OesrACoAGd3DRMLLCll8lmb86ua8UDejSSeoL0REqau62VWkipkAvghgwCf++TUVedjsMlZwHSei/lNcUjBZVJcByOpRgxq62hTH7TU1m19hFIliz+v1OkQ6rlTgaihGQXAWVPapWC+JoiY93VzzxBNb3mWkiPqXKqS6KasYplwPxZUALjpOruANQIMQc/VZ1oB1TDjRyWLiiYgIwKrnL0l/f59jpCjOhJhhOMIvlY/e+RIjQxQf3G63c/Cpjh+oolyAM07w5yFDrFtraho3MnJEREQ9s7jpolMjSL/YEuM0iGWo6nuWI+01/+gdbzM61BtMPBEREVHCmDBhwmBneve3oMaXAc0DcOrRf3pZgKcBfTgQaHgSXMeJiIiIKC78fz7c4ZOf1XI4AAAAJXRFWHRkYXRlOmNyZWF0ZQAyMDE3LTA4LTI5VDA4OjU3OjI0KzAwOjAwYKSlKwAAACV0RVh0ZGF0ZTptb2RpZnkAMjAxNy0wOC0yOVQwODo1NzoyNCswMDowMBH5HZcAAAAASUVORK5CYII=;" parent="49" vertex="1">
                    <mxGeometry x="360" y="101.45" width="60" height="16.14" as="geometry"/>
                </mxCell>
                <mxCell id="64" value="" style="shape=image;verticalLabelPosition=bottom;labelBackgroundColor=#ffffff;verticalAlign=top;aspect=fixed;imageAspect=0;image=data:image/png,iVBORw0KGgoAAAANSUhEUgAABJ4AAAE+CAYAAADMN9qjAAAABGdBTUEAALGPC/xhBQAAACBjSFJNAAB6JgAAgIQAAPoAAACA6AAAdTAAAOpgAAA6mAAAF3CculE8AAAABmJLR0QA/wD/AP+gvaeTAAAAB3RJTUUH4QgdCDkYkDTiUAAAbIZJREFUeNrt3Xl8VOW9P/DP95yZhCDgBloVrXUhmQRZMiGTgCQzCWpRuW3vFfvror3t7dXWtiwKYiEJQxIQirLVVu29XdTa24LtbSvKVSEzQYFsExbNAuKurYq4sCUkM+f7+wNsXUBIMmcyy+f9+vX1uy/JnDnn+zznnOf5zrMIiIiIiKhXvF5PAaBzITIe0EEQeVEVD6U7O1Y9+eSOg4wQERERpTphCIiIiIh6rrgk/2ui8gAA5zH++Q2olAW9dQ/CD4vRIiIiolTFxBMRERFRD3m9nuEq2CnAwBP86TZD9LaamoYaRo2IiIhSkcEQEBEREfWUfOskkk4AMMZS2eAtKXjU6y3MYtyIiIgo1TDxRERERNRDKsju2Qf0Woj1bLHP87OJEycOYwSJiIgoVTDxRERERNRDosjoxcccAtxiOrpe9JYU+L1e7wBGkoiIiJIdE09EREREsTUIqvMhHc/7fJ6b4Gd7jIiIiJIXGzpERERE/WO4Avd7az31JSXjihgOIiIiSkZMPBERERH1rzxLjdqjC5BfwnAQERFRMmHiiYiIiCgeHFmAvLXY57mfC5ATERFRsmDiiYiIiCh+OAW4yXR07fR6C+ZMnjw5nSEhIiKiRMbEExEREVH8OR2iizsOv/tscUn+VADCkBAREVEiYuKJiIiIKF4pLhWV1V6fZ3NJSeF4BoSIiIgSDRNPRERERPGvwFLrGZ+vYHVRUf4XGA4iIiJKFEw8ERERESUGUehUMaW92OdZOWmS+1SGhIiIiOIdE09ERERECUSANAGmhSOOF7xez3Sv1+tgVIiIiCheMfFERERElJjOhGAFpOPDBciJiIiI4g4TT0RERESJLevIAuQF673ecWMYDiIiIoonTDwRERERJQUtVTFCPp/nwYkT3ecwHkRERBQPmHgiIiIiShICGArcYDgcu70l+YsnTJgwmFEhIiKi/sTEExEREVGSEWAgVOY40sLtPp/npqlTp5qMChEREfUHJp6IiIiIkpQA5ypw/9vvvLrD5/NczYgQERFRrDHxRERERJTkBMhW4DGvz/NUUVHhZYwIERERxQoTT0RERESpY5JhWs3FPs/9paWesxkOIiIishsTT0RERESpxSHATRELu70lBX6v1zuAISEiIiK7MPFERERElJoGQXU+pGOXz+e5CX62C4mIiCj62MAgIiIiSm3nK3C/t9azubg0v5DhICIiomhi4omIiIiIAMADS57xlnhWeL1eB8NBRERE0cDEExEREREBAAQwoJgOHPoTk09EREQUDUw8EREREdHHiUyB0XEXA0FERER9xcQTEREREX2KKn5UUlKYz0gQERFRXzDxRERERESfIoBhqTWXkSAiIqK+YOKJiIiIiI7naq93zGkMAxEREfUWE09EREREdDxOkTQPw0BERES9xcQTERERER2XCr7AKBAREVFvMfFERERERMdnySkMAhEREfUWE09ERERE9FmtRWEQiIiIqPdNCSIiIiIiIiIiIhsw8URERERERERERLZg4omIiIiIiIiIiGzBxBMREREREREREdmCiSciIiIiIiIiIrIFE09ERERERERERGQLJp6IiIiIiIiIiMgWTDwREREREREREZEtmHgiIiIiIiIiIiJbMPFERERERERERES2YOKJiIiIiIiIiIhswcQTERERERERERHZgoknIiIiIiIiIiKyBRNPRERERERERERkCyaeiIiIiIiIiIjIFkw8ERERERERERGRLZh4IiIiIiIiIiIiWzDxREREREREREREtmDiiYiIiIiIiIiIbMHEExERERERERER2YKJJyIiIiIiIiIisgUTT0REREREREREZAsmnoiIiIiIiIiIyBZMPBERERERERERkS2YeCIiIiIiIiIiIlsw8URERERERERERLZg4omIiIiIiIiIiGzBxBMREREREREREdmCiSciIiIiIiIiIrIFE09ERERERERERGQLJp6IiIiIiIiIiMgWTDwREREREREREZEtmHgiIiIiIiIiIiJbMPFERERERERERES2YOKJiIiIiIiIiIhswcQTERERERERERHZgoknIiIiIiIiIiKyBRNPRERERERERERkCyaeiIiIiIiIiIjIFkw8ERERERERERGRLZh4IiIiIiIiIiIiWzDxREREREREREREtmDiiYiIiIiIiIiIbMHEExERERERERER2YKJJyIiIiIiIiIisgUTT0REREREREREZAsmnoiIiIiIiIiIyBZMPBERERERERERkS2YeCIiIiIiIiIiIlsw8URERERERERERLZg4omIiIiIiIiIiGzBxBMREREREREREdmCiSciIiIiIiIiIrIFE09ERERERERERGQLJp6IiIiIiIiIiMgWTDwREREREREREZEtmHgiIiIiIiIiIiJbMPFERERERERERES2YOKJiIiIiIiIiIhswcQTERERERERERHZgoknIiIiIiIiIiKyBRNPRERERERERERkCyaeiIiIiIiIiIjIFkw8ERERERERERGRLZh4IiIiIiIiIiIiWzDxREREREREREREtmDiiYiIiIiIiIiIbMHEExERERERERER2YKJJyIiIiIiIiIisgUTT0REREREREREZAsmnoiIiIiIiIiIyBZMPBERERERERERkS2YeCIiIiIiIiIiIlsw8URERERERERERLZg4omIiIiIiIiIiGzhYAiIiIiIiIiI6EPLNg/P6BwwYFBXON3EKTjgz2k5wKhQbzHxRERERERERJTCKhuzx4ph/YvAKFboZQeBoVDANC2gE6gKuT4A0KLQzYDxVyu3dZNfYDFydDKYeIoyrzc/TwTfUcg4AF8AcCaAgwBehuBZha6uLWr4C/y8SYniiX/7qLPMcCRXNXKGAaPbMuXl0wYd3jHt0t2HGR0iIiIiSkbVoawpCpkLaAEgUOjx/vRUAOMFMh7QWWaza2dlSBdb+z73W78vGGYk6bMIQxAdJSXjL7YsaylEv3ISf75dDcys3VAfYOSI+o8qpHprzr9BrZkACo/xTNwnwCNqYHH52LbnGTEi+pDXW/Cnk3znJ0NrcXawpv4uljr1hs/ncVuQ6wWWRyHnA4Ao3lJBoynWH2tqGjcySkSxV9mcM9pQXa5QXx8P9awlMnN+busGRjV++LePOssRDm/pXR9JO8rz2kYCQFWz6zFRyQIAhR6KDDDc/pyWrhMdozrk+iUg3qPH28fEUx9NmDBhsNMZngvRmYCk9/Djf7QiOnvjxoaXGEmi2KpuzsxTmCugOuEk/jwskF8Z0lU2N3f3HkaPqH+VlnpGWRa+rEAuFGepoBvAyxB5xiHWnzZsaNhr9zkw8UR04vs0bGGpAFee4E/rBDIrEKjbxKgRxSAhsTnnDGNAZL6o/ACAGcVDr4WaM8rznnuBUY6Dcm7OPNdU441efvxQubvtFACoCrm2Axj14T8Yimvn5bU99pnfXXfJENPpfAvAgKP/6X1Otet1ScLwBgtuhIQXATinl4PH/s0w5ZpiX8Ey0QF3BoNBLthGZLPqbSPO04i5WBXfAPRkb1yHQm+KqPPfKptcFdb+s3/BIcVEsefzedwKLI5YmPSP/yj/eAMXQfXGsMqKYl/+fZHutOpnnnnmPUaNKLa8XvdQwFkVsfQ/5eQ6tQUKfdrn8/xeFbcHg/WvM4pE0Xd/k9u5Rw79QGHNh8ppNnzFtZDIFZXN2cutdFnIxcj715DOg+8dShty/bH+TUX/G8AQCIJiyc8//e9W5HjHtQxMBfCZiSeHw/EV/WfS6cPmGvVUcem4cRIxVkJQGMXD/l0Af6C4/r+5/hNR9C3bPDzj0IDBt6niDgCn9PFwz0Ewszy3bT0jS2S/0tL8M8OWVAhw0r/OKvCuKCqBjJ8Fg9FPFHPEE9En7wmvQ6TjOwosBDC0N8dQ4JCILD3cIUu2bNnSwagSRUdVKOeLCl0u0KwYfeXfRfXHYXf7Q1yAPB7rg+ttAMMA/XW5u/07J/jbD0c87Tj6/78fGWCc/VnT7apCWesA+aJC2o/WufcNhv3kXXHFhHN9Ps+DYhn1UU46AcA5CtzvrfU0+HwFExhtouipDmVNOZg2uEUVVeh70gkARkLxVFXI9dSi5pxsRpjIHm632+n1eqZHLHlBgGnowZQAAc6AYAWk49nikoLJjCaRfXy+caWQzq0K3I9eJp2O3rcDoTo/fYC1y+fLvxH8kZyobwmGra5Lq5pdqwFrXQyTTkf6tiK/MZtdDdVNOZezJJKAai2gbwM4zdlhXXG8P/M3jRgKyJGR6YrHP/zvnGp3EgoLCzPS03Vadzg8D8Bgu9vZR4YbFzwiYsyuqdn8CkuAqHcWNrlyLcEKBSba1HSdFFFra1XItTLS3V3tL9i9j1Enig6vt2CSiq4E0NfkbpaoPu71edZbEZm2cWNdG6NLFB1FRZ5LTVMWKnQqjr8TVm8MV8gDXp/n2wKdEQg0bGe0iU7e4qaLTu02BpTD0h8BSOvHU3GrWBurQq6HxYzcUTZm1xssnQQlEhbFn1Twvc+abmeK498AdSikHWK99OHvBxzxdALFJQVT0gdYLRBdDPuTTv8oVoVOjWik1VtS4C8sLMxgSRCdvEX1WWdWNmettAQNACba/HVpAGabTueLVU2u6atXR3WRRqKU4/PlZRb7PI9B9Cnpe9LpoyYZpm4v9nlWTprkPpWRJuo9r9c7yFtS4DdMffZI0sm+r7IgzT6f58Errxx/FiNP9Nn8CqOy2XVjt5G+E6q3oX+TTv/o2wL4pkbMXVWhbP+yzcPZt01QKsaaI/8HvrTq+UuOs7Gafu1IoVu/F4jzw//KxNNxFBUVji32eWpF9a8AvtBPdyiHGxP1wKrnL0mvDrlujzjkRVHp0bScKDgTghU7L3Y1VDe7ilgaRD1z+eWXn+4tyV9swdwhwNU2fY1TgGnhiOMFr9czferUqUwUE/WoVwvD58u/EdKxG6rze7Gjc2/aw4YCN3R1R9q93oI5U6fmpLEgiD6tutlVZDa7mkTxABRnx+EpDgR0/qH0wa1VzTnXscQST+YLLf+Ybrf/A+ekT70imjPPxdEf/U21/vDRf2Pi6RNKS/PPLPZ5Vhqm1ShAvHQejw43zg94vePGsJSIjvGyDWVN+WCfs0WBJQCG9OOp5KqitirkerRqe+YXWDJEJ9eRdTi7dkJljsTm19kzIVjx9juvNhSX5k9kIRCdmM9X4PHWejYr5AGgXzq1p0N08Z53Bu3gum1EH3mNbr9keFXI9aAqggDGxvv5KnAh1FpTFXIFF27NYd82gVx/PSKi8ifgH7vbfYxDjesBGFBsm5u3q/2j/8bE01F9WcA0dqRYxQj5fJ4HS0s9Z7PUiIBFTSOyKkOuxxXyVwAXx9GpXYuw0V7ZnLVyyTOZg1lSRJ9WXOrxFdd6th7pyMqwmL9VgVyxZKO3pODRoqJ8JoqJjsHr9Qz3+TwPKnQLAE8cnFKmqD7uLSl4dNKkcRexhChV+ZvcA6uaXXPMsLMNwA1IvNkxxZZlhapCrgcX1o1k3zZBfHS6nb/l4yNQFfjqkfaV/uGTn2PiCUcWMB08xLEVghUA4nrdhw+HG0cstHu9BXMmT56czhKklHzZbs45o7I5a2VEzGcFiNdfPtNEZVpXhtFeGcq6ya985hIBwKRJ7guO7BKLGjmyNW8/t6L0WsOUFm9J/uIJEyYwUUwEYMoU90Cvt2AOBG0aj51a1Wu7I0Zbsc+zkvctpZrqUNYUUw61QrEYwKAEvhQDwA2WM9Je1eyac/x1gyhefHS63Ud3t/M35VyAoz9OKBxrjlXQKauoqMDl9eWvg+hTAHIS7PRPg+jijs53t3G4MaWS+5vczqom13Qz3dp9dB2nRNid81yB3G82uzZXNmV7WIqUqiZMmDDYW5K/OBwxdx3tyMaTDKjMcaaFW32+/K+fqJOtolygnJKV+Hz5X99/wLHz6OY6cdupFSBNgGnOtHCb11vwDXA9VEpy1c2ZeVUh16ajI/0/b/PX1UOMqZbI1QDW2t63VSz+YJ9z+4LmbPZt49j11yMC4H+Bj0+3Mw3ra0efwfXlec+98MnPpWTi6cgCpp4VhqnbAfligl9Olqg+XuzzPObz5WXyVqBkVtXsmvS2HGo+Ojrx9AS8BI+Ibqlqdq2ubnZ9niVKKcMPo7jE821nWngXVObEYkHiPhiukIeLffnPFJeOG3esP/B63UMBFLBgKdkUl44bV+zLf0YhDwMYnkCnfh5Ef1vsy3/G683PY0lS0r1Gm0YMrWzOWqlq1AEYb/PX/U2hN0dy28aX57Y8Mj+3dV25u22KJTIJwLM2f3emofp4Vcj1VOW27ByWfHyyjjXdzsL/AwABfn+sz6RU4mnq1KmmtyT/ew5n9y4opgNwJsu1CXC1wnzW5ytY5vWOOY23AyWTRduyRlQ1u1ZD8RSAkQl/uyqmqqK1qsm12N+SM4glTMmspKRwvLfWUy+KXwH4XOLcqDIellHnLfH8+oorJpz74X+/6qrCMyDO3wswkKVLyWLiRPc53hLPr2EZdQIZn6jXIZDxKlJf7PP8kuuhUjL4x0h/MV+IwY7NXSq6KtLd7apwt//CL7A++o/zc1s3RPadnavQmwHssfnSJ0lEt1aHsu/3N40YypoQX1y7W4MfnW5X1ZiZCcEYABbMyJpjfSZlEk/FpR7f2++82gyVewEka+V1KnQmJG2Xz+e5idtEU6Lzbx1zWlWTa3EkIjugn945IcENhGCO2RFpq2x23ajK6QGUXLxez/BiX8HDllrPAEjIEQhyZGeWf+8Kh1/y+jxPeb2exw93Wa8AWsoSpmQwefLkdG+J5w7T4dgJxb9LEvQNBDAE+E7Ywi5viWfW1Kk5aSxpSkRHR/pvPzrS3+4dm9dGrIirIrd9ur9g977jts19wXCFu/0XDqcjU0VXAQjb3Le9yTTMnVVNrumrV4N92zjxqel2hvm1ow/gjWVjdr1xrM8kfeKpqGjc+XG1gGlsXrnDFLh/z95Xn/X58q/irUGJZvVqmJXN2d8zrcPPQzAHQPIuNCgyXBQPVDe7ahc2uXJZ+pToCgsLM44uSNwq0BOulZQgHdk0AJMgmIzEXsSV6B+KSwqmdHTubYHiTgBJtzi3AEOgWLrnnUEtxSX5U1nilCgqt2XnVIVcTx0d6e+y99t0Oyz1lbvbpvjH7XrxZD/141HPvleR2z7dsDBWgA32niLOgGDFzotcTZXNWcWsIfHho9PtVPVI4snC6uP9vSNZAzFlinvg/oPO26E6R4EBKVkbFC6F/J+3pGCtw4hMX7++8UXeIhTvFjRl+naKLBfV0Sl26RMtQVNVyPXbSMS43Z/f8iZrAyViR1bUWgngC4wGUXzyeguzAGsZVCenyFrcl4jKaq+vYIMgMj0QaGxhLaB4dOeOy07vDnf7JaK32N5PF7wLC5WZL7bfc3T0Sq/MG9f2HIBJVc2uSVCsgp2JMsEYUQlWhVxr4bCmlY/e+RJrTf9x7W4N7rw4621AzhLBaQDCEafzj8f7+2Qc8STFJflT9x1wtkF1PlI16fRR3G6WEkB1w8jzq0KuBw0xagAZnaJhEAA3mKa1uyqU7fcHLuTzixJCUVHh2GKfp1ZU/womnYji0lVXFZ5R7POshFjPHh29l2oN4lKFsbXY51k5aZKbu1JS3PAHvI7KUNZN4e7wzhjs2Nytoqsikn5xeV7byr4knT6qPLdt/Vk6cDQUMwDsszlk1yJstFc2Z61c8kwm+7b95KPT7Y4+Y9f7R+94+3h/n1SJJ683P6/Yl/+MqKwW6AWsDh/rzaYJMM2RFm73+Tw3wZ+aOxpS/FnyTObgqibXYjUjzyP+tlfvL6cAOt8xJOPZ6q3ZX2I4KF6VluafWezzrDRMq1GAIkaEKB7bx16Hz+e56XBXpF0Auzu18c4pwLRwxPGC1+uZzvVQqb9VNbsmmYPf2iaQ+wEMs7lD+Dgs67KK3Pbp/rHb3o/24W/OC3WX57WtjESMTEB/DXx8cfIoSxOVaV0DpLU6lP0NrpXaQ4q/QrBGVZpO/Kf6JARrRHX7p6qUZf4KgjUQrIElP/3kvxuKXRCsEcifk6KArrhiwrld4fB8AN8VMKFykpoMMabX1GzZzFBQvzzvFFK11XWDKJYggXa66g8CCQgiM+a5d+5gNCgeuN1u5+DBjlsgWACAIweS/yE0O1hTfxcDkXh8vnGlKsZyKC5jNI5Vt3WrCqbXbmh4msGgWPKHci4xxVoUi81zVLFLRG8rd7evjeU1Lmxy5VpHFkafGIOeRaMYmFE2tp1927htSiSwqVNz0vbsGfR9CKqQhIsixqLvL5BHTLN71vr1oVcZDoqV6sacfDWslQAKGI2TZgF4OOJwzvqsYaxEdvN6Cyap6EoBshmNlGktMvGUcPdp4SUiukihXFT7pOq4rDVg/LCmZvMrDAbZaen2Uad0hsOzAZ0D+5eEeR+CxacO7l4x7dLdh/ut3R/KmgLIKgUutLtvC8EjEcuY5c9rYd827poSCerIAqbKBUyjcofikIgshTVgcTAY7GREyC7+7ZcMN8PORQC+CXBIbCI3Iij1lJbmj4hYsgzANYxGyrUWmXhKEFdeOeqUrvDA2VDrDkDSGZGet4cPd8iSLVu2dDAiFNX6FduR/nH3Y+WyzcMzDg4YPA2KMti/O+xBQO6K7Du02O97mX3buGlKJJiiogKXYepyAFex+KLuNYGWBQINDzIUFE3+JvdA0zj0oxi9bFKlAdMvw6Yp9Vx++eWnO9K65qjKTAHSGJGUbC0y8RT3L1oYvtr8byqE09f77nWBzgsEGh4CoAwH9VXl1pxxYlkrARTG4HkdVBgzKnJbtsdjLKq3jThPI+adiM2P0K+poKwit41927hoSiSIq64qPKOzy5ovwA8AcCFAewUFOiMQaNjOUFBfqEIWhrKvU9GlAD7PiNhivWFh5tHtbImi3pG1IEsFOIsBSenWIhNPcaykpDDfUk5fZ3uY4g2TLJ8RmyPLbqxADJJxXCs1XpoSce4jC5j6AZzGIotRwgCwDOBhp9Oc9eSTm7meDPVYZSjLLWKshOoERsN23QL5dVjD8/x5u95hOKiviks9PlhYIcAoRoOYeIpPJSWF56ladyqnr7M9THHlI9PK5sH+dYgTdlpZqk8/TL2mRBzzegsmQXQFgBwWVb95HyqLhw3bv3zNmpYuhoNOxN+cea5DzfkK/S64y2Ssn+jvwkJlZP/ZP/P7gmEGhHqqqGjc+aZpLFTgBkaDPvJsYeIpjkyZ4h64f7/zRxDl9PXYeQ8qS9gephOpDmVNUZWVENvXIU6ahbRjvOD6exAsiaQby/05vJdj25SIQ6Wl+SMiatwN1WtZRPFBgV0G9NZAoOExRoOOxd+Sk2Z2WN+HoBLAEEakP+9XaVfBrfNzW9cxGnQy/rkgcUwafZR4rUUmnuLE0c11VsH+3aHo2HaqyMzamjq+X+ljKhuzx4qhKwAUxaCl1ygGZpSNbd+cVH2JUM4lpliLoIjFbpw7YeHW8nFtj7P2xqopEUe83jGnwUi7A4oZ3Ikjbq0XWDMCgcYWhoI+dGSbVGOFQi9iNOLKWqg5ozzvuRcYCjpeO6C4JP86qHGXQC9gOOg4rUUmnvpZSUlBrmXpCggmMhrxcE/IWocRmb5+feOLDEZqW1SfdWbYiQpRicU6xH9T6AIrt/2//QIrWWNaFcopAazliM10//WmGNPn5ra0sjbb3ZSIB1zANNF0K3Cv0wxXrF8f+oDhSF1Hf91ZDqCY0Yjj+1X0XqsrXO4v2L2P4aAPFZeOGwdLVghkPKNBJ2gtMvHUT7xe91AVRzk314k/CnQBuC/c5SjbtGnTfkYktdzf5Ha+jUO3QLAAwKk2f10HFKvSOq2Fcy7fmRJ1za8wjK2ub4riLgDDYtFWTrO6Ku7Ie5F9W9uaEv3+Qi3wHl3HaTSLI+HshaJq2LAL7lmzZk2E4UgdMf51h6LjHSiqM19su+f668H7NYVdccWEc7vC4fkAvitch41OrrXIxFOMfbi5jgoqhdPX45oCfzOABYHi+v+GP3lHodA/VTW7JsHCCkhM1iFeC4c1rXz0zpdSMdZ37rjs9HBXeA4EMwGkxaJvy7ayXU2JfuL1eoaLYBF34kiGWqRbDeiMmprGjQxGcovxrztkj2aFzKhwtz7NUKSWqVNz0vbsGfR9CKpg/y47lFytRSaeYtpGLpgEQ1dB4WI0EohKo5rW9NoNDVsYjOS0aFvWiEhE7gYQi3WIt4pgRlluG/tXAKoaMzNhGsuguJpt5URtSsTYlCnugfsPOm/nAqbJWJtkrRW2pm3c2PASg5GED/xm1yRVrBQgm9FICin9C1qqObog8UrA9l12KDlbi0w8xYDPl5dpwVwmiEnHiuyhAvxW1bo9GGx8k+FIDv6tY04zI4fv4KiblOuPrI0Y+iP/2PaXGfloNCVi+F1cwDQldEB0Vfdh50LOd0+SB3xsf2GgWN+vKbZmQKrxeseNUTFWSkx22aEkbi0y8WSjyy+//HTT2e0X4BYADkYkKRyEyF0Z6affuW7dusMMR2L65zpDuhQQu9ch5jpDJ6k/1teKZBjV/pyWA4x+X5oSMWn45udBZAWACQx5auB898R3547LTu8Od/tFhQ3h5JcSu6SkktLS/DPDllRwQWKKUmuRiSdb2sdeh0jHdxRaDcgwRiQp7VbRubU1DWsYisRS1ZjlhYEVgMRiHWLurNYLMV5z9g0VzC0f2/aQCJTR701TwkZcwJSg0mgYMqOmZstmBiMx+ANehzHkze8IpBr27yJB8aVJDJ1eNrad92uC+nBBYq7DRlFuLTLxFGUlJfklFmQFFJcxGilxE20QRKYHAo0tjEV8q24Yeb6akYWIzTrEOw3FbfPy2h5j5Hvv6C7bKxCL0d2CBlFML3O31THyPQ2dDT5cwJQ7cdBRKpBHIpHIbRs3Nr7GcMSvBc3ZpYbqcoAN4VS+XyF4JGIZs/x5La8yHInD6y2YdHSX2BxGg6LcWmTiKWr3aeElIrpIoVMZjZTTrcC9TjNcsX59iFOp4oy/yT3QlI7bgZisQ/weBEsi6cZyf05LF6MfHdWhrCmqshJi+3qWCuC3kYhxuz+/hWu5nXRTIsqKSwqmQHWFABcxvPQJByFyF6wBi4PBYCfDET+qtrouhWIhFGwI04cOAbL0lMP7ltw6/vUOhiN+lZbmj4iocTdUr2U0yKbWIhNPfXTllaNO6QoPnM3NdQhHF48eNuyCe9asWcPFo/uZKmRhKPs6Fb0LgN3rEFsAHo44nLP8o3e8zehH37LNwzMODhg8DYp5sH8H34OA3HXqkK47p126m2u5nbApESVFRQUuw9TlAK5iWOkEXhNoWSDQ8CBD0b/8LTmDzE6dBegdANIZETpGi+x1NWQe57THH693zGkw0u6AYgYgvH/JztYiE099iJ7Pl3+DQpYA+BzDQf+sGbpVBdNrNzRwy/Z+UhnKcosYK6Fq+zrEAgkIIjPmuXfuYORj0MdpzjzXVGMxYjBlUoDdUJlbltfKtdw+O059c9VVhWd0dlnzuYAp9bxDi4BpYsaGDfV8AMf6YfzhLh3AT6A4mxGhk1CvKtMr8lrrGYr+voFh+Grzv2lBlgpwFgNCMWgtMvHUCyUlhfmWZa2AoJDRoOPfX7LWgPHDmprNrzAYsbGwyXWOivgV+l3Yvw7xqyoor8ht4w/u/aBya844sawVAMbb/6rEBkt1ZkVe+7OM/DHj0zv/3IkDCwEMZSipNxSwDOBhp9Oc9eSTmznkNAZivEsHJRcLwMNGtzl7XsFzbzEcsef1FniPruPE+5di2Vpk4qkHSkoKz1O17tTYLE5MydEePiQiSw93yJItW7ZwertN/C05aWaH9X0IKmH/OsQHAbkrsu/QYr/vZS4x0p/3V2ynU4YF8quwhuf583a9w+h/tCnRu4bvJAiWAzqSIaQoeQ8qS4YN2798zRousmeHj+zScQOjQdFoTHFOe+wUFY073zSNhcr7l/qntcjE00koLCzMSE/XaRAtAzCIEaFeeF2g8wKBhocATm+Pajs4lDUFMFYo1O51iLnwdJxaun3UKZ3h8OyYLCAveBcWKiP7z/6Z3xcMM/o9TDwVFXkuNU1ZyJ04yEY7BXpbINDAbUUT8SFLqfYC4Zx2m02Z4h64/6Dzdi5ITP18szPxdALFJQVTRHUVgAsZDYqCoEBnBAIN2xmKvlnUNCIrIsZyQL5o/7dpowqmV+S2b2Hk41csf4xXSLtAZpa7W/6PTYmT4PV6B8HonAW17uACphQj600D0zdsqG9lKHrHrzCM5qwbBbIIwDmMCNn2IhE8ZRkys2JMawujEb2wFpfkXwc17hLoBQwH9XNrkYmn4ygpKci1LF0BwURGg6LbYeVyFH2xqD7rzIhTqqC4CfavQ/yaiM6ZN7b999yIJXFUhXJKAGsFgMti8HV/gsOaVT5650up25T4zJ7rkQVMFfITgAsQU8x1K3Cv0wxXrF8f+oDhOHlHF9JbCXBBU4oZC8DDpnTfNjd39x6Go/e83vw8FawUyHhGg+KktcjE0yeUluafGbakgpvrUAxwOYoeqm7KnqqiPwMwzOav6oBiVSTDqPbntBxg5BPPPzZcUl0KyFm21xfBgsjYtqV+gZV6TYnj8PkKi/VIBnAMqyT1s71QVA0bdsE9a9asiTAcn/GibRh5vhqRJRD8P3BBU+qft8q7gPgjH5x1L+e098wVV0w4tyscng/gu2L/LjtEPbmvmXg6yu12OwcPdtwCwQIApzIiFEM7VWRmbU3dOobi+EkER3P2SoX+0OavUgB/iKgxx5/X8iojn/ju3HHZ6eHu8HwAtwBw2lp5FH8Z1LX/a7eOfz2lNhL4VMd00iT3BZGI8y6u40TxRoFmAzItEKjbxGh84kXb5B5oSsftgM4GMJARoTi4X1sVeut8d/sTjMZn83q9A4DO2yD6YwCnMCIUh61FJp5wdB0n6N1QXMpKQf33gpX/dTgis9avb3yRwfhIW1hhmM2u3wH4qs1fFRI1ZpTltTzDqCefqtBIFxBeZvuaYCKbIlbGlf680KHUaUp8rPFb8A2I3gtgMKsdxWln1hLB8mFnXjCHo5+OqN6a/SW19KcAzmc0KP7uWXnUcnTd4h+9+3VG49O8Xs91EPwEwBcYDYrj1mJKJ55KSz3ZYQvLBbiSlYHiRKdClqU7Dy168skdBxkOoLIp+24RvdXGr3hTReZZY1t/k4rTpFLNwibXNRFgmQhG2Niv/V8rt+26VKlPxkcavz+A6ENg0oniuu0LA4rb9rzz6sPwp/ZUFFVIZVP23Wrpn8GkE8XtPatTzIhze2Vj5gRG4598vvzRXp8nAMEaMOlEFJemTp1qer2eqoiFbUw6UZwZINC5h7sHthaXenypHozqUNYUG5NOhxX4SaS7O7Mit/VXTDqlhnl5bY9ZGcZlInobAFvWGhbgK2aza3oK9eMBr7fAq6IbuKYEJVbtlfJgTV11ql5+ZXP2naJ6BysCJYj9KsbEityWlN4a2uv1DlA5tFAg08EFiSlxWospN+Jp6tSctD17TnkEIlNYASjOdUPl28Fg3cOpePFLnskc3JVhtAE4L9rHVsVfLDFm+d0tu1nNUpd/+6izHOFwlUL/w4a226GIFbnMP25X0k+dNaZOnWpC9D4mnSjRqGp5UVF+So4UWNCcXSqqc1gLKIEMFrX+Z9Xzl6SnagAmT/YMATqeFMitYNKJKK7teWfwz5l0ogThhOivfb7C4lS8+K6Bxi2IdtJJ0QLBFRV5bV9m0on8o3e8XeZuvdkwjDwAtVE+/ECHYc5LhTgae/a8+hUAmaxSlGgESBNTZqTadatCDLXuBneto8Tj+mCf87up+sg61In/gWAiqwFRfPP58q/CkV+2iRKFU2H9evLkySn1446/JScNGtUpdnsB/DCy/+wx5blt61mt6KPmjW3ZVu5u80KMqQK8HLW+HXCDvznz3GSPnwHBdaxGlLA9OSDldl+sas6+HJDRLH1KUD9IxYsuLin4rgBXs/iJ4p9CFjAKlIC+0NGx999Tqh9wWEsBOSsKhwoL5J7IYWNEubvtZ35fMMzqRMdTntvyyMDD+7MBlAGIxuL+Toca1yd73AwA+aw+lMDOKSoal1ILa4vqNSx2SmCuqqaRF6fSBU+dmpMmqvNZ9ETxr7Q0fwQADyNBiUgFN6bS9ZqKL/e5XS14Sk0ZU+Zu/ZF/fMu7rEV0Mm4d/3pHubttoZiRTAC/BaB9unfR97oc7wxAz2XVoYR+6ZhmStVhERnDUqeErsNGOKXq8DvvDP4ibFj0lIiiL6xGMaNACft+hXimTHEPTJXrVdW+DKB4HmJ8qSy37cqKMa0trD3UG2Vjdr1R7m67QYDxAOr7cCi3X5N7zW0DkHRWGUrw1+yAVLpahQ5lmVMis2AMS7ErnsRSJ0qQhrHqFxgFSmDmgQOSEjMB/AoDgpxefDQM1bmRAcbI8tyWv7LKUDSUudvqynLbClXkPwAc7sUhBqE556JkjpGD1YQo4TgZAkrojp2FtFS6XlXJ4lYARInBAk7h7UqJ/c4xBqfCdaY/e9mpYYR70SaWheV5bXeyplC0iUCB1l9VN7u6VfFgTz/vgDUUQNLuomigj/MRiYiI6DM6AYJTGQUiIorJO8fUlMidRsLhIb2KjyGPsZaQnZyHrD/3qk5Dk7q9aIBbslOCEwkzeUpE8fuMQnLP2SciIoq1cCRi9uqDii5Gj+yUcXakV3XMsMRM5rhwxBMREREREREREdmCazwRERERERERUZ8s3T7qlI7urotUcK7AGCbQYQodKiqmQpyGYNDRP+1S1YMAANEOiPGuWtZeEfNdQ623JaKvzPW072VEkwcTT5TwIiIctUdERERERBQj1Q0jz4cZGW8BBQZktEJHdIa7zxORo2v5HOmiCQRH/p9+fKqVfOT/UIWIALBgCQCHoCrk2gfoSxDZBSAEIORwOEI/HvXse4x+4nEooMJ1noiIiIiIiIj6jSqkuilzhBoy6IQdeTE7usa2tPsFVizOzd+Sk2Z2RLwixhRAr1VELgSOJBLUntV7hgAyGorRAKYCQLg7rFUh1zYonrRgPaH7z3na7wuGWXPiH0c8EREREREREfUjf8DrqGp+669iYPLJjAqJqAVzq6vB32KU+nNaDth1XlWhkS4g8p/otG6AyFDt3yWiBcBYCMYaMObg1Lfeqgy5/sc0jAfmjW3ZxloUv7jTDiU8iXCqHRERERERJS7z1Le8Akzu0YcU+UZn5Do7zqe6MSe/MuR6HIi0ApgJYGjcBU1xtgAzLMvaWhVy1S5odF3BmhSfHMJd7YiIiIiIiIj6jSjO7E3H3FAjqgmhqu2ZX9CwuVJhTUmw9XiKDANPVoVcdYbiB/Py2ppZq+IHRzwRERERERERpTC/wqgKuWYibDwr0CkJfCkFlqChMuRavnT7qFNYsvGBiSdKeMJd7YiIiIiIiHrFX3fJELPZ9UcAywAkQ7LGFGBGRzjctKhpRBZLuP8Z4FS7aAsDeEyAHxhiFQuQB0WhQL8lwK8BfMAQRZeqcldGIiIiovj1dwD3C1ClwIMK7GNIiOJD1fbML5hOZxOALyfbtQk0KyLm5gVNmT6WdP9ygImnaFGF/I8pRkVNzeYXjvHvdQAenDTJPbM74rgVwCwBBjJsUXigcMQTEVHqvXSBLlH8XARBCxglRxY+PZ2RIYor7wnEP3To/vvWrGnp+vA/TpgwYbAjLXKHQG8FMIBhIuof/qacC9BtbYDgC0l8macbYqytCuVMKXe31LDU+4eBI1sSUt8av81QFNUG6r5xnKTTP6xfH/qgNlA/3xRjhAAPgYm/PmPiiYgo5azXiIwJButnBgL1f6kN1FelpxmXKLAKR0YeE1H/to0tAR5Kc5pZgUDdqo8mnQBg06ZN+2sDdfOguJTtYaL+sag+60wTVjDJk04fGghYf61syvaw5PsHp9r1zV4oZpw19IL8YLD+mZ58sKZmyxuBQP2NhhgFAOoZSiIiohPaKcA1wUD9FRs31rV99B+eeGLLu7WB+ulQ4zJA/4+hIuonioDDwNhAoP7GJ5/c/PZn/WkwWP96IFB/I1RKAGxn8Ihiw68wwg55KEWSTh86RWA9sqj5kmGsAbHHxcV7p1uBVQ4zfHEwWL9yzZo1kd4eqKZmS0OwuH68QL8F4C2GloiI6FPeg8odw4YeGBUI1D/+2R3ZLe3BQMNkFfkXBV5k6Ihi5jWBfisYrC/ZsKF+R08+GAzWBYPF9blsDxPFhhnKminA5JS7cJHhlqY9pMpZX7HmYAh6bL1pYPqGDfWtUTuiH1YADQ96vd4/weicBbXuACSdoT45EYlw1B4RURJSwDKAh51Oc9aJRk58Um1N3aNTp+Y8sWfPoO9DUAVgMCNKZIuDELkL1oDFgWCws+/t4TF/hZF2BxQz2B4mir6FTa5zLMF8m79mL6CvA7JfBB0KvA/gkFjoUEFEIE5VHQADGVA4ITgNinMAXAAgw962hV61cGvW/wPa/4e1IXYcCnBLsJNr/O4yoLcGAg2P2fUdwWDwAAB/UZHnYcMhy6B6LSNPREQpKmhAZwQCDb2efnN0XZmVV1wxYU1XODwfwHeFo72JotY8FsgjkUjkto0bG1+LXnt42/sA7igtzf9VROVutoeJonzjGqiERvHHGMG7UDyp0E0GpCnc3d3qL9jd650rFzVfMiwcSRsuhpUHSBGAYgDnRzUGKkv9LTmP+nNaDrBGxAZHPJ3Y+1BZPDDj9BXr1q07HIsv3Lix/nkAU7zegkkQXQEgh8VAREQp4jWBlgUCDQ9G64BPPbXpbwBu9nrz/0sFKwUynmEm6kuvTRrVtKYHN9RvsesrNmxo2MX2MFF0+bePOkvD3d+MxlMA0EcB897M3S1PXX89ItE6x7m5u/cA2ANgK4D/AoCqra5LNYIbxcB/QnF2FL7mPEeHfg/AXawVscFf/Y5/J1kCPGQayAoG65bEKun0UcFg3fr9+8Jjjww1xgcslWOTCHe1IyJKgvfuIYgsgGaMiGbS6ePv1Yam2kDD5Sp6PYDXGHWiHt+nfzuyjlOdp3ZDw5ZYfOeH7WEBbgbwDkuBqPfM7u6bAQzo44Ngm4iVX+5u/1K5u+X/opl0Op7ysW3PV+S1lUesgReJ6o8BdPT5eSb6I3/Ay4E4MWIIlJ32T6s3IOMDgfobN2yo79cFDkOhUHcwWL/SNPTio9tER1g8RESUTH1ZgawxxcwO1tT5g31ZI+Ykv6+2pmFNmrPDBZEFADpZBEQn1AHRJeEuR9bRxHBM+w+hUKg7EKj/RXqakcn2MFEfiP5bH1+hD0cyDE9Z7s6m/jh9f17oUFle+2LT1DEA2vp4uAscg9/+CitFbBgAR4v84zaCvCqQrwYD9QWBQF19PJ3bhg0Ne2sD9dMF8ADYxNIiIqLEf/FKoxo6IRCou76mZvMrsfzqJ5/ccTBYU+eHGpcB+AsLg+h47WNdbYjpCtY03LFp06b9/XkuTzyx5d3aQP10qJUHaC1L5xh5hQi6GQU6Fv/2S4YDMqr3zwKsy3yh/Vv+nJau/r6WuWPad0WM9PEAQn17vlnXs2bEBqfaHbmJDgkwv6tTsgKButXxfK6BQH0oGKifqKJfB/A6S4+IiBLQ36Hy7aC3riBW03WOJxjcsjsYqP+yGrgSQAuLhugo0a2GWMW1gYavxjoxfOL7tnFbMNDghWIqgJdZWB/r3nE6Ih27ZnQ7igD0dl+xLsuK/DAW0+pOln/stvcjDufVUO19n1hk8rLNwzNYO2JQ/1L8+hWC32vEygoE6iu3bNnSkSjnXVvT8D9pzo4sAaoQhTmuREREMXh9HYboku4uR2YwWPcb+GHFy5nVbqh/CpoxRkWmKfAuy4pSt3GMt6Hyn8GihryamsaN8XyuwWD9I9AMF1TKABxk6WFvMFj/BsNAxyS9X6BfgN/6x+16Md4uyT96x9sQ81vo/fTfUw46B/tYOexnIMZztOPI61C5MlhT/7VobgEbS08+ueNgIFBfATVGQbElVSuxCKeLEhElgL8Y4siJh+k6x+/EBsO1NXU/dRg6QoGfg+vIUApRoAuKu5xmeEQwWPff8ZQYPsF92xkM1i00xMiE4Lcp3LcBIGtT+/rpM2sHJLv3Dwj5v3i9rnJ3Sw1U/9j7S0Mha4f9UnUV952GGKU1gS1J8YtAMLhl9+TJk30dne/+AcCXWK2JiCiOtKiBmbUb6p9KlBPesKFhL4AfFBUV3iemtUKAEhYjJXePVNY6xLptw4aGXXYc3t+Sk+botGYo8O8QeRcRq6x8XHswmt9RU7PlDQA3eL2en6lgpQD5KVeOat3DykyfcZ8P6+2+YuqMNMV11QcqBbiuN581DHhYOeyXilPtPnCY1tVHX05JY926dYcPdxpfU6CZ1ZqIiOKgEfiuikyDZoxJpKTTR23cuOXZ2kB9qUD+DcBLLFVKQn9XkauDNXVT7Eo6LWxyXWN2Ws8psASAC6oTYEigqtm1urrZ9flof18wWF9XG6gvgOp3kULT7wR4KBhsaGKVpuO/mHVIbz/q7O6O6ynoFXntz0IQ7F1YMJaVw36GpthwTAHmrl/f+GIyXtuWLVs6HAa+rUiModFRK1NOtSMiiidhBX7uMHREbU3dT4PBYDjRLygQqPsTNCNboPPAdWQoebxhiDGutqZunR0Hr2rMzKwMuR63BGsBXPrp3h6mqqKtKpTt9ze5B0a7ix0MNvxSIFcBKbDLm+DZAQPwQ1ZpOoFe32ed5hCJ+9vAkv/t5UeH+usuGcLqYa9UG/H0+r594f9K5gvcsKF+hwj+xKpNRESxpy8INK82UP+Do9PVkkYwGOwMBBoWGWJkQvE0y5oS/3bVH9oxA8Bfd8mQylDWUhjGDgEmn+DPMwCdb8qhtuqm7KnRPpdAoG6TQO9L6mIEGkzBFevW1e9jpaYTONTbD5qR8Jnxfy8Yj/X2s06neSGrh71SKvGk0NWhUCjpf/UQxW9ZtYmIKObvHxjfCgQatifzNdbUbHkjLc28DtDDLHFKYHuD3oa/RvOAfoVRFcr+tul07hTILABpPfj4BSq6uqrZFVgYyhwV1fa/yuok7dkcFqDqrKEHJm7YUP8WqzSdhAO9rm1iueP94srznntBIe29+WwYcg6rh70MSaGpdpIiv1CmpRlPI4XKNSJhTrUjIooDAwacnhLrizz55Oa3IfIqS5wSlsqL0dy1rrIp22NudW0B9FcAPtf784LXgtFcHXL9zL8554yodHYMIxnXZ/uLIY6cQKC+Ys2ali5WaDq52wu9XqdJRG/zB7xxvzGZoFe72x1S0WdZQ+xlKCCpcrGmKS+mwnU+8cSWdwF8kCrlKhGu8UREFA/efvvt1FljUBFhiVPCVl+xojIDYGGT65yqZtdvRHQLNGq7yJkK3GIOsJ6vbHLdsno1zD61E8UKJ1HR7RTgmmCg/ss1NZtfYE2mHt74O/vwzss3T337gWWbh2fE8yUOcDjvBPB7AHsAvHcS/3vWgv6rP3fn31hB7OVIpRFPqmYqLQh6AMBpKVGupgpvZSIiIqLY8LfkpDk6rRkWUAbFYHsaeDhDBD/bebHr5qpGnV4+rj2YwiF/Hwr//v3hn6fCsiFkW6+prY+d6a8fSh+cX9mUNd/a/7nVfl/8bR4ye/SOgwC+xrKOPw6GIHmfLKlyoRzxRERERBQbC5tc11id1nI91k519hgFQwJVza41Aswuy217JYUa85YBPOx0mrOefHLz26x91Bemos6SPtfJS0TkYfPUt35aFcr6i6Hyx+79HRv8vpc7GWH6LEw8UcITYeKJiIiIyG5VTa7/tgT/0S9frpiqwDULmrOvm5/bui7ZY61AgwGZFgjU1bPmUTTMG9f2XHXI9bICF0ahgp4ByLctwbfNIRmHq0KuZgXqAdliiNanUoKYTo4DKTQyhoiIiIiIem7RtqwRkUg/JZ3+aaChOh9AMiee3hDo3GCg4SH20yjaLODPAsyI8mHTARQKUAjoDFWgKuT6AECrCFpU0WpZeE7Tutv8o3e/zlJITRzxREREREREn91hVQyNk1MZmqQh7oDoqu7DzoWbNm3azxpHdhCHtQph44cxyAOcCqBQFYUAYBgAwk5UhVyHBfKGQl8UyIuq2goDLZFI5MXsl3a9cv313LgjWTHxRIn/AOVUOyIiIiJK3MbsWitsTdu4seElBoPsVD5650tVIdcfAXy1n04hXaEXAbhIoYAAUMA0TOy82NVZFcIuqO5SwS6I7IQlO51p5q4fj3r2PZZeYuNUOyIiIiIiothrF+iMQE39EwwFxUrE0T3LDDsnAxgSZ6c2AMAoiIwS4EiWQhTh7jCqQq49ANpUpckQbVCH1VA+eicTtQmEI56IiIiIiIhi5z0oFgAZPwsE429Lekpu/tG7X68MZc0WyP0JdNrDAAwT0SIFgLBxJBklaIRqAxRbTuk68PSt41/vYAnHJyaeKOGFw5xqR0RERETxTQHLAB4Oh9Nue/rpp/cwItRfKtztv6hqyhoJkR8l8GUMg+JqQK6GAAfTB3dUhbJqFXjMipiP+PNb3mRJxw+HAiqMAxERERERkV2CDgPTN2yo38FQUDzIfLF95s6LXacD+GaSXFIGIF8U4Iumaa2oCrkCAvlNeICs8ee0dLHE+5fBEBAREREREdnidYF+Kxio9zHpRPHk+usRKcttu1Ghi5Lw8kwAkxT6W7PTerm62VW25JnMwSz1/sPEEyV+JTbCnGpHRERERHFDgUMQWXC40xgRCDQ8yIhQPBKBVrjb58HCNQD+lqSXeY4qqroyZHdlk+uW1athsuT7oc8u3NWOiIiIiIgoWr35taKSE6yp82/ZsoWLHVPcKx/X9rjD6RgJYCWAw0l6Y54lgp/tvNi10d844iKWemxxxBMREREREVHfbTPEKg7W1E0JButeZjgokfx41LPvlbvbZoggUxT3ATiQpJc63jTMbVWhnC+y1GOHiSciIiIiIqJeUuBdKGYMG3pBXk1N40ZGhBJZWW7bK2V5bd936uHhojIdQD2Sb5bUYMD6a3Vz1tdY4rHhYAgo0YkIp4sSERERUayFFfiVaHheMBh650j/nCg53JH34gcAVgFYVd3s+rxa+DIMXAlFEYBBSXCJTlV5YEFT5pvz83YGWOL2coBrPBEREREREZ00BWo0YszYuHHLs4wGJbuy3LZXcGT9p5X3N7mde8yD49SSsSIYo4qxAEYCSE/AS3MaYqzxb79kjH/07tdZ0vbhiCciIiIiIqKT85pAy4LcqY5S1M15oW4Am4/+DwBwf5Pb+Y4ccEXEGAMLl4rg8wAuPPq/c4G43knuTCOctgLAdSxd+zDxRAnPMDjVjoiIiIjso8AhEVkKa8DiQDDYyYgQ/dPRZNSOo//7mPub3M63nQeGo0s+fzQh9XkYcj5UzlfoBQA+D2Bgf56/QP+tqjHLWz6uPcjStAen2hERERERER2bCuQRh9k9a/360KsMB1HPHE1KvXT0f8e0qD7rTE0zz1eNXKyWZEMwEoocCEYAcMbkRA3MBBBkidmDI56IiIiIiIg+QYFmUUwPBOueYTSI7DPX074XwF4A2wD88cP/fn+T2/mOHsqMiI4yIBNV4AOQac9ZyDXVDSPPL8t/7jWWSPQx8UQJr7vb4Kg9IiIiIhupoX+HJfFwKn/vyR9HIhkfQDoUQE9Ofi8UVWcNu+CeNWvWRFj6RP3j6Gip547+73cAsLDJdU4E6hORKQC+gugtam5aZngygF8w8tFnKKfaERERERHRZygfvfMlFVmM/uw7CN5Vy7qjJx8JBoOdCpzsznPdENztMMMXB4P1K5l0Ioo/8/La/l6R1/67cnfb1yIaGS6itwF4PjpHN65khO1hCBNPRERERER0AhW5rT8WyygAsCXGXx2G6k8jncalFeN2bupxhwe65IR/pFgniFwWrKmftX596AOWNlH88+fteqcst33ZWTowB6qzABzuy/EEOo5RtQen2hERERER0UkpG9fSoIoJVaGsr8mREVDn2/l9AnnCELl1rrultbfHCAQafuf1elwQzMMnp9wJnhfVmYFgw2MsXUpGlc05ow21blLBsBP+sYUOMeVPZWNb/5JI13h0St7dlc1ZTaLyOHq/S97wZZuHZ9w6/vUO1pzoYuKJiIiIiIhOmggUaP+dv8n9Z1M6bgd0NqK/HfpOWLi1bFzr49E4WDBYX+7zFaxV6LehGAEDexX461lnHvjDmjUtXSxVSkbVDSPPV408o8Cgk5rnJIBaekNlc5avIre9NtGutyK3vbYylDVHID/t5SGMzgGnfgF4vZW1J7qYeKKEZxjdnC5KREREFGP+vNAhAP7qhpG/VIe1GKpfQ88W8T6W9wSoHKYDf3bzuFB3NM83EKirB1DPkqPU6SiFSwAZ1MNPiUC+CqA2ES85w5H2685w92IAp/Tm8+FI+HRWHBuqIrjGExERERFRyhCRqHasyvKfe608t/UbKjoBgoZeHiYswM/NsF5a5m5bcXTqDBH1gSW9TAQrEnato9mjdxwE9Onefl6NHifq6CQYDAERERERUepQxcVer3totI9bkdu+pWxsW4EIbgTwxsl+TgRPGRbGlrnbfjDX076XJUQUJSKdvfzkZf6WnLSEvWwYb/b2s6ZhDGDFiT4DUI54ogR/ngrrMBFRHLjook5JlWtV/nhHidx2AtJUnDPtaZdBy3LbHhrgcGZCUAXguIv0qmKXQP+lLLftynnj2p5jyRBF/V5/p5cfTXccDo9K4Evv9bptqnqQNSf62GgiIiKiqNi7d/DIVLhOr3fMaWLzTl5E9ndIdY7P5/k3u44/e/SOg+W5bRURNbIA/AEfX97jfRG9zcowLitztz/K0iCyScR6rdefteTqRL1shZ7W62djxNjHihN9TDwRERFRVFiqvyopGf/5ZL7GSZPcp0LSfwsggyVOCc5UYI3XW/DTq64qPMOuL/Hntbxa7m77f2pZEwE8BJE7TekeUZbbvsyfw93kiOwUOXD4FQDhXr3TxfiaKhJzJLNiRK8/KsLpvjbgrnaU8AzD4FQ7IqL4MNrSSJu3JH8VrIHVwWDwQNJcmR+Grzb/m+GI/ATA2SxqShIC0R8e7tJveL0FS4YN2798zRp7kkEV43ZuArCJISeK4avL93JnVcjVBuCynj8cNKtya/YXgdZ1CXXNm3POgFi9HYHdmfnicy+z5tjQZ2cIKNF1d3ONJyKiOJIBlTmQjnafL/9GAAm/7lNJSWG+t9azSSEPgEknSk6nQ3TxnncG7fD58q9hOIiSiTb1Ollg6aLVq2Em0tUaA/R69HaAjaL9+usRYZ2xoVwU7LQTERFR1J2nkAeKfZ46r9dTkIgXUFJSeJ7P53nQUqsOQAGLlFJApkLWen2ep3y+cTkMB1HiU5Ene/1hwZidF7nmJsq1Lts8PMNQzO7D9TayxtiDI56IiIjINgLkq2CTz+d5sLTUkxCjhQoLCzO83oI5llrtCtyAJBi1RdRDkxTG1mKfZ6XXO+Y0hoMocaVZh9ehD7u8QTC/MpR9fSJc66G0wcsUelHvr9VYyxpjDyaeKPErscFRe0RE8UwAQ4EbIhZ2e0sK/JMnT06P13MtLimYkj7AaoXoYgCDWHqUwpwCTFNJf8Hr9Uz3er1cG5YoAd2R9+IHAB7vwyFMgT5c2eS6JV6vURVSFXJVq+B7fThMxwDT3MAaY1OfXT6+tSkRERGRXQZBdX7H4XefLS7JnxpPJ1ZUVDi22OepFdW/AriQRUV0hABnQLAC0vFscUnBZEaEKCG7/T/t4wEcIvhZZcj1p+pmV1ztXutvzjy3KuT6XwDz+nYk/f3s0TsOsq7YVAMZAiIiIoopxaWisjoe1pEpLc0/s9jnWWmYVqMARSwcouPKEtXHvSUFj5aUjL+Y4SBKHGW5LQEotvX1OAJ8RRVtVaGs+xY2ukb25zX5mzPPrWzOvtNUo00EX+rr8QzoCtYU+3DILCU8kW6O2iMiSkwfriNzr9MMV6xfH/ogVl/sdrudgwc7bolYWCDAqSwKopOkeq2FyFX9cd8SUW/7S9CqkHEbYEVjKlkGIDdbBm6uCrmeU8WfRYxAZAAa/DktB+y6hvub3M49csgN0fGqMhkKH6BR2XFPIY/Oc+/cwZpiHwc41Y6IiIj6j1OAaeGI4xter6dq2LAL7lmzZo2tWxl7vQWTILoCAHftIkqQ+5aI+qbc3VJTFXL9CcC/RvGwI0UwErDKzE6EK0PZuwFtE8UuGPKGqL4OQ9+yLBwWSw9EoN0Q7EtPS48cvuzZD/wCa3HTRadq2inG4S5rMLTbYYhxioh5HsQ6DyrnC/R8BS59G4fyAGRAo77fR4dlhWewhtiLI56IiIgoHpwJwYo9e1/5VknJuBk1NY0bo/0FRUWeSw2HLIPqtQw3UXTvW5+vcGYgsKWWISGKX6Z0fy+iTg+A82w4vEOgWQCyIABUj4xwseTI1rCG4MPhSeHuMMxmF6pCQDcAdIdhCgD58C+so8Nj1PZRMqJa6R+360XWDntxjSdK/EpsGBy1R0SULFTGWmrUeksKHvV6Cy6MxiG9Xu8gb0mB3zD1WSadiOy5bxVW0FtS8OikSeMuYkCI4tPc3N17RPB1AGFG48gUu7C7/SeMRAz67OBUOyIiIoq71qBeC9FWb0n+Yq/XO6hXx/DD8Pnyb4R07IbqfEDSGVgie+/b7ojRVuzzrJw82TOEASGKP2W5bRtF8B0AVko/roDWNO28wS+pHYdY4YgnIiIiilcZUJkD6Wj3+fJvBHDSCzuUlBTme2s9mxXyAICzGUqi2BAgTYBpHZ1o9/k8N02dOtVkVIjiS1lu20OAfBepm3xqs8S64o68F7k5Qoww8UQJr7tbOGqPiCi5naeQB4p9njqv11PwWX9YUlJ4ns/nedBSqw6Ah6Ej6jfnKHD/nnderS8uzZ/IcBDFl3J3668hxlcBHEipCxc0RDRS5M/d+TfWgtgxlFPtiIiIKCHaishXwSafz/NgaannY6OYCgsLM7zegjmWWu0K3IAejI4iIlu5xZKN0Vy3jYiiozy35RHDQqEAu1OiHaG479TB3UX+vF3vsPRjyyFMPBEREVGiNBqP/Gh2Q8TCv/h8+T9RlRpAR0OseQDOZ4SI4pTqtSooKfZ57hoyKLzk0UdDhxgUov43b1zbc0u3jxrTGQkvgOp0ICl3vn9TgBlleW1/YIn3D0P5iyAleiXmrnZERKnoVIUshGALRO4Dk05EcU+AgQJU7DvgeN7n89wEP5f9IIoHs0fvOFie2zrLMIxxAGqT6NLCKrrKqYezytxMOvVrn50jnoiIiIiIKFYEOFeB+721nnqfr2ACI0IUH+aNbdlW7m7zqmVdDmAtEjdX0AXgIRjIrshtn85FxPufgyEgIiIiIqJ+kKfQp32+gkdEjNk1NZtfYUiI+l/FuJ2bAExZ2OgaGTFwg6h+HSLDE+DUd0L1AQPym3l5bX9nScYPJp4o4RkGd7UjIiIiSlCi0KmWRq7xluT/FNbA6mAweIBhIep/88a1PQdgjl/xY7Mpq0hNfEVUSgDkIH6W7NkBxToR/LnM3VbHUotPDnCqHRERERER9SMBBkJlDqTjGz5f/rxAoOEh9lOI4oNfYAHtQQBBAPBvH3WWEQ57IdYEUYwEMBKQs2JwKh0AtkG1SQxpDJvdAf/o3a+zhOIfRzwREREREVG8GK6QB4p9nh/A0Bm1Gxq2MCRE8cU/esfbAFYf/d+R/9Y0Yqipxkg1cKEB41xLrLNF5XMAzgEwVCDpqlYaRE7BkdFSpx396EEcWZPJEsgHCn0X0HcAeQfAHgAvWNDdhjp2R/YPfcXvC4ZZAomHiSdKeIbRzV/DiIiIiJKIAPmwZJPPV/BIJBK5bePGxtcYFfqQmSaKXqQfTMsyGT17+PN2vYOjI6JS2eFDAx1Ad48/Z5nJvXyMAQ5hJSIiIiKi+CMKnWqYRpu3pMDv9XoHMCQEAJFu3d+bz1lQH6NHdurs6hrXq4ddJLIvmeNisGoQEREREVEcOwWq8yEdu3y+/BsRP4saU3/Zf+77AKye9+5lSVWza879TW4ng0jRVrU98wswsKI3nxXD+W4yx8ZQpM6OYJZlRVKo3lu89YmIiIgoiZyvkAe8Pk+N1ztuDMORuvy+YFghu3rxUROKxW/h0HMLmrMnM5IUlfrY5B5YFcr2I2y0AjK6F4c4fJam707mGKXUiKeMDH03hS73PT4CklYXQ0CJTAWHGQUiikciXIIiQXghRpPP5/nFlVeOP4vhSNH7FdrUh3t9hKH6eFXI9Uf/1qwLGU3qVZtWIZXNrhtNOfQ8oPMB9HI6sO64OS/UncyxSqXE0yvr1tXvS5mrFTyXKpfa1SWp1UgUvM3HPCV0FTbwJqNAlECs1EnGqOIDFnjCMBX4z67uyC5viWfW1Kk5aQxJirUngLVROMy/mpa0VjZnL/A3uQcyqnSyKpuzCqu3uupE8QCAc/v28pFHkz1eqZR4WptSd4KFx1LlUg3DSKnEk0KaQJTAVThsdIVS657FIRY7JfaLVg+mTk9W21ngCedUKJbueWdQS3FJ/lSGI3WEBxiPATgQhUNliGqFKYfaKkPZ1ydeO8PiSM0Y8m+/ZHhVKOu3orIJivxoFKHp0D8kfVNCoElfURWwBNa9qXVLZPwZwOupcKWWZaXUApOmyP/ykU8JrME/evfrqXTBAuUW4JTYdVjl1ZS5VksDACIs9YR0iais9vo8T3m9eSMZjhRIAOS0HFDofVE85AUC/UNVsytQ2ZR1Wcz7NCKn9K5Hb3AZjhhYtnl4RnVTVoUZdrYD8g1EbZMDfXTumPZdyR6/VBnxdF8g0NiSSjdGMBjshGJ2Klxrqo14mje2ZRugNXz8U0J26oDlqXbNKsYmljwlsLBhaH3qtJ8a31TgLyz2hDYJYm71+fJ/7vW6hzIcyc2KmHcDiO5yKgqviDRXh7J/6t+cc0bsLka/0KvTtbSDNcHGdpxCqkOurx5MH9yuIgsAnBLFw0cMlQUp0WcHknzevkrjkEHh2al4kwSD9b8HcD8fF0lYrU1jGsAFminhrJ+X27Y61S7aIfonQHm/UqJ6YsOGhr0p9Y6NSBmAThZ9Yj96FfJ9iGOXt8Qzw+12OxmS5OTPb3lTRebYU4f0h2a6tbMqlH3z6tUw7b4WMXB5rzr0qTQdOsYqQ1nu6mbXRgV+D+CCqL9voMvn5bU1p0Isk3vEk2IL0H31o4+GUnZ9jWFDL/iBAP/Fx0ZyqRjT2qKq3wFgMRqUIF6IOJzfSMUdozZsqH8LkP9mFaBEbEkZYixKtYveuLGuTUVuZfEnhdOhWD54iONZny//GoYjOZWPbb1fAbuWohgK6H07L3Y1VjflXG7XNVQ3jDwfiom9+awF/I21ILr8DTmfqw65fimQBgB2lXu9ta+zPFVimqyJp7BCfpKRcYYvGAy9k8o3zZo1ayKBQP1NUP13Bd5NykqcYlPtPlSR1/47iPFVAPv5eqA4V2coJvpH70jZHRkdZngegJdZFSiRCPSempotm1Px2mtr6u6Fyh0AuGhvcshUyFqvL39dUVGBi+FIsmeVQC0d+E0AdTZ+zVgVa2NVc/bD1dtGnBf1o5vW7UDvRlWJ5XidtSA6Vj1/SXpVs2uOaVq7FPgO7MuXvGB0m1/y+15OmdG1yTjV7gkrIqNqA3Vz1q1bx6kNRwWDDQ8MSDMuhco9AMKMSHIoz215RASXAfgzo0FxaD+A2yP7zp44L6/t76kciPXrQx+YBq4B8BarBSVIT27tvn2R21K77VS3REWuAcANApKnYn/RMHWHz5e/6qqrCs9gPJKHPy90KDLAuEIgT9hZgaD6dY2YO6uasn686vlL0qNx0MrGzAkK/X4vP955FtJfZQ3ou6om15c/2OdsgWIxgME2ftVWQzFxXsFzKdUmFK/P8yKALyTBtewU6G2BQMNjvG0+W2mpJztsYbkAVybD9RhiXlhTs/mVlH9YNrsmQbEcAHdyof5mAfpAJGLO9ee3vMlw/NOkSeMu6o4Y/yOIyva7RFGngGVAVqoOuD0YDPKHKgBTprgH7t9vzlaR2wUYyIgkjb0Q9cMaeB/revK4v8ntfFs65gE6F4Dda3u9ADFuLc9t+Wuv2++NmZkwjVoozu7lIZrK3W3jWPK9V9mUdZkhslyBUrtfsQL5r/AAuc2f03Ig1eKcDImn9xVaeWBf5J5QKNTNW+fkeb3516rI3QKMSOTrYOLpn/wBr8Mc8tbNABYAOJMRodi/VWSTIDKjLHdnE4NxvGev1wHj0PdUZYEA/MWd4odKo5rW9NoNDVsYjGPdu57hMHAnFFHcRpv6vdoDraZgZk1N/ZOMRvJYuDVnjGVZq4DerZvUo6YP5AkLWFjhbn26J59bEMq6yoD8FkCvd18UxX1leW3fZ4n3ot/UNGKoaZiVUNwE2Lt4vAKtIphentu2PmW7CImaeDryixwedjrNWU8+uflt3jq943a7nYMHO26BwA/gtES8BocZ/vz69SEOMf3og3RzzhlmWsQPke8DcDAiFAOvieiceWPbf5+KC4j3xuWXX366I61rjqrMFCCNEaF+9HcB/EOHXvDLNWvWRBiOz+bzedyqWA6xv0NLMbVeYM0IBBpbGIrkoApZ2Oy6XoGfwIYdyY4hJMBvw2r8yZ/X8upxz2lbVqFlGbcK9F/R1yS24ivleW1/ZmmfvPub3M49cugHClQAON3WLxO8C4g/8sFZ9/p9qT2yMjETT4qAiM4MBBq289aJjquuKjyjs8uaL8APAPu3C40mK2JdsHFjI9dfOIbKbdk5hqXLVXEFo0E26VCRpZaVscSfl7o7iPatE5uXacFcJsDVjAbFWLcC9w4cgPJ16+r3MRw9U1xSMEVUVyI5lqygf94TvxYNz0v1DYqSybLNwzMOpQ2arSJzELvpsq8ACEH1DUAOQZCmiotEMA7AuVH6jsNpHdawOZfv5EZDJ2lBc/ZkUSwTaJbNXxUGcL8Z1vlzPe17GXlAin2eFwS4KBFOViGvGrDKA4GGB1l09igqKnAZprUMkC8myjkz8XRiVc2uSapYKUA2o0FRtDZi6I/8Y9tfZij6zustmKSivE8pRi1AWWvAmFFTs/kFBqP3CgsLM9LTdZqKzhVgCCOSHBR4VxSVQMbPuP5T8qjeNuI8jZh3AvgmkmO67O/L3W1fY8me2KJtWSMiEbkbwLUxeILUGNCZ89w7dzDyH2l2JEji6SBE7oI1YHEwGOxksdnvyK941nJALo73c2Xi6eT4W3LSzE5rOoAysHFMfdOskBk9XcuATuwj058XADiVESEbtKvIrbU1desYiuiZONF9juFw+AX4DyTYyHHi/ZJqKhszJ4hhrACQl8jXYYlMmp/buoElenx37rjs9O7ucMXRWT12Lzb/PMSY1ZfF5pNZXCeePlzHSdW6PRhs5M5I/dQBUkFlXP+Kpzg/GKx/nSV2chbVZ50ZdqJCVBJuWiX1u71QVGW+2HbP9deD68DYqLQ0/8ywJRWJOP2Z4vVVyREcsVBSUpAbUV0uQBGjkVTWWxGZtnFjXRtDkSTPRIVUbXXdIIolAD6XgFfQWJbb7uG6msfmVxjGVtc3RXUpIGfZ/HUHAbnr1CFdd067dPdhRv/YxOvL3x2no1rqoZgRDNbXsZj6l9frHqriKI/bDhATT71SGcpyC2QFgMsZDTqBLoWusrrDVf6C3VwHJsadWMvSFVzEmPogrMCvrHBa2dNPP72H4YiN4pKCKVBdkSjLWdBJ6VbgXqcZrli/PvQBw5EkCYq6S4YYTuc8AaYDSE+cMzdKy90tNSzBT6sK5ZQA1goAl9n8VZYIfhU2nfP8o3dws7MTiMfE0+sCnRcINDwEMIMbbx2guPwVj4mnPqkOZU0BZJUCFzIadAzrTTGmz81taWUo+rcTK6qrwPuUetbM22BFZObGjVueZSxib+rUnLQ9ewZ9P+5HjlNP7YWiatiwC+7hLpDJwx/KucQUaxEUU+P+yQ75TZm79dsstU+UYVPOBaZY1QBuiMHX1avK9Iq81npG/iTrbbwknhQ4JCJLD3fIki1btnSwaOK+AxQ3u7gYYgyvqdnyBkumLw9q90BTDs4G5HbEbrcPimMKtIrqzPK89icZjfjw4SLGEC0DMIgRoc+wW0Xn1tY0rGEo+l/cjxynXvaidKuoOTMQ2FLLYCSPBY2uKwzBcghy4rSB9pIjzeH+8ahn32NpHbHkmczBXQOMeRDMgM2j1gR4GSq3l+W18v3a09h5fZ7nAVzSn7ePAg+lORw/fuqpTX9jkSRQByhDb4PqHQBO6ecHMEc8RUkS7vZBPfceBEsi6cZyf05LF8MRfyZNcl8Qjjh+AuB63qf08dch9gFafdbQgyvXrOH9G2+KigrHGmZkOSDFjEby3HYCWREorpsFPyyGIzn4A16HMeTN7wikGsCwODq1/ao6oSKvnaNYEfN1ug4BsvSUw/uW3Dr+dQ6S6QXxlnh2QXFpP7WQthiGMaOmZksDiyIxlZQUnmfBWgzFN/qrA8QRT9FXuTVnnFjWSgCFjEbKsAA8HHE4Z3GeemLwej2Xq2ClALmMRoo3vgFLIL82DZ23YUP9W4xIfPP5Cv7Vgi7l+k/JdBPKHcFg3RIGIrncueOy08Nd4TkQzASQ1s+n876oMaUsr+UZlgxQ3ZiTr4a1IgZ9FYXgkYhlzPLntbzKyPdefyWeXhfonECg4X/AdZySpRHlUegKAAWx/m4mnuxxZDeI7H8X1YVIyN0+6KRfBMAGS3Umf0FLxBsVhjeY/22ILARwNgOSkp4xRKbX1NQ1MxSJY/LkyemdnXunW5B5XP8pKbx3uNM4j8uFJKeFja6RlqELAZmCfvihXSAvWiL/WpHbsj3lmz1H1nGK1ajvOlWZwXWcolSPY5x46oDoqu7DzoWbNm3az/AnX30qLsm/TlSWAvh8rL7U6XCcx2maNj7g/7nbxwz0/689FOWGDKCzytxt/8toJLYrrxx1Sld44GyodQcg6YxISnhDoHO5GUtiKy3NPzNsSQXXf0p8hoibCeDkVrktO0csnQ3F1wE4Y9NYk985rc5b7sh7MaV3UvQ3uQcaRsccUZ0NIMPu96tC7ijPbX1YhO/X6CUKfJ6dAoyw+XsUgj9YYev2jRsbX2PYk78D1N2dMUeBWTF4MDDxFKsHfijnEhORuwH5F0Yj4e0X1UVDTg0vn3bp7sMMR/IoKvJcahh6N0SmMBrJSYFDovqTw4fNn3B0RfIoLfWMCltYLkAJo5GgnSpIQSBQx5ERKeDImqiO/wT0PwGca9PX1KvonIrc9pRevF4VsrA5++uq1mKIDLf56zpUcXeG07l49ugdB1nTo/yMjEHiqUkgMwKBuk0Md2qJ1QK4TDzFVtzv9kGfxRLIg6I6d15e298ZjuRVUuK5MqJYLkA2o5E87W8Bfh+JWHP4I17y8vk8X1LB0n5bf5V66wA045xgMHiAoUgd/oDX4Rjy5mQFvnr0h9nBfTzk+wDWihr3cy2nmK7jBACrRXB7WW7bK6zZ9rAz8fR3qMwNeuse5C4Pqc3r9VwOwQoAbjuOz8RT/7xojSFvfk9EFkBxBiOSELaoYUyvGNvSyFCkyrPX61Cj8/tQ9Qt4nyY4/oiXQqZOzUnbs2fQjyAoA3AaI5IAHSrgzkCgfi4jkcpt4wsHyOD0QoFRIgZyRZGtR0ZDHW+ZigNQvALB8wCaLLU2a4ZjE3cUBvzNmeealnEnBDfA/nWcmhUyo8Ld+jRrsc3PSa/P0w4gM4rH7BRguWrGImb96Z9PEBjFGz3fEsVCAOdE89CRcPjcp58OcfRGP1hUn3VmxCELANwMwMGIxCHV10WMO+bltv6O89RT09E1ZCoFuIn3acJ5U4B5geL63/BHvNQzceLEYQ7H4QUKuQlc/yme/QGa8c1gMBhmKOiT7txx2ekAELEOD1SRNIekvZ9+4L3OW8e/zqnSn+wuBi4c4Bgy8FaF/hjAIFu/TPAWgHmRsW2/9gvfr7EQ3cST4BErrLdv3NjwEkNLxzJhwoTBTmd4LkRnRmsBXCae+l9VY2YmTGMZFFczGnGjA4pVaZ3WwjmX7+RmDgSvN28kxLEC0FJGI97pYYWxcuAAXbhuXf0+xoP3LmAug+AKRiOuvAbF3GCw/rcMBVHfVIeypgDGCoVeZPNXdavovWlWV0WqL9gea9FJPIluFTVnBgJbahlSOhlFRePON01joQLfRF+HUKp1TjDY+Caj2v+qml2ToFgFwMVo9Ku1cFjTykfv5I8A9CnFJQVTRK3lgFzMaMSl9VZEpm3cWNfGUNBHeb0FkyC6AuAai/3sIETvgTWwmrM7iPrYdwiNdAms5Qq9KhbvV8CcVu5+ju/XftDXxNNeKKqGDbvgnjVr1kQYTupFI8oL0eUAxvT6IEw8xZX7m9zOt3HoFggqAQxhRGJqqwhmlOW2bWQo6LO43W7n4MGOW1RQKbxP48VOAW4NBOofZyjos+7dIUMc31ZoNSDDGJHYUcAygIdVrdvZ7iTqm0X1WWeGnagQlR/A5qnECmlXwa3zc1vXMfL9R7w+z3Po4S8nCnSJYpXDEa5evz7EIWrUJ1OnTjXfeefV/7CAKgHO6unnI+G0s55++uk9jGR88TfkfM40I4sA+RYAgxGx9ZX6NoCySG77LzlPnXpi4kT3OabTsUgVNwrv0/7qzL4rovNhDbyPa8TQySotzT8zEjH8EP0euHZbLDxmGrh9w4b6VoaC4s2dOy47vbu7e66I3ADF26JSVZbXuiYu+wctOWlmR+RHECkHcKrNX7dXFRXW/rN/4ffx/drfxOvLXwfIF3vQQPqrRjBr48b65xk+iqZJk9ynhi1HuSp+JMffAeKTDgYD9YOPVE2KRwubXLnWkV0NJzIaUcd56hQVxaXjxsGSFQIZz2jETBgq96Wny/wnntjyLsNBvVFa6smOWHp3T9ry1CPbBNasQKBxA0NB8cbfkpNmdEb+XSDVAD4+AlIQNCL40bxxbc/Fy/lWNbsmqWKlANl2v18F8itDusrm5u7m4IQ4IT6f5yYF7j+JP30OipnBYN16ho3sVFTkudQw9G6ITDlhrQQeCgTqb2TU4psqZOHWrP+nFn4CkeGMSBRiCjzmMPXWuWPadzEaFL02Qf7XFLIEAO9Te2/gp0SsmYFAYwuDQdFQXFIwWaB3Q7nGYpS8AZWyoLfuQe4oSfHGH7hwgDkk4z8A3A7ggs/4026Frkzv0Mr+3GhmUXNOdkSt5QCujMEL9v8Ax61cxykOG5lut9s5aIgZ/IxfOfcKUKGa8QsOAaeYNqJKPVeIheU4zlRQBd42xcitqdnyBqOVIC/KJvdAw+iYI6qzAWQwIr3SBhi3lrtb/o+hIDtceeWoU7q7M+YoMIv3adTtFmBWIFD/F4aCos3tdjsHner8nqjOB3AmI9IrByCyZPAp3csefTR0iOGguGpHh3IuMcW6EYrvAjinBx/9m0Bun5fb+juR2M0S8W/OOcORrgsUMZkSvNNQ3DYvr+0x1pT4JMCRLe7T0sIrFbjhI5XioEB+0d3tqHrmmWfeY6ioP3i9XgfQcbMK5gpw7j/+QfG0YZjfrqnZ/AKjlHiqt404TyPmnYjGroap430IFkfSjeX+nJYuhoPsVlIy/vMRDf9EINczGn2jwD4DunDAgDNXrlu37jAjQna66qrCMw53WxVQ3ALAyYiclIgAv1K1KrhwOMWTZZuHZxxKG3Ktit4EoLSP7eanDVg/nOfeucPOc/YHvA5jyJvfOeYUQJvax6cO7l4x7dLdfL/GsY9V3IkT3ecYTucYE9Zhy+pqDga3vc8QUTxwu93OQaeZeYZlDFOVXcHglnZGJfFVhrInCnQFgFxG4zMaw4r/CiNS7s/b9Q7DQbFWUjKuyIKsgMpYRqNnFLAA/EbUmsfOLMWaz5eXqTDvBnANo/GZd+r/Qa3ZwWDTc4wFxU0buTlntFjWrRBcB2BgFA8dVtGfWzJgvn9s9Pv6VU1ZVwKyDNKzzct60z4G9L9NCZdzHafEwJEGRNSv/ArDCLm+IwaqoTibEfnoA1oCgsgMu3+ZIjrxjQrDV5v/TYX8BOB9elJdWaABhs6o3dCwhdGg/uTzjSu1YCwTYBSj8bGXbBssvT0YbFjLYFC8qQq52gFk2viWehsw7ijLbf1NNKbfVW11XaqW3C3QKfbfuhKwRGZW5LZsZ01JpEcuEVEcWNx00aldklYmkGk4+V0Nk7XH+hJEZ5W72//EmkHx5MorR53SFR44G2rdAUg6I3JMbwh0biDQ8BC44yrFi6PJYwuyVICzUvsVi78ZwIKhQy/45Zo1ayKsHBSPFjRl+gwx1sD+9drqFPrDCnd7KN7b7wJ5UWHNZvs4MTHxRERxJZa/mMShA1BdFNnfudzve7mTtYHiVVGR51LTlIUKncpo/EMHRFfBGlgdDAYPMBwUj7zeMafBSLsDihmpljxW4JCI/rT7sHPhpk2b9rM2ULzzbx91ltndvRSCG2zut1uA/pcZxry5nva9J/OB1ath7rw46zsAqgGxO5m9H6p3sn2c2Jh4IqK4tKA5u9RQXQ7gspRoDwseiVjGLH9ey6ssfUoUPt+4UoW5AtCRqd2akrWw8KNgsO5l1gpKBF5v4SUiuigVkscKWAbkj6bZPWv9+hDfsZRwqpsz81SNnwIosPmr3oNiQeaLbfdcfz2OOxqwsjmrWCxZAcEYto/ppJtKDAERxasY74rRX5rE0OllY9s3s8QpMTuwXodIx3cUWAhgaCpduwLNR9dxepo1gRJRcanHJxaWAxidpJe4/sjC4Y3bWNqU0O8bhVRtdd0gqktjMMJoqxj6w0+2Tf3bLxluhp2LEJNdqbVRBdMrctu5TmKSYOKJiOLeovqsMy2HVCpwEwBHklzWGwq5ozy39eFoLOpI1N+uuqrwjM4ua74AtyTRfXo8e6GoGjbsgnu4RgwlvOTcPKBdRStqaxrWsIApmdy547LTw13dCyDyfZvftQrob9Qw77UQ2WNY+E+B3ApggM2X+JqIzpk3tv33bB8nFyaeiChhLGoakRUWc5kAkxP4MrpU9L70Q1o25/KdXGOCko7XW5gFiSwH5ItJeHndCtzrNMMV69eHPmBpUzL55+YBOicGnUu7vANFNZDxs2AwGGapUjK3iS1xrFDoVUlySR1QrIpkGNX+nBauk5iEmHgiooRTHcqaopDlAC5OsFNfG7Ei0/3jdr3IUqRkV1xSMEXUWg7IxUlySetNA9M3bKhvZelSMps0yX1BJOKoVuCGRDnnDxcOz0iXRevW1e9jKVIqtYkBWaXAhQl8GWsjhv7IP7b9ZZZo8mLiiYgS0v1NbufbOHQLBJUAhsT56bZZ0Jnz3e1PsOQolbjdbufgwY5bVFAp8X+fHs9OAW4NBOofZ4lSKvF6C7wwrGVQGRuv5/jhwuEixuyams2vsNQoFfmb3ANN6bgdSLjRis0KmVHhbuU6iSmAiSciSmgLm1znqIhfof8BwIyzJ+y7sFB5ot1BiJLdxInucwyHww/guwIYCXLa70FlybBh+5evWdPSxVKk1OzR/mP9pyUAPhdPp6ZAjUaMWRs3btnKgiICqppGXgwjcicU8b5b5d8V6s96of2XbB+nDiaeiCgpVIay3AJZAeDyODidboH8Oqzhef68Xe+wdIiO8Pk8bgVWApgQr+d4ZAQFHg6H0257+umn97DUiOJu/aedKlrOhcOJjm1Bc3apYelKCHLi7NS6VfReqytc7i/YzSmxKYaJJyJKGqqQhaHs61R0KYDP99NprFdTZlSMaW1hiRAdu+1RXJJ/naj05316nIcIAqaJGRs21O9gMRF9WlHRuPNN01ioMdlO/VP2QlHFhcOJTiwOl6RYCzVnlOc99wJLJ0UbfwwBESUbf5N7oGkc+hEUZQAGxaS/qtgloreVu9vXsgSITmzKFPfA/Qedt0P1dgAZ/Xw6rwm0LBBoeJAlQ3RiPl+BR1WXQ1AYg6/rgOgqhxG5k7tJEvXMR5ak+C76Z6p7G2DcWu5u+T+WRmpj4omIkpZ/+yXDzbBzEez9ZfZ9CBafOrh7xbRLdx9m1Il6xuv1DBfBon4aQXEQInfBGrA4GAx2sjSIetaPKC7Jvw5q3CXQC2w4vgrkEVXcHgzWvcxwE/Ve5daccWJZPwXgiVGWgeuc0ieqBBFRsr9sm7I9Iroyyi9bC8DDRrc5e17Bc28xykR94/MVFiusFQDGxODrVIDfqlq3B4ONbzL6RL1ny+hFxRY19bbaDQ1bGGGi6PArDGOr65uiuhSQs2z6Gq5zSsfExBMRpdbLFvgJFGf38XC1Ksb0ityW7YwsUTRv1H/soPUToM/36XE6tNKopjWdHVqi6IrG6EUFdkG0jAuHE9nnzh2Xnd4d7vaLyi0AHFE8NNc5peNi4omIUqtf25IzyOzUWYDeASC9Zy1ifV0NmVc+tu0hESijSWRXB9Y7CEbnLKh1ByDpUTrsGwKdGwg0PHSkf0tEdiguHTcOlqwQyPgefGwvVJYOG7Z/+Zo1LV2MIpH9FjWNyIqIuRLAlX05Dtc5pZPBxBMRpebLdlvWiHBElglwzUn8+UEAd0b2ddzt973MdWCIYsTny8u0YC4T4Oo+HKZDgLuczo4lTz654yCjShSbPkZxieebojofkIs/4+8OQHFPRgbuXLeunturE8WYKqS6OesrACoAGd3DRMLLCll8lmb86ua8UDejSSeoL0REqau62VWkipkAvghgwCf++TUVedjsMlZwHSei/lNcUjBZVJcByOpRgxq62hTH7TU1m19hFIliz+v1OkQ6rlTgaihGQXAWVPapWC+JoiY93VzzxBNb3mWkiPqXKqS6KasYplwPxZUALjpOruANQIMQc/VZ1oB1TDjRyWLiiYgIwKrnL0l/f59jpCjOhJhhOMIvlY/e+RIjQxQf3G63c/Cpjh+oolyAM07w5yFDrFtraho3MnJEREQ9s7jpolMjSL/YEuM0iGWo6nuWI+01/+gdbzM61BtMPBEREVHCmDBhwmBneve3oMaXAc0DcOrRf3pZgKcBfTgQaHgSXMeJiIiIKC78fz7c4ZOf1XI4AAAAJXRFWHRkYXRlOmNyZWF0ZQAyMDE3LTA4LTI5VDA4OjU3OjI0KzAwOjAwYKSlKwAAACV0RVh0ZGF0ZTptb2RpZnkAMjAxNy0wOC0yOVQwODo1NzoyNCswMDowMBH5HZcAAAAASUVORK5CYII=;" parent="49" vertex="1">
                    <mxGeometry x="360" y="265" width="60" height="16.14" as="geometry"/>
                </mxCell>
                <mxCell id="65" value="" style="shape=image;verticalLabelPosition=bottom;labelBackgroundColor=#ffffff;verticalAlign=top;aspect=fixed;imageAspect=0;image=data:image/png,iVBORw0KGgoAAAANSUhEUgAAA+gAAAD7CAMAAADO105+AAAC91BMVEUAAAAAAAAAAAAAGAIAAAAAAAAAAAAAAAAAGAQAAAAAAAAAAAAAAAAAAAAAAAAAAAAACAAAAAAAAAAAAAAAAAAAAAAAAAAAAAAAAAAAAAAAAAAAAAAAAAA/0PkAAAAAAAAAAAAAAAAAAAAAAAAAAAAAAAAAAAAAAABO1Pc90P8MrRk90P890P890P890P890P890P890P890P8Nqig90P8Apw9G0v0OryM90P8Lph+B3rwApg4HrR890P8AqA490P8ApAc90P8ApAcXtTsRryRGxm4AfQIAqhIDfw0Vt0MCwIm37NYAfAAAfQMAfACp58qg48ICwYuV37gAAAA90P8zNTAAfAABqQ0BqxAAoQMApAf///8AoAEApgkAowUBrhQBrBK6vbYBrxcApwuCgoLh4t/a29fc3drf4Nzs7Orj5OHX2NTl5uPn6OXS1M/V1tLp6ucAog7LzcfGycMFsRwCvoEQtirP0cw0xVcApRYvwlDw+/QBqSk7x1/Dxb8BqzEUty8qwEoBrTi9wLkJsiABrz/r+fECwYz0/PfAwrwvvcUYuTQmv0VXWFU4OjUbujgMsyPk9eTp+Ow/QDw0NjL4+/nb8txDRUEjvUEeuzoAjAMNtCbu7uxQUU99fn1dXlxvcG7U8NUgvD4Cw5V5eXhpamhjZGIBsEba9ejP8uIAphwCu3QApyAAkAn09PPE7tpKTEji9+4AqCSo4Ks0R1eU2po6PDt0dXTH68ix5LMBt2Se3qK369HA6cLN7c6C1Ii55ruKjIozja1dyWYBs1QBgg2L15EzYHZSxlxozHCZmpd50X9IwlNxz3citzIjriYNtVE+wEuo5sU1vUIsujuqrKgorT8ZriEZtCo7yfSU4b4nRSU0sdkRk0YzlbcyVWY0pcqQro0Kiiw3wOhJwu80iqoKkxwzaoInsqUzeJEzf5wepX10krMXnGHF4cVihqRgcoxmn8PC3sEzh6YBnj9Ut+Feq9KBhqI/x4Q0xNpb06MdozAKbgosNv34AAAAU3RSTlMAy4IG6ruk4wz8MfcW8XRkEJNv2cMk0rI4rItVXAybex4qQEbeTFBqH/L9zpcq4lo/u3ogqJM0eE01/WOth7xl6G7T3FT57OKpSbbmyl51xqN9dJdQW+IAAEF3SURBVHja7NtdasUgEEDh2YjvilFjCJKXEO4eZv9raaG0tC+Xtjf+JJxvD8McTZTGTCjzlo5lX7OP6nxep+WRtrkEawTAxRk7L6vTp/yeAuMOXJIpafL6e259zIw7cCXh4fU/3MSwA5dgD6+viHth2IGR2ZT1DHEJAmBEJkU90W4FwGBK1rPFRMMDA7G71pFnATACc0StaOK4DnRnV60tstaBrmzWFuImADoJWVtxjDrQRfDakksCoLHitTV3CIBnrr3Nv7DVgWbMpL1EPrYBbWxOO5r4XQ6oz3r9Oy7ggUtZtD/PexegptnpEBYBUInJOgpXBEANZZB1zlIHfrjd6fw7z/U7IHLbbCffgU+3znbyHfhw72wn34F3t8928h04WRgy28l34Eyzjm0VAK9KOroswBt7d7PTRBQFcPxCAUsLIiBooaCCokbFmBjjxvgQ93bFqkk/pvSLyIIHcOUCNtB0Uz4WtMvGhWnXdUPCvgsSoiRiiKYJdgFuPXNLh4GZqZ1pi870/DY8wT/nnjudAVnzGg6v5BBqnjfMDGaxdIQa8JKZw2N8nw0hw16w5tg7KZdKpePj418i+Fsun54csmbC0hEyZuIJa9BJybexsbG9vZ3Pb4F0Op0Bm5uby2B9ff3j+s6P7wfNKR4fqCNkxMQsM+6wXPCBSud53nkaiJnLOgfJZHJ1NbnzfZ81Cj88g9BVdn5Y8lVB5qDaeUaj81xuZWXNs7bzZY81Av9zE0K6GTy3l30yNY/tIMk7X+Wdc7mjA2YcfiEWoau4hzv1ycjX87RW5zxz3rnk02dWD7yRszrHkBY3uTozQ1puEwt4ynQ78QHFOJc6r3Vsh84v+Gpwrj/G5+kWcp1q6SBXp5tq6STm94bp9dt3kfK2XcocnGUOVDrnjvZZnfCXMxaFobfcW6agK3Og7Fzr2A6dq/pkJPUnBFkFht5qr5mC3sx558pje2Yrc6Fz7cx56gesLviGiyVh6C32iukCmdce54XiYiCazSayqag/EAbxRW9xt7CdXv5Ys3OQ+8L0ekqQNWDorfWI6VH2aY7zfMEbCGUTcyCRigrhOIDMAxVBkSAIwfe7W0kPaOQAj1+isCAMvaUmHrP6Hfo0Ovd55yFxLhsJxmNxLgykzIEA/Fy4mM951B3tscus98MZW9/I7ekpx0ifnSAM/Sq8ZPUrqXZeWAxB41xiIRiLQeVS5orKuXkQiQjFLY8qved301y92xzuQVd3x3CXk55zdg13Dz6cvkvaHYbeSs8ZZ2ycg914du5MNhKOiSqVKzIHPHJRBEQj0Wg0XFhRO79LQ90yV+83poYmO5y0Bueo67rDRtoXhq7wTxb0U7XKpVEeEmKcfJhz59NcEDP3S52DBRBa2vAoHTA93pD/mn285z6tT7/r4T3SpjD0FpplnJHL9oI3Ic3y4JK8cq3VHCJXZL4QAh+WFaX/ZCrM+M6qfdzlpLpc65lpy8GOoetmG5lyT4/Ym7mgK4b5u7mqUCBWoZq5wPlFyswrUqnQUkb7+G7i38Lyyg3oGmvDuY6h6zTl6qVc97hNx4KuZz0vBquVJ6Lx2plzisp551LmokDec8k+M/ma/gAqN6xj4AZpLxi6Lo5RKnJS0bUHxhd07c53BSlzf2xJ1nmYk2WuOczl01y0AAIZldLN+zR9poM2xjk5QtoJhq7HABQ++tBxg9jvuW9SSsdsRNOsoc4Li7LV/O/TXJG51DmvXMo8Crxrl0s37Zo+Pkob1zvZTg/dMHQdOmGKT1+Y7i6i5amhzotZaZov6djNlZVD5il55iAyX7hUujnXdBtk3hzOwT7SLjD0+j2g9GYfOWfvoXSIqHtmpPOCf+5MKq56Zg/WnOa8crVpDiJgfj6eVDxmM9uP3m3uYdo8zs522dUx9Lrd7afDdtLTLXKNDdgIsXXTXgdRNWug811pnAf1DHOgvZpHF6TMRf68eumm+d7M7VHaXP1u0hYw9LoNUidUfU16IDtDSF8XdTV04+6T8Urbefwvmfs5xWoeUgzzs8oBr1xU9Mh9M9fNu62zlzbdrbY4v2Po9bL300kiC51nf5329hGlCf2dF+LVzqOyQ/ulF9Rkw1wxzdXP7JHzYc4Jwjv5nVyOXfCffwAabkVaoWucWB+GXq8BSh2V0G8Sm2NMfJIOI72X3jH+U5myrPNotXNBNs71T/OU9jQHAgjGc55zX83zdgsf563RY/1NHUP/w965/LRxxHF87PVjba/xLn4b1zbYhlZNX1FV9VJV/RtmfcoJiVcJgSgcuHHJiQO9hMiX8jgkHCsOFpzJBcl3DpGiEimtIqJKbVW15y679jDGZj0zO7NxwJ8c2ksIsvjw+813fjNDSgHGQVt0gxSEUfM7TzMncf9ini+1PZ/Hh13n+muOLO+u5kjzWaT5/AUdkdy7DyWPQ+VcBMEyuOEMRScCKY1ET0MYkS709zAncZjniyiGu25tjs+0o57dANMcr+Z4BNe2vCX63BxmOh7IDfJN76icCyIUAzeboeikVKCGiZ6xWndQhD7W2yBnLllAnvc8ubJgNx3T0vxHO8utnt1k7oKVA8z0lx9AHienISc+gJ+0NkPR3ws+mGuJ7kunzUhuxPz8omxJHH4wdQ717bjm9vtpBl1BO5bBYQkc7vmcxf0V7KD6iU7KF+A9oXigeAI3+lTbUHRSPDBgid7G9F6DKcYkrse+2hLZftqj0+bxzt7+5sETQ9Of6tv7ezvHzdPHSw9xzU0wyzHP7xus4xNyg57HJePQDRI3OZIbik5KFnpw0VshXBqmWQ6z4CfQm2gcDtcc309Dns9uNJ8f1q5l0zj4hiVw+NLcAEluXiyJ7adv6YN9uCXjg+4Qv8HD70PRSfHCkGKJnlIUL7Rm4tQozDEUdHwk7vjn9pwMXsxbYNV8obmLLm63Y3tm7YrnncV8xRR9eeUYS94HuqRXI9AtKjd3dmYoOilJa1EeND8ZKWX8RwJgCsJxphX6DGIFLdC7ijmm+emu9RwyEfXmPLL8as++YrJssMswIPcDcJ1YCLpH6sZ270PRKb7JitwW3Uzdi0COQz/DqTU8iTtte/4Qed512nx9D723RMrmaVcxNzEtN1l7xDI2A9ymCF3Ff1MTuaHoxJQhDCDRgQZhJFmAsOqwoP/Y3lkzVOx92ryJPYdMw9F9bGk+h2lueb621sRK+qAG73noMtkbavpQdHJyF827agAMJFVVihBqTC+nohX6DkrcZ6/ZT5vG3lWjpdlRzVdwzU3q9FtsnwBXmQhBt9HAjWQoOjmSB8KA3HEc3SM5LOi/tJO43k378i5LOUc8edyh+XKH5o/WprGpmYE825JkyNuD6YDmHYmNlcuT+amiN5uizfKK4CYyFJ0CxQ9hsKhY/18MQuhXQCd3qQr6zs4GVtDnu/bNZ2fqjJ4jnq9dreZrLR4Z7NXavB3Ekq7EIRXxwEhZAV2UysUEeWcQqoKbyFB0GiQvhDAUTxf88dDFNyexDcUdtz2feYoKeo8huGmb55C3DhuNs5O35+dvT84ah1t2/XurmlueI8tNVge6pEsJSE7Ib3uxq1zVKrfZ86HolIQLEXSNaJh1yh09h4wi96Ue0zGnpueHVz1vnP/aKzp7+frdWe9ZmhlUzHHPLdGP6PfSPwduEaCxXCG6qfvWej4UnRp1rFhIF4pjKuhGJ+IP9Ewqitx7zLoeW57jmh++e92n8L56cdajfV/pXJsjzVdXN2oIfdDeVy1CQqJFBZChjFRuqedD0XnypU4E8ryJnmPpOrmy+Pxq2751TrYH9vL3Rtew3Nql5cYfy3LDc4N9+on3r4ArVIk1VwE5Usx3Kz0fis6Tr4hFv9D82dEyiuKuHkNd2L7i+dtXOjlvzq8s2g9X17qqucU0FscN1BysGuSrOUIuRq/1fBLcWIai8+Mjws697fkOepKl6ya4zc7l+duXOiX/1DqoW5pj1dxifX37Su8+KEMzGiRBUwE9SuH2eT4UHeHaa+hW2350dISiuJ+vvqy0U69ju2qNNzo9L0861+lYAoc8XzdodvXuAxHHTUACKhOAjarvtnk+FB3h2ivJF5pfiL53vy364pW7Y07xtn3rtc7Gq461+jHy/BGy3IShd/8YiEaOw/4UVMCKkr1lng9F58fHhJ272bYbnh+hzv3KfY+rT7C2/URn510N4xStzXHPNzY26Xv3u0A0OdgXn7PgLB+5VZ4PRefHXcKCbpXzvT2Uuf/SeUXUPJ7CvdOd8GsNY+PS8/VVy3LD8w363l38dFw4BPvhURxfZ3GbPB+Kzo9PdCIMzU3Pnz9CS/TOi+D2nxyi5fmvujNeY6Lvrl7R3OTxY9qZGfH3wUop2A+/zOGCKp6eq8lMOKkC95FL48a/rMjvVXRJTYYz4yVFugWif0YYkrU9f/4UnUTHNX+4itXzV7pTXuHNO+rZcc8fb9KfSr8DhFJ05yJH1Y88HwMsKOX8qFcLpD1xX/sL+eIef0DzjmYkIBZpPJ/zpypR1PuEgv7CyGTJXdHlzFQhkQpGYZtIPK1NldWbLPodnYi/Dc1Nz/futTE1R+8k1lE5t6nnTDW9fqm5JbmhucEx/SJdByJRoy4dJZWyzJ5L47GAbWAYSXirogp8KVbwRGBvKoV8yR3RMyOBeAj2JOTJVWUW0bXgtWicmsXgNYQBIToZO2Y5N5hBWVzH7c2nl0My5zoPzmuI5iquucX042m66yfEj8EWXTtIKqVZPFfLXn8UkpDS8iXulo94+uYXo4po0TO5ILQnlB6T6ES331WNqEIvMokDQr7RyWh5vr9/+Xgq/hTDg0vPz3Q+YNPv3ZobINGJOgjxY7Cyz72rIeQEpedyvpCCVPjLPC0fRZb3sWxSEid6OFeBJPi0MG3rbtMlTQEOJOA1jAJCvtPJaHu+v4hER5YbHCPPay91PrzENtPbS/N2MTfZpt9J14E4Rt281k32UHguVbMRSE8qLwEuhLOQnPiYINHHUpCcdJhO9BGbjxE4Z5yyX2DP3P81NDc9332KQnf8nUTDc1ReefE7Ev0QaW4w3eYZxSPK4mdmpCC0paICnqjEBTdTiEJGgkXVPc0RqUmuoiPN6ciGaURXIvBaMgLnMwqc59z1P9qe795DomOPHm9sbSHp+LF1GbxjTTuiSZHGiZ93j0FbouPgvVBNQCdEtZJ7miMSSc6iT6YgPZpMKrr9JQQF50XE5/iXyJc6GX8ZmpuezyDR8ddQ97doplfok/fnSHMMmjRO+CJdikM7QmXwHpBiceiUyIgEnIzsMhGZ4il6JgWZqGTIRc+IjOPyzj+DOzoZVjk3mEaiY+8kLmE3rfOkUWuDNMfZon9CWQeCGIO25MB7IBaEPEgkmT8UH2TFXyIQXfjL1TmJVHSQYo/j2KO4GO+xOH2/5fnmfbS7hj2HSjuOSj8K20SWY6BHlF/oBIhdpNsXjaAMXCfjgZyIxAALagA6wJfhI3o4BR2QUEhFn2KO49ijuKjMe4muW55vbm7+jEQ3NTd5WMfePeQKEn17ugf7NQPKnfvvgRAmoC2TwG1KlJbxb0jKDvuJyCQH0aWREHREPEkouhwVFsdpzjdsvyQWfdfyfPspEr0lucEiNnbOl5Nam16iP2NYMHwKhKBBO9LAbWIRyJWsDOiQNOiYUceilxLQKb4MmeigICKOs/8VEua+RP/N8tzgHhK9rfmDh6fUly/Tj7yfTneDhmAbOjlACD7b6LoE3EXNQt54VECDnIYcKDoUPVmBzolkyEQPw2uJqkKiuATgvkT/r1XPt3c7RH9oiv7gGYNwtL37znQ3p/T7a4JOsGX6VCZ3yQQhfxISIEdNQC7EHIke9kEeRMeJRAc2mUhMSBSXB9yX6H/ubpqebz+7FL1l+YOlpTr3zh1xYrtIZxH9ByCAnG0SJwFXqYagCNISIEVJQT6Eqg5En4hCPgRLRKLnbfohEVGcT+a/RP/T0nz7oImL/sDUfGmRf+aOeGG7SKdfMghapFcG6VE0JQKFUAAI0R0zIpJllmeS38cQ99iJThLHhQEzGoeE9AdK0Q8OTu/hZ1oMzw2wwsqdN2Siv9HJAfwJQyhigcbeX4ghz/7EJDusoudD0A28ZJ97QUAUlwTEfK0T8pdVzw8OpjHRrXK+uIhlYvxBLjd5if4R4I53sN4zFlXSo0lAgBqHBIgWPcPsObvoSZuPTuYexfkBOZ8Qi25pflBfvxR96YJFgz1sO5s7Z3ZpHMPgrZCRmZTdMpMscv8gSrpHAn2R/JAA0aKXfNAdvGSH3GCMexQ3BsjRyUW3PK+vYaJbms/ObmPnwrnzttZif7qbJ/QzsCIun0hCG7KAiA+ipMMil18y4kWXPdAlvIRz0B7uUZzE8YkWxEnL8/o8JrqpuQHjgRbKs6oH093U6UUXMRs3CqHjqagPo6RHFNJOUzwexgdtBYou+bjHcRqPy+o+00nZtTx/8mTxUnRTc4MFLPvmz2u7NO6ApZe4A3gTgAiiX7ziUaKQHSeBQ4aglxAvehG6hpc0rClwjuJKPN9iQmwbmpvPJ/54eRx90bR8dmGeKXTnErszLRo+B7xJ0e5JiccLxRBKEj4xKR4P48EDkaKXeMdxeS5T1d/p5KJbnh/+cim66bnBupATLQhM9K4TbOjG5991CgBnpNBAHWchKelxf1bzTo1NjCvKeKaan8olSCtxlqDRJCOYSAc0b66Q9cf5ii5RfL2Q8UkUchd3Xyd8HEQHaS5xHMG0XRVQ8KlOLHq99XziU0x0U/P5+VORu2u46I8tMN13ay3+0YlB+2uu7KJHZECH+JKe0ibVHnaEpwJRiGDbRMiQ6pUulhW8EZgYDUQZRWdv3H2BqYwMLlGqRX/IoehVvnFcmM+0pU5Mo/V84k/3ED8umJ67LfqG8ceR6Pyn3fMDdW7N9pL5eGFMsfk7oxXqn2wcyUNkuT+mgm6kyWyEi+hJoi8TDZR7uaJMJRyJLgW5xnEal2nLj3RiGu131TDRTctx0c90ERxi98aZOBb9W8CXHOTUrwku6b5i3wBHwq6Yo68loySa21xCpxajHET3kxTzERlcRzJAJTp5O6Hxi+JCCudnVJHo7WdS7yEemp7Pzc25J7p1u/u6U9HvAkYYfrKSgAKhJT0VkwAJoyFoz6SDqD9U6BPmeSNORR8jqOZFGdgxnmUXXQlxjONifIYzPtOJabTfW7qHeGBqbtAUK3oDzcCuWzgWHe2viT+LHgUuYldb0mVASrgCbUmzb16n+nevit+Z6HKwf56ogn5MVFhFB1ny9o49iisDGr7RiWmY5fyq6HNuiH6Gi7568WcDS91ZRP8acEWBcCCe9r2+pEcK4xyvrYhIlDNcCE0maikiTkQf6VvO81zvu/NS7O15eEVxFUDFlzoxDctzXPQlS/P795HoJ7oI0In049UWGw63174CXCkP3i56Z0n3UGiOj6tTlpNCP8NIy1A4zi66FOz3t5KkEWuERXT715nCnKK4EUDFtzoxDctzXPRFS3PhoqNh9xk+onM/kR4boLtlOlB96MpiSpSKbWFmmq/3hTnfW+FhWaEnVEDKRJRN9FFecZwcZRxEZh+MQwtlXHRL85WVY7Gin6Pja49aOBX9E8AKdbM4AWgQUdKDTN/CeNRu2oZlFi9IE0uqHlbR+/xFvwzIyUSZRFcjZHEcewUJAATxtRPsos9ammOiv9VFgER/1hZ9nVF0BECInjZVwPtE9sGsApiYhDaU6N+SDZYoX4tlEz3D4zYsxLiPRXQQ4BTHeXiVj7s6gkH0BUvz5WXBor+rtThaG0zRtcEM3S+YigESaEtjlfrpuUgY0KEEmUTP2of+Mm38EmIRPcMnjgtzew/ijo5gEX3F8nxZcOv+T63F3lqLARO9YNfkfrBUKYfj4hwuocIJRxhETxJckEPFCIvoIMUljitwCX7QRVLMos+blosX/QVv0XkPu2cHc3cNwb+kp2l7Zo3jYDHCQ5sTVAE9WRbRYzw+CTnK7c3G/7k7d96mYiiOn/toyLNJG5KGhkcehIJ4CJhYEOIz3KvuSIAoUKjK0A/ABDtbYYK1QmJgBqkLOwOqAAELCJWBDYkBp7mVGMDYf/tYvvxER8Sj/cX238fnnEkFsOhXM8/XnIl+K+OOX6JPSTJeyi8jyYFbU7F2RAAFfdEDk7FSWP1NKHcUj+PqwJWt7PEaLvpE8zVnoj/3VPTAwyctFogkmXNDb8bkAHxpqyt6L5EQNwihC4hOMxYOMYG9lkWnUgEs+o2J5g5Fv51hLPpRgtE7nRYox8xJKvg1FMP/F6Z1Ra/LYwKMKUD0svkmr2zxOJhmYKLfFpq7Ff1Gxh9Ef5mqY1v02KdOzxaZ1eiDtyDLwKqEEbU1RZ9LGE5R/ZK+6CS5HewbRnF1cryiTzxfXVt1JfpjT0WvyI6FOaasEWvNsQyqGemJXqyw9OicAUTfb/rhX6wBh3yeM/qtiear7kS/mrFqJrrtM7r0pyDPxJJtsLpilSrBHNYSfZSwxKItQPQoNozj6sDnBFPqPvZc4E70Rzvv38WXZ6LX/tMVXXI6ndVQ7CBXH+1AZ+ntEs6cvug0bxgWBMBFPNM9utDcuegC/0Tf4+njNcYCgVDjcq1MOMWajugB00DbISB6y2xzUQZ+M1dlXKb5nTuuRL98LcNYdLJK268pLfaYUT5n7uMqJZjREb3CNdC2CZzOpoziuIPAdoCr1n2iueCyK9GvTBrJ+ya6JGGdojwTKl+YNbke6g40RG+xdfSaB0TvmsRxjRowEp3r9VrmuWvRBZ6J/p9WxslOyHPqje1bbFU7gXpQcJiMGACiG8VxC0Dow/Ue/UGmuUPRr2esGYp+jACgcug25Zn9qh9gZUAx+w8JptnqGaIacLESGsRxbeRjU95hBhddKO5W9Bc3M0xFP05WOSgrCs8zXcmrPODWGKKuLnpBofkVyD5A9F4J3uh1FI6CWM84XHTRsNGh6Ms3lwWmop8hAOgEV4rIY6Jqqyzj70tkrLx4HSEzehLRlUP3UpHv4yZEbuX64NLRJYisCywuurDcpejLK8vi1++iPwREB7vAYqM7++Qbxc7CeNBYcDiuJDCx8oLXIkNqyqJX+NoCdBDRh+g+p1GBJvPK+7rDom8IzR2LvpJhKvoJAsCqOrrkEdXhdKEpyc1g0QOF1tAogaroVcZHhA1E9Ojw3+O4CIriQsI4mgpg0SeWiwlJzkRfWloSmi+t3DIU/SxZZX8eamCjYSEr7GEQvcmYRhZURW9xFijGyHf4EBjHteGR6PLZa7joQnOXoq8L08dfpqKfI6uUE+8rZlphZjmP6DHjO91pVdHLClrBTCGiV7E4rmN/Y5IKcNHv7Xh+15nor9YzTEU/SVYplvxuGles700EjKLXAA3M29EGypfdHcablRAL6/vAnzUilONpiot+bwcxyNit6Bt/FP1dqsEBskszgfNeforzQkNe0SPOARYDVdFHnJHoPCT6ADlNNCr26/XPpyks+vpEc8EjV6JvjFnf2LhtKDpZZh/8DJqfTjNhIFaNquqMB6NAuea0x3izEgJLgDRAX5DX68Olcbjodydccim6wFj0U2SZQ96mccWZJINT9B7nrUNLVfS6Qos7mFnsGzwL5AZt6Uh09H4NF31p1/PciX6CLDNKPC2CHTQTHmLVMaojxlm1gXIFLBlTx0RvVLTjuA5HrnsgNRT9ksC96DfMRL9AluklLO+mGA6WPKJ3OGfPFVVFDznn5XQx0emg9g9GgaWMN8VFXxlb7lb0BxmGop8m29S8nKcKbNsx0cucojckoiseoCqctRIhWlI3r7cHaJIJx1JY9OVLeRX9KNlmb+Lhk/RDCR+xaqnKiHG7FCifhyPWrbuUQDOOmwVGogPNpGSib+3wbZdnH3Z5spXx/j4HX7YyXnzPeP1hl6dbAl3RDxAAvHaWGsQAEB/xiV7lLFXpexHGTaOi1zWDyjbcYtO89cT97bcfF/3m58ev91NVCAEfE1YnAIa/Ep/oRc5/fMeL67UQFb1Y04rjOliJoflD1TeftzcX88Hm9uc3qQLHyTqNkm+5+6iUcBKrNryeJlOGqqIP/SuYGTOjFccVkHoM89j9x/Zirtjc/pT+k4sEgY/tGZJzGnECwFACO8+YdwfkLvsvwKL3deK4RgVfLfA07s3Xxdyx+fWfq/pJss9C4lccBwXuuOh7GKdMhqqi9zkPEIFEdDipjSPlYOUXdef2G0UVx/HZnb2yly5sL7QVWrelKFFRn4yJMT7wF5wHug273bR/gcnSILWRmlqIkLSSSIp9Eh5QqzFqTLR4IbE1GgEVCKAJLyVpSIxvPHB58XvOmTndXWbPztmes8HPzs6siWkU+tnfZc75zW5rkzwj0fz/krPXqH7HVIkubw2bmGyu+3Fhrd+mmtW5vlguer/eeVbatu08odCOy0oeiW6oSL//uPff6nPrtqESXf6N/xg9UzXsS9b2yNaevm1t9dmqMHjC2CytTr+iZwzmVP2kedHtkO//ru2yB4GYKdLf/X+Gc87afYnor1om6CMS4h1WS9lFGhBvT+eSSuWxXPSIuT6YnfAnOgiZm9E50LTooMd3Oy4iyQnNFOl3vHLi1XXKZw4faAQ/DafmWF1VS9+fskzQQWR0Wa3EzhIpgTYmuUbR+wzdSJdX3gH/y5aSRm6jy0VXH32TTEj+T40U6Y904dbvnltZOXfunXfefvutt95888tPP3njjddffz1/gJHHQS/5A8Vi/kB+pIhLvkgZoUcB50KhMDJeGKcXfBgfL4Dx8f37ceBNGabvYRwl5wM+lUqj9BhlB7uAsbFRvCjlmZmJxYkjR26sPyL7Py0t0YFcriGrhQwQGdkhC+gVfchc2ZL2L/pWc1834eZFB2Gf7bhtJpdiPN/Y89W7K5RzoFp0WO0AyWG4cyrmizhG8tRyUAS4UNFHACTHgX/aD9ELsJxeXd1ht2M7Dir6MJV7mAuONz5wy3Eqw/OZRSr68bm5m+s1pteL6S9YZggSGdGYpYDJlnufbWkWXR6zQrYxxQL+b31ENM4QUhd9yGc7Lit5souJIv1OjebLy8vw3COi5ytEdwJ7kQZ1KvoItx2eQ/ECPeNC/R6B547sBcjuBHUWz/ECpRJ1HZrjE1wHsJudx3g8L+FEbYfo88zzI3NzpxdO16heZ6XcXks/IsV8PJ6fHJUU5whtBkS3E6Ymb2Ti/kXPmfq6gambEt2O+mrH5WQ3DQwU6fer8uC7S8tgZblK9E9F6i4y97wjeh5Ad+46TC8y1YsFFtMd11k4L1DdqeZC9o30HWcAt2lEB7hA7xLshun8BVhEn5g4cvz43OnTZxZOVKu+eruFJTroIjLiCu0Uc7Mq4wOWAdFBp0QEjYrJRU8aG/SzczOig6CvdlxEd0NTPk7qr7VKW1aWILpXRP/ETd3zwnMKP0Nzajm/jFAK8J2V5/QTBIfkOBd4zo7X8DAN6q7g7MzgCTzVfEyU6G6RPlOen5+fgOlI3c9Q06erTF/7q3UlOthOpARsq0UENUinKnrE1HjMbt+ig5ChO+l2aJOi98d9pHrJhMKaeA2Pa7lV6fny0obo5x6J6KJGzzsH68ZxivTNGMEbpjvQD5DcCedI3jlOFHerdHouiSIdpg/zEl2Ec8BTd+TuXPSFhYXp6YeVpv9ruESXNH013Ao1cOM5a5sSvc/ACmC5ISCg8DeQyujao6ouOujyUVSkDXUSBTU30Ct77UsHl4Tpkq47d53Hc569j7hNd56803ehyOI5Yz+ERwuOHW7Ozv3mId3pycFvHs2Z7hxen7NLGe04iD5BU3d4fuLE9OHD1ytN97id/rxljAEiZ7ell5jy2o5dlinRc4ZWAPcQFdGDhuZ/dG5a9AEf7bis7v6C/AbbWkU8r/FciF7djWPR24nkOCOoA9Z+g+DUcByI4k4gBxAbn5w2uyjMcSrh7SbvaMpxqOfA7btTzV1myqwbh5COxJ2KXmP6LYXM3WQoFQWyTtLZpOLvVMo2JrqdMvL8uVhKKrpK9TRoaxw4rV4ODTb8HswZ7+M+W6fjDs8herXp+76+8s2pyWNgknJy9iTnPcEpzoeMH3744RvK94wLFy58y/iKcf78+a8ZP4MfwW/g0qVLv4KfwC/g4sWLf4KrV69eu3bt8uXLN2/eXJyfKfOYXobn8zSizyF1X0CNDtEPHXoo67w/Y5kDXshJdVj6QDrZmVRbWr3TMiQ6iBgpWnYTJdHtkJGn4HVpED3dsB0XMT908GnvgL58EAjPwb0rs+8fe59ZTj2fBTWen3LglsNzLrqjORCan6dUaA6o5sDRXHguNAc3J6jmZUR16jlMX2QRnYp+ZmGai35oXRLSn7UMYg8SOdmM1rkSMF3pV2rIoOhPmLjjkAkpiC6VBQzG9JVk6qIn4w1+QDJhfu/ji54B/e5RJrow/d7n74NjnEkwO1mr+Xs10VzEc655ZTQX4bxWc1CjeWU4n+fhHPASnTXdkbmz22sw/TBMP1w/pD9tGaWNyIGZeudKdGZUytothkSX/yKDdjObbQNqOVVQ44Ji9R8badCOS7fgebxPebbcDx6t9HzpO9fySRxAhPP3TtYm7SJrZ55vRHNJOGdZO6jUHHhl7W7jfRSizy8CJvocRKee05D+sG7j/UXLKHaUNGCwQ0+RkCCcQEbhNyqpb/lpSO2ewxM6FwQIAmqTfhIdRmZsBjdd6PeabsUJnhP30CsDOhedm37vJDTHi4kOy5npwnOf4RzUy9qBR9YORNbONHerc96SK6MZx3txaMahG4fUfZqZvrrRZ1BYLWO+SgchSVhVFdDb9LBkx6i2UiSk5kMoaaljBxRFB+3atxZ1JHSIDjql7bhcS570s/fRzH31qBAdnj84Bs+F5pV5u4jmXppzy+tV5z/LmnDcc6+sHYdzQkTnqfscv7027UT0qYd1cvfnLNN0kUakcpvOG5DRSkzv1DbdfEhiruIS4LBtYEpOQJ6DaHl4WayTaBJ9m7Qd1617rqV8vfu/GwH9bIXoL7uaC8tn3XjuUttr927CAa9wLjT3qs655rwJVxqr2rxWZktgj2PBDIp0nrpz0+vsYttrmSaZIo1ItFmbItZVUwDH/K50j+lbARRSXS/U00y7UV10tLT0Tu+LEF2iZxKSH5GMt2aD8wuOCRs573KF6A94F054LjSvtRxHTdour84lTTjvcM5fgJ7KYzMzNffREdOh+dTURuN9TW2gu/l+HOhK6nw6Kkz3mSJ26FvTG1IuW3pVC/SEuuhgp94bnNuIJtHBTkk7Lq2wxknDXtV3qzJ3t+t+b5IV50L0iptqOERxLsK5sFxU5z7COZDfOnf1xrmi647ba7REn6M1+gka0rnoFatmbpta/qoeBgWhpjupdl+cELnp7ZpmodqdUtFVby4m1KLpk1HSkID6JsJsv1pWEdclury32JuVPBJdK7Ul+trZjYj+kRvPRbd9lnfhuOcQ3bMHByTRXF6dc81FOJ/Zg3C+MXeCV+q8Rl+kRTrbvSZ6cTD9kGeR/rxlHtG8kRPJNPfDvS0Ox3y1Cfr0bbAPqUe/+JBKPA8RNdEFYY23PdqID4Ia5gpGNXYV5LxaM3Bi5ayI6C/z4px320XaXu+eGjxniJVwnp6rN+FKYAyiAxHXy/NlnrkjpJ8R99FZSN+oQe5oaMUZeORZtM1Wr86DCR+9roieJ0lsiauKnkkRoGUv/PYUaVb0ASIn+qTCzQ29orcRVeJJSzM7akRfFhH94KwbzMUqmQ+//unitevXL1/+3Q83pOy5scebsT3UaLjNX8xsnJ0r+8gWzLgRfeHMCaftPgXWPUR/yTKMSHl9Maiour07JOtqK48ilJPMEjXRQU9DJ2yfRiSIsuiCRn/8KZ91U2wr0Sx6LEUU6ba082J10/2giOh/c8+d8hyen9on9qNX714Dzl50dgJ8/xqfPIGj4GxvwQsb0ukngP0tYo6UM2qGb18rYciMO10GB4fGc/5296k6t9eQuzs1OqgU/R8zq+LkbST9qtu9cvO6bFFX6tiUnQkQddH74w3V7LAak+wm/gg0GTd3xvz8LWaJP4IGH6uRs7Szo3pd3FFH9KWDzg4WHPyu2vl3vGbGifkTxQNsXJwzHRKK40RHTlDVceYjImE49MbVHRc3DMnH3ZFxuHBK/FyC8DCcR3d6heZiaNwEHyWF1F3cR58CDzfWxrU4oIMh4pfBtL8g2x+MEuDL9A4Nc1Zi7UROqMlf5MRuu+Hq3ijZlOh2Y0OzOYWmp0bRnyRqZC0DvFK1o+Wsm7o/qLh7Dj7a5zEc0jnnmefUd+DMm2DgI87jMJ07zthPP/BYzi84sAOdms5OdJcq3qNsjBSOEhWdwne0AGf32hHsXmPNONf0qaq2+61WB3SQJv4JpPsbWberK+4nzXMVkiSInba/vD1MFERXe+JbVl6p59oV/uiUF5sKwlukmrdFCdEuOmgnSqQtA+yoFH1ViH6lwnOwz3vwhKM3U74Iyembj5FCFGchHRRHxtk4KQomUHDR+TwpMe7Z+cB0h+9489kT7I0XE54juu50BexxRHSxYMZT9L1WC9lJiJLruUzdIJAOJwhQML1d/u80ZnuUKIiu/Kzmzl67nmC5sNKfW9OLXEBX3ewm1jZIFAgae5Z1ImmZ4Jkq0d0a/QvqudiT+rfnhBmetfOLKNHZIeI6B5rjGHGnT/CDX3hxDty5cXwQ7Ojw8CgubOQz78OJSVKjZSE6Xxm3IBXdaiV2mCgy2N23q79KgMz2tp4ub+XkJXhfwwxfTjpOlERXD1mpyIDt8f2yNUqUCDS1PFEw2OMR1u2h7gRRIqhh+FxLn+S1w0v0e7Q8F/H84z885rrzd9654Ow+vgFdOFxY6g7cKp2Pk2KD3XkbriB0Z+NlgKs6S9zxGVcc9MRMx6kkVsC699ER0Z2Fcd6p+2tWS8lkSTMkQtlAuLs73N45GCKqpLb4eWhMuEGlkAsQH4Q2+3THUDjY27+h5kBfN7Vch+hgm/+v1/RAUljY0dsTThFVghpGY0k6Kgb4j71z+ZFviOJ4zfQ8untmzMOMGYwxT8QjEu9XRLzfr16Ymeg20X+BjSAWJMSCRFgIsbJDJMLa2los/SVi5XvOt+r07Xa7teq+3Rf1uX2rm9WP+DhVp6rOuS1H9D/8KRkeh3skt2Yc43mmjQOT7bQ9pOAU1oIVwWE5F+wv4RHDfQ1Y+Vyo5YovJSXAbTqu4yud4pC8vQbTub32Rn5Ev8pNli2IOlmWDocLqysbA4J6fX5IT0f9L5msHM9szlw6V2tEMRNx7y2HGv7viv+zmuJFir7VGJ7LXEFcl7NG/wOSE4j+PYrG5YhOxSl7C99AV+l0/RxgaNLxc67VtdizpOF8vefAKVWn6fj4qu4ywnQN6BhhPEUPLZlYS4qi50f0W9yk2VlqTJYrhynAREF2q/nTkF1oPqLo1ePGhKDo+ezUGhNjdvx9bsm1rihu+2tEv0eDOfgBov+cWwWWjnPq3pLfJvo5Rt+QSRo0NZW2DpD7XLfSX+pCqzzLYHtrhEGdI4/LKO+Fa6o8Gce5O+gWnQF94hytNCbJtcNd4SIre0drvbHmSi5O40Un9cn9Y89EFpsrXPTRt17ZEr0orvprRP8tRPQfPv30h99zRe9OyIGWEuo9M+0uU3jfrkUKuovuzMcxE0e4TlfPmXbHq8JL7p3T9mxZd0nGvadLdJ26s2Ycd9d6Rb/ZTYH6JGfvs/94/nzp5VevXnNYP9g52b32H69N5+KLbxQvOvc9JsVsdBGi6fUBuD1HdB/PfwBv5IoeMu6t0GER+KiuhjdlZO817dQC1X1sB01z3FqvYWBAtzk7Rl2i4y8gu7reaclE0xnRJaDnZd1vcFNh69LGpFjvTTsXzFzcbZjJiV4ZmKgoXvTR/+3UXXGsPfoX0X08V37J771miXci83fZQUdMx0DJYbjQ1G8Yr0fjziWgd07H+bm7+A4oO9wW3/FDZMeQab32ipyXYe81LNJRd+Lzz/sl425y02F5pjEZrs65WFMoc9FldooXnSz3D51TFX2/Nuw/XJE8kys6Nf8aovfvpmpL9ZZ+RHJsr6nw8rTw0nPZWNNFehMfvALjOTjVR6M5R7wYwSmbMl3oSVhrycSz7ryQzppxeaLf6KYCq8EUTP61sGrRq4a5uPJLBYgeceVgWqKTIU/yr7pCebonGfebWE7PP/maouf1R6fjQH60JKa3zjHSb4nkqriaDs+Zc5fRB3KL58oFl+dQXUSX5ug2iWcyrrNIp+jWkkk8zxH9Kjc1KoWvFfOr0J008ihedLI11mg6Hxn0rqmN8x94JkL0qM5d1hK9UO7ujejmOciL6BbJMehXiwFdwIiATs0puqK7a/4EbDPcamEeTgeG9FMOdBxw2n5hVSeyxSH9pZaP8g/M3OWmSPGz6MWD/P3scXDZYoToYP/SMS5LViNEp1Lji+lLO9ujim4cD5d0KZjHeyI603Amem4yjobTd0NE157Jus3GzugYLBMHyzlnp+iZFbrm2iG7hnP2SMcrlvsbLcFz4JNxEN3utPRG9BvcdDksdmd5ZrnfmZHRWTroW218YtmJPRcnOutXjO+QQpTo8VeeDlzBMB+XjejUvJ/otrlmeTlqzlScPhrQ8aV6I7LLMRlEd4nmortxyg/gOp0fdktnP1UcfbUKFCb6OxCdXZNpeq/o17lpwgoGxXFFxeWztdIYmVUXITqpzo9p3l6JE50czI0r2TlG0XnMYTCbrnCe6Y7o1JzkrNH/somembgzljOcK/jR5tnXNmRn9YlMRBfDfTzvnJURzyG4VZHiJ6jO/ugf4sAM1+g5Ef1xN30KC+rHO0WGs8tdlOikAjNGZ3PNRYpOto7Hk2+LEz3+dt2uK56nu0U307/5RkR/v1t0qyzjZ+8YefgVXuNbvvBybOJpY2AyThLvIHNzzWbu1iRd+qMDCeb43bW9ZmfdNev+MUL6R/ln3W91JaCgoL5eLXLiOl+NFJ1URk0T8FZttOhkebMxMhsuQvTIOtrWh6l4bn20e+r+Nfnms296IvqblnU/4+jPwFrdCX7hh7+Rfp6Zvrd96l18V8uRj6PoMoaoDrWB+I3h1Idz7qJTdLRes04tXvS3upJxz7pycDT+bd3Fw+KWqPQ8WnRyOOo/83rFRYtuXDJiSq52pYsSPb6RPttdFM8z2YhungMT/UdfM+4siG5z95Za/jIt5+wdhD22NjfR8QoQHC+DOgbhNHz5oC6+i+TysmAceaWrOCS215B114j+bjgZV6KJO1lbX2qMk9r6mvs76tETVxaLjxedrC00RqCGlfFoopODkRKDc4cuVvT4k/hbbiI83ono9wTNxfS+WXfuoAffZfLO2ftZULzpvyA7p+3IyPE6Ol8BER0ExfEQmO6vtUi9Z/U903tNAzpFz7um+uiaKw/LVyyNT/O9/aFMuzw62V11o4lOrpkbNf8QL7pRma3Fz2uWXYTo0d2ZyLybDJWnLaKb6OD7XNENlT0M53piRjXvVI4DUB2PLwLrN9IxglAWkuXi5BuKS7U4v0hXyzl15/ydEZ0VZpB2Z++1nlYtd7tSMTbVF7bckGzUGhGsMBkUL7qxvBD/f5qRRTd2IoP6Eu4EFiC62xulfdVYl+nZiP4N+ap/RNc4rq63OGpMt+upraZl49oa0YEZboVgRXFLx/nzrzpmq8BiNLhI9xGdnVrouVxTLdUCPav6yhhSVAcuh/hSEvlVmUcXnRxcHhPOr3FkdNHJSYzqm1uuGNHr00/FkWcsosNzH8+/R0TvV3jiLGyhd9eYASz2zAGfVlsCOg+4Szyn5oaP6RhZdiIYL11U4TpFN9m19xqz7l90Ck8wopdrgZ5VfXY01VfW6+6fcUJbh2Zxt+KGEL1A1RdRFHo40YtUfebIuUJEBzODd/Mmx5Mi+gcQ3TyH6QPW6Kq6Ko4Xo2biNN9u83fO21kA9qXQuaEZYjqB5Bx4nwWDfjERZ8fiaDvG96Tcs07dEdC7RS/bAj1DlSUeopi/shKxFNtYbAzNyiVVB6JFH131Of4JhhK9ONUvw5yiONFXB+Vf9t3kuOpJP3X/xjQfJDrfUEYq3GBjdRl9mi1O3AFLu0umHTS74nl4PLyeiudUX4Ex3V9TxdQd22u8vAbT2ajFi16+Bfrorh9fve/iqJxsDxnFrl1zbryik+Vrh9zQnmedqwJEB/XZ4+HW5guHjkSLHt+dadtNkls/CKLT9B7Rvw2iW90JPuq57Kbji/P2MEJ00MYXK0mx8gSED7G83TH9gkVl7I4qqz3rCViWjvOy86y7mK5T93cz5Z7LuEAfxfWl+UvqbhT2Zy/721DKVUEhooP9jb91/VL+r6wY0Un9ir9zvba5WnUuVvTRuzOduInyBEU3zQdFdJpu19j0ErroTsPxxTW6hHSekrFluriutnPOLh9oDjAAMZynZl7pzN/hu0e213hN1dd7huZe9HIu0LupXjM7VOH22ubsYcWNzvLuwlzfGfv2Rj3vEtxCPusuiv3V9c1+sWxxYTd/wnK40IfYtWx9Y+GyWr8Z+xUn+Su+jYU+xKXIDxoktyX6ZHlBRee0Hfz0/U85Z90t3d6VjzNaQARn3YlQ0/3cV5zgLVUtISemd9bnpjoMz5x+FdmtmarCCjOcun8kogMWh3y64v4dLB9e0v8/u9ql21esHlbd+Ng62lifX1xqGEvH83uXXHNQcRMD5dO3UeN5yf4Ei/PrGydbbqJU6qvr86jxXLM/hf6rXnYTYrlWQEv0WNNVdJhO0X/KE13lJrK11ikYp70bOtP2JgvM+Lpxbas74Qu7A1/n2UaAgZFcu7XQ7wv1HC+z7uyPrhH9o+w11YdKmojrQ6V+dOXqJVesL2xvXraIKuPbC3tXzG4cbRWmX6W6vFWvby2vVdzUqOCPcLCPP8FUqe4f4N9DteImy9URLdEL40mIbp6DfttrtlLP2A6/MdjMvXMlnXP3l84tlENzQt/l7RSQkgew0aL4bWl3u9TSfdadoj9SiqssiUQfKseFtESPN/2e74PnYMAanbK3rMCM1XWXNxycOQc6bdd0HGlmRA+hnKt0loHVn8y9K6www0FqxtntNZR7BhrSk+eJknNUTEv0+E22e6g5yV5qsak7scYNbL4GKHu2rrvAGlJEjsvAeGL9FfHx9dw1oIPuenGh8gQ817bJnLqzlFQQvcQba4kE2C6mJXq86ff4PJzwa+4anak4M505OBZ75ipdR994DZr7+pAYGdVtf01DOr51EMs5cpWOFTro9GXqnHXngRkV/V0/dX/CJRJlph7REr1YrnsKnlPzX/uKTtc7u2tAZ/ECs3AI6RSd91Q1FcdDsO3QfY2OK3BcRj6Kr+puCfcQ0jNT906FmYddIlFqtgtriR5vOjXPFx1CexjTeRm9b113gFgOzQV8+6OwCmtPWO8GwnwcXlP9gudgs1l3nnXXSy0fSaeWO10iUWp2IlqiF84dT1Fz0L1GN9EZyK2wu8byv9Z1b7EbUzjwzpNxvI7e7qkDaw0WX7Hb6NYiPVSB1eE9W6Mj646NdEzdk+eJ0jNfaEv0+Nm7iT6wbTI/mWYtkJ3Lcx/LITZ054EZao6PDkD8tjqwtqcGzfUBGHnQXQYG9FdR113LPcPzL9ioJXmeKD2HRbdEjzf9V2XgfXTO3c10bqBjkLHZ1JfnZZh3DxdVYXoXzMSp7IPrunPmLh0ceNQdJ2bgeVqfJ0rPZlwfpuK56jnR/Lff+mbd5cOvll+o59Z1Pyc6a2+eq+VwHiMFt7m70FvX/ZVsXfcLzcdpWXeJ6GzJhJD+Vsq3J0pP/z30uaqbJjT9t19/y4vo2VQ7LcegmrORKkZEc3xJ+r1ttaRY/bXtv+C3JOIyovObvRVDHdiwiW7VnlkcMpOMS/vnidJTuaz44q/xpj+PgJ4vOuF1lpYl5fyddKbbNaxb0p2tGzDgxSAR3Rqv8b1gFOfAbDtHKn7BSTzQiA7P2U31oXQeLjFllvcq7m9YKEfFiX48/1fR3+yUe85uprf8SVjA7XNGc8A1OqHkPhXXtK7J2TqwLPZMz1/FL8ithBMzPBlnt9eS54mps85eeAOYbTRKdcz9L7yYG9HNcSousTz0VO1Ax2XkA3glPXunpd1x3dJx/poqHk26q+GM7Aqn7t705Hli6uwv4T553Q1gt9Eo1zH3HNMHTd0pewuyt+weeoucsS4kH7FbikmFzDsVt+7oNJ2I6LBbbRfHZQzBnKYzorOb6n1Vl0hMmb0GWFqtuH7sLDVKureW4bqHBpZ7BvqL8ZzGazg/E+dDEk5eDeXsj463SdlDMo6PLNQ1DcdjcTRdJafobNQiFWYoeto+T0yfrZpX9sTlU0eFn7LurWWo3tfvCGynvyIG1oyzis/WkgmPfqC6PtBbHzn72vSS2yqdvZLx8rKqXmbBxxef6DRZfP1LnIx7KKXbEyVgrxHYrOfl26+uNfqzWKY56b1e9O+y++hmuzxqO3XXfXRWgJWR9Z55KA5fzME1w7Rd3zYG20jHI+tzXmBjyh0/guTyJRFdknFp2p4oAxrQTfVr93s0371s6p2Sh+fuh/IjOt4WTbepu1qOoI6Xd9f08hplt8oTL/Hba07H1XVTXVxnMk4dx0cH9RyFJzBzT9P2RCno3TjbvKS+5sjayRWLjYHMuHJRvS+nlJQVheTILXS/Pm/KAl132VgDlk1VdYWOj26uWUS3qTsfrs45defmOX6o6Jn+6GnanigHB3kT86XjzcvnZ44bpPwp9wx39opuVWDFb6be9WEuLvRNxqeptHlshp1a2py+h80167LIVTpefqnjprv1R8elljRtT5SEIbrRlH0PvXf6ntupxaTHLwZ0noK1fFz3NrpWe9bT7qciuhWMU6+pt2biCPwmMNwOzED0NG1PlISDxgjUtlwJqdz5dvcaXb/1t15OxRCW6KBlZ+MAd9DxHSrA6oC0exueA4yctOObxgO9vmamM54r96VDMomyMExAL/Ep93xuva+nrjtvqLKhgyXdz5l3xw+M3FgLzVp4WqYpj52L40eGi9A42epNiOf6BtfBY+lOaqI01BsjMFfeNgQPP0bRuxukS2kZxnMA10V1wL4NwLo4qOpNoJZLWGdAt0KwvmMLHc8eg7WAfvu/pRdL4v/AEF0sS9Nu7R9Rvf3NzBqdgyXeobs+UBxy2zY6/W437eGdlqB4Wx33eTjznOgxmXA2Dtyfku2JErHzX5y4e+6+30d0s139FmB2aLIoM/YWgObivN1o4aenazI+wPqvQXO+kFz+Dhzn57F7XSJRIkYJ6Juln5ve+4BpzkDOJg5WeEJehnJupLckD4dXP5qMk1djuSlvDdIRxmUE6jlexnQ8t6c9tUSpGCWgz5XhGvrfUL3zAdtV4865yE7T8YrqQtNXk9IvfOTVHXTJxzHtzmhuYCv9Fbu/BpiRYx7u9pRrT5SM+UY8R+7fQOXeB85C42R5iUhul9LPhWA5gN4c9V6LWN61Uuci3fbW+C3FX4VXr0+aJ0rHYSOeWfcvoXLvgy+fmencWiNqN0VHUOfems7dgUhOz/GY5RjCYRkdwrydh+JeTZonSslmI5p19+8BqrMArNjuR4byM33OO6dlhJcY1FlJqsv0tibieACW91r4+JpxSfNEKTn4H8Rzz8M+qp9lV+gs744vX/Q5C4+6+2k7XiJ2c8h0Y4LoMlx/Z0rBJcrJNSuNODbcv44nbn+NG+msDxkkF8ebDO/NcGBGxJavpu+uCFR3v8Fm3VqoO+P5/fcmzROlZeuyRgS1ct1BH5bqvfefESsDq55Tc7vUYkdm8PGKn2aur6nmVvD5Fa098didac6eKDXVvcY/ZuUa92/l1jsfFMu95xh0fX6mBd1puT8ogxduE67Rqbq1U7V2LViZp0NwifKzuvRPb6b+2d7ZrDYMw3A8tKPrRjZI2UcpIRD2Ueg1GFNsjDGB0vMuOY2Bn2DHvf0UWzFjsC3s0trVL4mdB4iQZEX6R1A//4Ut02EOLDp0r49u4cEhM0E52Q5l9A6ecCaHONU11R79b0ME0VPPLl7Gcx6vOx+Ytsx46TVYYHVZOvau9ZsNoskuW+9xa2e9lQd/rqWgkJ2Ih9titFcvEjlyagTTr4AfJxW6WqwL4oHe0MMcqa+F9Dc8h9soThE7ERv55GpMcl7VWUI0Qmqsobsw3rt1uO3gzL14shda7IKMgzNyCtiJKJlf/3UAf7c+3u7zf7MVTIG1Y3YO+PY1uPyOwsmhzrYxku/JyImYycvZjyNfH6tllixzMHdp3l1+jhbuXrx9Y9S+U0zsKSUn0qBe3599Hwh7s3rOsxOgaQXnjEmpjNHafuidUUoyxrloKVQnkmOaXz6Ui1VVTBbl07I+3Cf+CRWg2ejcJux2AAAAAElFTkSuQmCC;" vertex="1" parent="49">
                    <mxGeometry x="180" y="102.45" width="60" height="15.06" as="geometry"/>
                </mxCell>
                <mxCell id="67" value="" style="shape=image;verticalLabelPosition=bottom;labelBackgroundColor=#ffffff;verticalAlign=top;aspect=fixed;imageAspect=0;image=data:image/png,iVBORw0KGgoAAAANSUhEUgAAA+gAAAD7CAMAAADO105+AAAC91BMVEUAAAAAAAAAAAAAGAIAAAAAAAAAAAAAAAAAGAQAAAAAAAAAAAAAAAAAAAAAAAAAAAAACAAAAAAAAAAAAAAAAAAAAAAAAAAAAAAAAAAAAAAAAAAAAAAAAAA/0PkAAAAAAAAAAAAAAAAAAAAAAAAAAAAAAAAAAAAAAABO1Pc90P8MrRk90P890P890P890P890P890P890P890P8Nqig90P8Apw9G0v0OryM90P8Lph+B3rwApg4HrR890P8AqA490P8ApAc90P8ApAcXtTsRryRGxm4AfQIAqhIDfw0Vt0MCwIm37NYAfAAAfQMAfACp58qg48ICwYuV37gAAAA90P8zNTAAfAABqQ0BqxAAoQMApAf///8AoAEApgkAowUBrhQBrBK6vbYBrxcApwuCgoLh4t/a29fc3drf4Nzs7Orj5OHX2NTl5uPn6OXS1M/V1tLp6ucAog7LzcfGycMFsRwCvoEQtirP0cw0xVcApRYvwlDw+/QBqSk7x1/Dxb8BqzEUty8qwEoBrTi9wLkJsiABrz/r+fECwYz0/PfAwrwvvcUYuTQmv0VXWFU4OjUbujgMsyPk9eTp+Ow/QDw0NjL4+/nb8txDRUEjvUEeuzoAjAMNtCbu7uxQUU99fn1dXlxvcG7U8NUgvD4Cw5V5eXhpamhjZGIBsEba9ejP8uIAphwCu3QApyAAkAn09PPE7tpKTEji9+4AqCSo4Ks0R1eU2po6PDt0dXTH68ix5LMBt2Se3qK369HA6cLN7c6C1Ii55ruKjIozja1dyWYBs1QBgg2L15EzYHZSxlxozHCZmpd50X9IwlNxz3citzIjriYNtVE+wEuo5sU1vUIsujuqrKgorT8ZriEZtCo7yfSU4b4nRSU0sdkRk0YzlbcyVWY0pcqQro0Kiiw3wOhJwu80iqoKkxwzaoInsqUzeJEzf5wepX10krMXnGHF4cVihqRgcoxmn8PC3sEzh6YBnj9Ut+Feq9KBhqI/x4Q0xNpb06MdozAKbgosNv34AAAAU3RSTlMAy4IG6ruk4wz8MfcW8XRkEJNv2cMk0rI4rItVXAybex4qQEbeTFBqH/L9zpcq4lo/u3ogqJM0eE01/WOth7xl6G7T3FT57OKpSbbmyl51xqN9dJdQW+IAAEF3SURBVHja7NtdasUgEEDh2YjvilFjCJKXEO4eZv9raaG0tC+Xtjf+JJxvD8McTZTGTCjzlo5lX7OP6nxep+WRtrkEawTAxRk7L6vTp/yeAuMOXJIpafL6e259zIw7cCXh4fU/3MSwA5dgD6+viHth2IGR2ZT1DHEJAmBEJkU90W4FwGBK1rPFRMMDA7G71pFnATACc0StaOK4DnRnV60tstaBrmzWFuImADoJWVtxjDrQRfDakksCoLHitTV3CIBnrr3Nv7DVgWbMpL1EPrYBbWxOO5r4XQ6oz3r9Oy7ggUtZtD/PexegptnpEBYBUInJOgpXBEANZZB1zlIHfrjd6fw7z/U7IHLbbCffgU+3znbyHfhw72wn34F3t8928h04WRgy28l34Eyzjm0VAK9KOroswBt7d7PTRBQFcPxCAUsLIiBooaCCokbFmBjjxvgQ93bFqkk/pvSLyIIHcOUCNtB0Uz4WtMvGhWnXdUPCvgsSoiRiiKYJdgFuPXNLh4GZqZ1pi870/DY8wT/nnjudAVnzGg6v5BBqnjfMDGaxdIQa8JKZw2N8nw0hw16w5tg7KZdKpePj418i+Fsun54csmbC0hEyZuIJa9BJybexsbG9vZ3Pb4F0Op0Bm5uby2B9ff3j+s6P7wfNKR4fqCNkxMQsM+6wXPCBSud53nkaiJnLOgfJZHJ1NbnzfZ81Cj88g9BVdn5Y8lVB5qDaeUaj81xuZWXNs7bzZY81Av9zE0K6GTy3l30yNY/tIMk7X+Wdc7mjA2YcfiEWoau4hzv1ycjX87RW5zxz3rnk02dWD7yRszrHkBY3uTozQ1puEwt4ynQ78QHFOJc6r3Vsh84v+Gpwrj/G5+kWcp1q6SBXp5tq6STm94bp9dt3kfK2XcocnGUOVDrnjvZZnfCXMxaFobfcW6agK3Og7Fzr2A6dq/pkJPUnBFkFht5qr5mC3sx558pje2Yrc6Fz7cx56gesLviGiyVh6C32iukCmdce54XiYiCazSayqag/EAbxRW9xt7CdXv5Ys3OQ+8L0ekqQNWDorfWI6VH2aY7zfMEbCGUTcyCRigrhOIDMAxVBkSAIwfe7W0kPaOQAj1+isCAMvaUmHrP6Hfo0Ovd55yFxLhsJxmNxLgykzIEA/Fy4mM951B3tscus98MZW9/I7ekpx0ifnSAM/Sq8ZPUrqXZeWAxB41xiIRiLQeVS5orKuXkQiQjFLY8qved301y92xzuQVd3x3CXk55zdg13Dz6cvkvaHYbeSs8ZZ2ycg914du5MNhKOiSqVKzIHPHJRBEQj0Wg0XFhRO79LQ90yV+83poYmO5y0Bueo67rDRtoXhq7wTxb0U7XKpVEeEmKcfJhz59NcEDP3S52DBRBa2vAoHTA93pD/mn285z6tT7/r4T3SpjD0FpplnJHL9oI3Ic3y4JK8cq3VHCJXZL4QAh+WFaX/ZCrM+M6qfdzlpLpc65lpy8GOoetmG5lyT4/Ym7mgK4b5u7mqUCBWoZq5wPlFyswrUqnQUkb7+G7i38Lyyg3oGmvDuY6h6zTl6qVc97hNx4KuZz0vBquVJ6Lx2plzisp551LmokDec8k+M/ma/gAqN6xj4AZpLxi6Lo5RKnJS0bUHxhd07c53BSlzf2xJ1nmYk2WuOczl01y0AAIZldLN+zR9poM2xjk5QtoJhq7HABQ++tBxg9jvuW9SSsdsRNOsoc4Li7LV/O/TXJG51DmvXMo8Crxrl0s37Zo+Pkob1zvZTg/dMHQdOmGKT1+Y7i6i5amhzotZaZov6djNlZVD5il55iAyX7hUujnXdBtk3hzOwT7SLjD0+j2g9GYfOWfvoXSIqHtmpPOCf+5MKq56Zg/WnOa8crVpDiJgfj6eVDxmM9uP3m3uYdo8zs522dUx9Lrd7afDdtLTLXKNDdgIsXXTXgdRNWug811pnAf1DHOgvZpHF6TMRf68eumm+d7M7VHaXP1u0hYw9LoNUidUfU16IDtDSF8XdTV04+6T8Urbefwvmfs5xWoeUgzzs8oBr1xU9Mh9M9fNu62zlzbdrbY4v2Po9bL300kiC51nf5329hGlCf2dF+LVzqOyQ/ulF9Rkw1wxzdXP7JHzYc4Jwjv5nVyOXfCffwAabkVaoWucWB+GXq8BSh2V0G8Sm2NMfJIOI72X3jH+U5myrPNotXNBNs71T/OU9jQHAgjGc55zX83zdgsf563RY/1NHUP/w965/LRxxHF87PVjba/xLn4b1zbYhlZNX1FV9VJV/RtmfcoJiVcJgSgcuHHJiQO9hMiX8jgkHCsOFpzJBcl3DpGiEimtIqJKbVW15y679jDGZj0zO7NxwJ8c2ksIsvjw+813fjNDSgHGQVt0gxSEUfM7TzMncf9ini+1PZ/Hh13n+muOLO+u5kjzWaT5/AUdkdy7DyWPQ+VcBMEyuOEMRScCKY1ET0MYkS709zAncZjniyiGu25tjs+0o57dANMcr+Z4BNe2vCX63BxmOh7IDfJN76icCyIUAzeboeikVKCGiZ6xWndQhD7W2yBnLllAnvc8ubJgNx3T0vxHO8utnt1k7oKVA8z0lx9AHienISc+gJ+0NkPR3ws+mGuJ7kunzUhuxPz8omxJHH4wdQ717bjm9vtpBl1BO5bBYQkc7vmcxf0V7KD6iU7KF+A9oXigeAI3+lTbUHRSPDBgid7G9F6DKcYkrse+2hLZftqj0+bxzt7+5sETQ9Of6tv7ezvHzdPHSw9xzU0wyzHP7xus4xNyg57HJePQDRI3OZIbik5KFnpw0VshXBqmWQ6z4CfQm2gcDtcc309Dns9uNJ8f1q5l0zj4hiVw+NLcAEluXiyJ7adv6YN9uCXjg+4Qv8HD70PRSfHCkGKJnlIUL7Rm4tQozDEUdHwk7vjn9pwMXsxbYNV8obmLLm63Y3tm7YrnncV8xRR9eeUYS94HuqRXI9AtKjd3dmYoOilJa1EeND8ZKWX8RwJgCsJxphX6DGIFLdC7ijmm+emu9RwyEfXmPLL8as++YrJssMswIPcDcJ1YCLpH6sZ270PRKb7JitwW3Uzdi0COQz/DqTU8iTtte/4Qed512nx9D723RMrmaVcxNzEtN1l7xDI2A9ymCF3Ff1MTuaHoxJQhDCDRgQZhJFmAsOqwoP/Y3lkzVOx92ryJPYdMw9F9bGk+h2lueb621sRK+qAG73noMtkbavpQdHJyF827agAMJFVVihBqTC+nohX6DkrcZ6/ZT5vG3lWjpdlRzVdwzU3q9FtsnwBXmQhBt9HAjWQoOjmSB8KA3HEc3SM5LOi/tJO43k378i5LOUc8edyh+XKH5o/WprGpmYE825JkyNuD6YDmHYmNlcuT+amiN5uizfKK4CYyFJ0CxQ9hsKhY/18MQuhXQCd3qQr6zs4GVtDnu/bNZ2fqjJ4jnq9dreZrLR4Z7NXavB3Ekq7EIRXxwEhZAV2UysUEeWcQqoKbyFB0GiQvhDAUTxf88dDFNyexDcUdtz2feYoKeo8huGmb55C3DhuNs5O35+dvT84ah1t2/XurmlueI8tNVge6pEsJSE7Ib3uxq1zVKrfZ86HolIQLEXSNaJh1yh09h4wi96Ue0zGnpueHVz1vnP/aKzp7+frdWe9ZmhlUzHHPLdGP6PfSPwduEaCxXCG6qfvWej4UnRp1rFhIF4pjKuhGJ+IP9Ewqitx7zLoeW57jmh++e92n8L56cdajfV/pXJsjzVdXN2oIfdDeVy1CQqJFBZChjFRuqedD0XnypU4E8ryJnmPpOrmy+Pxq2751TrYH9vL3Rtew3Nql5cYfy3LDc4N9+on3r4ArVIk1VwE5Usx3Kz0fis6Tr4hFv9D82dEyiuKuHkNd2L7i+dtXOjlvzq8s2g9X17qqucU0FscN1BysGuSrOUIuRq/1fBLcWIai8+Mjws697fkOepKl6ya4zc7l+duXOiX/1DqoW5pj1dxifX37Su8+KEMzGiRBUwE9SuH2eT4UHeHaa+hW2350dISiuJ+vvqy0U69ju2qNNzo9L0861+lYAoc8XzdodvXuAxHHTUACKhOAjarvtnk+FB3h2ivJF5pfiL53vy364pW7Y07xtn3rtc7Gq461+jHy/BGy3IShd/8YiEaOw/4UVMCKkr1lng9F58fHhJ272bYbnh+hzv3KfY+rT7C2/URn510N4xStzXHPNzY26Xv3u0A0OdgXn7PgLB+5VZ4PRefHXcKCbpXzvT2Uuf/SeUXUPJ7CvdOd8GsNY+PS8/VVy3LD8w363l38dFw4BPvhURxfZ3GbPB+Kzo9PdCIMzU3Pnz9CS/TOi+D2nxyi5fmvujNeY6Lvrl7R3OTxY9qZGfH3wUop2A+/zOGCKp6eq8lMOKkC95FL48a/rMjvVXRJTYYz4yVFugWif0YYkrU9f/4UnUTHNX+4itXzV7pTXuHNO+rZcc8fb9KfSr8DhFJ05yJH1Y88HwMsKOX8qFcLpD1xX/sL+eIef0DzjmYkIBZpPJ/zpypR1PuEgv7CyGTJXdHlzFQhkQpGYZtIPK1NldWbLPodnYi/Dc1Nz/futTE1R+8k1lE5t6nnTDW9fqm5JbmhucEx/SJdByJRoy4dJZWyzJ5L47GAbWAYSXirogp8KVbwRGBvKoV8yR3RMyOBeAj2JOTJVWUW0bXgtWicmsXgNYQBIToZO2Y5N5hBWVzH7c2nl0My5zoPzmuI5iquucX042m66yfEj8EWXTtIKqVZPFfLXn8UkpDS8iXulo94+uYXo4po0TO5ILQnlB6T6ES331WNqEIvMokDQr7RyWh5vr9/+Xgq/hTDg0vPz3Q+YNPv3ZobINGJOgjxY7Cyz72rIeQEpedyvpCCVPjLPC0fRZb3sWxSEid6OFeBJPi0MG3rbtMlTQEOJOA1jAJCvtPJaHu+v4hER5YbHCPPay91PrzENtPbS/N2MTfZpt9J14E4Rt281k32UHguVbMRSE8qLwEuhLOQnPiYINHHUpCcdJhO9BGbjxE4Z5yyX2DP3P81NDc9332KQnf8nUTDc1ReefE7Ev0QaW4w3eYZxSPK4mdmpCC0paICnqjEBTdTiEJGgkXVPc0RqUmuoiPN6ciGaURXIvBaMgLnMwqc59z1P9qe795DomOPHm9sbSHp+LF1GbxjTTuiSZHGiZ93j0FbouPgvVBNQCdEtZJ7miMSSc6iT6YgPZpMKrr9JQQF50XE5/iXyJc6GX8ZmpuezyDR8ddQ97doplfok/fnSHMMmjRO+CJdikM7QmXwHpBiceiUyIgEnIzsMhGZ4il6JgWZqGTIRc+IjOPyzj+DOzoZVjk3mEaiY+8kLmE3rfOkUWuDNMfZon9CWQeCGIO25MB7IBaEPEgkmT8UH2TFXyIQXfjL1TmJVHSQYo/j2KO4GO+xOH2/5fnmfbS7hj2HSjuOSj8K20SWY6BHlF/oBIhdpNsXjaAMXCfjgZyIxAALagA6wJfhI3o4BR2QUEhFn2KO49ijuKjMe4muW55vbm7+jEQ3NTd5WMfePeQKEn17ugf7NQPKnfvvgRAmoC2TwG1KlJbxb0jKDvuJyCQH0aWREHREPEkouhwVFsdpzjdsvyQWfdfyfPspEr0lucEiNnbOl5Nam16iP2NYMHwKhKBBO9LAbWIRyJWsDOiQNOiYUceilxLQKb4MmeigICKOs/8VEua+RP/N8tzgHhK9rfmDh6fUly/Tj7yfTneDhmAbOjlACD7b6LoE3EXNQt54VECDnIYcKDoUPVmBzolkyEQPw2uJqkKiuATgvkT/r1XPt3c7RH9oiv7gGYNwtL37znQ3p/T7a4JOsGX6VCZ3yQQhfxISIEdNQC7EHIke9kEeRMeJRAc2mUhMSBSXB9yX6H/ubpqebz+7FL1l+YOlpTr3zh1xYrtIZxH9ByCAnG0SJwFXqYagCNISIEVJQT6Eqg5En4hCPgRLRKLnbfohEVGcT+a/RP/T0nz7oImL/sDUfGmRf+aOeGG7SKdfMghapFcG6VE0JQKFUAAI0R0zIpJllmeS38cQ99iJThLHhQEzGoeE9AdK0Q8OTu/hZ1oMzw2wwsqdN2Siv9HJAfwJQyhigcbeX4ghz/7EJDusoudD0A28ZJ97QUAUlwTEfK0T8pdVzw8OpjHRrXK+uIhlYvxBLjd5if4R4I53sN4zFlXSo0lAgBqHBIgWPcPsObvoSZuPTuYexfkBOZ8Qi25pflBfvxR96YJFgz1sO5s7Z3ZpHMPgrZCRmZTdMpMscv8gSrpHAn2R/JAA0aKXfNAdvGSH3GCMexQ3BsjRyUW3PK+vYaJbms/ObmPnwrnzttZif7qbJ/QzsCIun0hCG7KAiA+ipMMil18y4kWXPdAlvIRz0B7uUZzE8YkWxEnL8/o8JrqpuQHjgRbKs6oH093U6UUXMRs3CqHjqagPo6RHFNJOUzwexgdtBYou+bjHcRqPy+o+00nZtTx/8mTxUnRTc4MFLPvmz2u7NO6ApZe4A3gTgAiiX7ziUaKQHSeBQ4aglxAvehG6hpc0rClwjuJKPN9iQmwbmpvPJ/54eRx90bR8dmGeKXTnErszLRo+B7xJ0e5JiccLxRBKEj4xKR4P48EDkaKXeMdxeS5T1d/p5KJbnh/+cim66bnBupATLQhM9K4TbOjG5991CgBnpNBAHWchKelxf1bzTo1NjCvKeKaan8olSCtxlqDRJCOYSAc0b66Q9cf5ii5RfL2Q8UkUchd3Xyd8HEQHaS5xHMG0XRVQ8KlOLHq99XziU0x0U/P5+VORu2u46I8tMN13ay3+0YlB+2uu7KJHZECH+JKe0ibVHnaEpwJRiGDbRMiQ6pUulhW8EZgYDUQZRWdv3H2BqYwMLlGqRX/IoehVvnFcmM+0pU5Mo/V84k/3ED8umJ67LfqG8ceR6Pyn3fMDdW7N9pL5eGFMsfk7oxXqn2wcyUNkuT+mgm6kyWyEi+hJoi8TDZR7uaJMJRyJLgW5xnEal2nLj3RiGu131TDRTctx0c90ERxi98aZOBb9W8CXHOTUrwku6b5i3wBHwq6Yo68loySa21xCpxajHET3kxTzERlcRzJAJTp5O6Hxi+JCCudnVJHo7WdS7yEemp7Pzc25J7p1u/u6U9HvAkYYfrKSgAKhJT0VkwAJoyFoz6SDqD9U6BPmeSNORR8jqOZFGdgxnmUXXQlxjONifIYzPtOJabTfW7qHeGBqbtAUK3oDzcCuWzgWHe2viT+LHgUuYldb0mVASrgCbUmzb16n+nevit+Z6HKwf56ogn5MVFhFB1ny9o49iisDGr7RiWmY5fyq6HNuiH6Gi7568WcDS91ZRP8acEWBcCCe9r2+pEcK4xyvrYhIlDNcCE0maikiTkQf6VvO81zvu/NS7O15eEVxFUDFlzoxDctzXPQlS/P795HoJ7oI0In049UWGw63174CXCkP3i56Z0n3UGiOj6tTlpNCP8NIy1A4zi66FOz3t5KkEWuERXT715nCnKK4EUDFtzoxDctzXPRFS3PhoqNh9xk+onM/kR4boLtlOlB96MpiSpSKbWFmmq/3hTnfW+FhWaEnVEDKRJRN9FFecZwcZRxEZh+MQwtlXHRL85WVY7Gin6Pja49aOBX9E8AKdbM4AWgQUdKDTN/CeNRu2oZlFi9IE0uqHlbR+/xFvwzIyUSZRFcjZHEcewUJAATxtRPsos9ammOiv9VFgER/1hZ9nVF0BECInjZVwPtE9sGsApiYhDaU6N+SDZYoX4tlEz3D4zYsxLiPRXQQ4BTHeXiVj7s6gkH0BUvz5WXBor+rtThaG0zRtcEM3S+YigESaEtjlfrpuUgY0KEEmUTP2of+Mm38EmIRPcMnjgtzew/ijo5gEX3F8nxZcOv+T63F3lqLARO9YNfkfrBUKYfj4hwuocIJRxhETxJckEPFCIvoIMUljitwCX7QRVLMos+blosX/QVv0XkPu2cHc3cNwb+kp2l7Zo3jYDHCQ5sTVAE9WRbRYzw+CTnK7c3G/7k7d96mYiiOn/toyLNJG5KGhkcehIJ4CJhYEOIz3KvuSIAoUKjK0A/ABDtbYYK1QmJgBqkLOwOqAAELCJWBDYkBp7mVGMDYf/tYvvxER8Sj/cX238fnnEkFsOhXM8/XnIl+K+OOX6JPSTJeyi8jyYFbU7F2RAAFfdEDk7FSWP1NKHcUj+PqwJWt7PEaLvpE8zVnoj/3VPTAwyctFogkmXNDb8bkAHxpqyt6L5EQNwihC4hOMxYOMYG9lkWnUgEs+o2J5g5Fv51hLPpRgtE7nRYox8xJKvg1FMP/F6Z1Ra/LYwKMKUD0svkmr2zxOJhmYKLfFpq7Ff1Gxh9Ef5mqY1v02KdOzxaZ1eiDtyDLwKqEEbU1RZ9LGE5R/ZK+6CS5HewbRnF1cryiTzxfXVt1JfpjT0WvyI6FOaasEWvNsQyqGemJXqyw9OicAUTfb/rhX6wBh3yeM/qtiear7kS/mrFqJrrtM7r0pyDPxJJtsLpilSrBHNYSfZSwxKItQPQoNozj6sDnBFPqPvZc4E70Rzvv38WXZ6LX/tMVXXI6ndVQ7CBXH+1AZ+ntEs6cvug0bxgWBMBFPNM9utDcuegC/0Tf4+njNcYCgVDjcq1MOMWajugB00DbISB6y2xzUQZ+M1dlXKb5nTuuRL98LcNYdLJK268pLfaYUT5n7uMqJZjREb3CNdC2CZzOpoziuIPAdoCr1n2iueCyK9GvTBrJ+ya6JGGdojwTKl+YNbke6g40RG+xdfSaB0TvmsRxjRowEp3r9VrmuWvRBZ6J/p9WxslOyHPqje1bbFU7gXpQcJiMGACiG8VxC0Dow/Ue/UGmuUPRr2esGYp+jACgcug25Zn9qh9gZUAx+w8JptnqGaIacLESGsRxbeRjU95hBhddKO5W9Bc3M0xFP05WOSgrCs8zXcmrPODWGKKuLnpBofkVyD5A9F4J3uh1FI6CWM84XHTRsNGh6Ms3lwWmop8hAOgEV4rIY6Jqqyzj70tkrLx4HSEzehLRlUP3UpHv4yZEbuX64NLRJYisCywuurDcpejLK8vi1++iPwREB7vAYqM7++Qbxc7CeNBYcDiuJDCx8oLXIkNqyqJX+NoCdBDRh+g+p1GBJvPK+7rDom8IzR2LvpJhKvoJAsCqOrrkEdXhdKEpyc1g0QOF1tAogaroVcZHhA1E9Ojw3+O4CIriQsI4mgpg0SeWiwlJzkRfWloSmi+t3DIU/SxZZX8eamCjYSEr7GEQvcmYRhZURW9xFijGyHf4EBjHteGR6PLZa7joQnOXoq8L08dfpqKfI6uUE+8rZlphZjmP6DHjO91pVdHLClrBTCGiV7E4rmN/Y5IKcNHv7Xh+15nor9YzTEU/SVYplvxuGles700EjKLXAA3M29EGypfdHcablRAL6/vAnzUilONpiot+bwcxyNit6Bt/FP1dqsEBskszgfNeforzQkNe0SPOARYDVdFHnJHoPCT6ADlNNCr26/XPpyks+vpEc8EjV6JvjFnf2LhtKDpZZh/8DJqfTjNhIFaNquqMB6NAuea0x3izEgJLgDRAX5DX68Olcbjodydccim6wFj0U2SZQ96mccWZJINT9B7nrUNLVfS6Qos7mFnsGzwL5AZt6Uh09H4NF31p1/PciX6CLDNKPC2CHTQTHmLVMaojxlm1gXIFLBlTx0RvVLTjuA5HrnsgNRT9ksC96DfMRL9AluklLO+mGA6WPKJ3OGfPFVVFDznn5XQx0emg9g9GgaWMN8VFXxlb7lb0BxmGop8m29S8nKcKbNsx0cucojckoiseoCqctRIhWlI3r7cHaJIJx1JY9OVLeRX9KNlmb+Lhk/RDCR+xaqnKiHG7FCifhyPWrbuUQDOOmwVGogPNpGSib+3wbZdnH3Z5spXx/j4HX7YyXnzPeP1hl6dbAl3RDxAAvHaWGsQAEB/xiV7lLFXpexHGTaOi1zWDyjbcYtO89cT97bcfF/3m58ev91NVCAEfE1YnAIa/Ep/oRc5/fMeL67UQFb1Y04rjOliJoflD1TeftzcX88Hm9uc3qQLHyTqNkm+5+6iUcBKrNryeJlOGqqIP/SuYGTOjFccVkHoM89j9x/Zirtjc/pT+k4sEgY/tGZJzGnECwFACO8+YdwfkLvsvwKL3deK4RgVfLfA07s3Xxdyx+fWfq/pJss9C4lccBwXuuOh7GKdMhqqi9zkPEIFEdDipjSPlYOUXdef2G0UVx/HZnb2yly5sL7QVWrelKFFRn4yJMT7wF5wHug273bR/gcnSILWRmlqIkLSSSIp9Eh5QqzFqTLR4IbE1GgEVCKAJLyVpSIxvPHB58XvOmTndXWbPztmes8HPzs6siWkU+tnfZc75zW5rkzwj0fz/krPXqH7HVIkubw2bmGyu+3Fhrd+mmtW5vlguer/eeVbatu08odCOy0oeiW6oSL//uPff6nPrtqESXf6N/xg9UzXsS9b2yNaevm1t9dmqMHjC2CytTr+iZwzmVP2kedHtkO//ru2yB4GYKdLf/X+Gc87afYnor1om6CMS4h1WS9lFGhBvT+eSSuWxXPSIuT6YnfAnOgiZm9E50LTooMd3Oy4iyQnNFOl3vHLi1XXKZw4faAQ/DafmWF1VS9+fskzQQWR0Wa3EzhIpgTYmuUbR+wzdSJdX3gH/y5aSRm6jy0VXH32TTEj+T40U6Y904dbvnltZOXfunXfefvutt95888tPP3njjddffz1/gJHHQS/5A8Vi/kB+pIhLvkgZoUcB50KhMDJeGKcXfBgfL4Dx8f37ceBNGabvYRwl5wM+lUqj9BhlB7uAsbFRvCjlmZmJxYkjR26sPyL7Py0t0YFcriGrhQwQGdkhC+gVfchc2ZL2L/pWc1834eZFB2Gf7bhtJpdiPN/Y89W7K5RzoFp0WO0AyWG4cyrmizhG8tRyUAS4UNFHACTHgX/aD9ELsJxeXd1ht2M7Dir6MJV7mAuONz5wy3Eqw/OZRSr68bm5m+s1pteL6S9YZggSGdGYpYDJlnufbWkWXR6zQrYxxQL+b31ENM4QUhd9yGc7Lit5souJIv1OjebLy8vw3COi5ytEdwJ7kQZ1KvoItx2eQ/ECPeNC/R6B547sBcjuBHUWz/ECpRJ1HZrjE1wHsJudx3g8L+FEbYfo88zzI3NzpxdO16heZ6XcXks/IsV8PJ6fHJUU5whtBkS3E6Ymb2Ti/kXPmfq6gambEt2O+mrH5WQ3DQwU6fer8uC7S8tgZblK9E9F6i4y97wjeh5Ad+46TC8y1YsFFtMd11k4L1DdqeZC9o30HWcAt2lEB7hA7xLshun8BVhEn5g4cvz43OnTZxZOVKu+eruFJTroIjLiCu0Uc7Mq4wOWAdFBp0QEjYrJRU8aG/SzczOig6CvdlxEd0NTPk7qr7VKW1aWILpXRP/ETd3zwnMKP0Nzajm/jFAK8J2V5/QTBIfkOBd4zo7X8DAN6q7g7MzgCTzVfEyU6G6RPlOen5+fgOlI3c9Q06erTF/7q3UlOthOpARsq0UENUinKnrE1HjMbt+ig5ChO+l2aJOi98d9pHrJhMKaeA2Pa7lV6fny0obo5x6J6KJGzzsH68ZxivTNGMEbpjvQD5DcCedI3jlOFHerdHouiSIdpg/zEl2Ec8BTd+TuXPSFhYXp6YeVpv9ruESXNH013Ao1cOM5a5sSvc/ACmC5ISCg8DeQyujao6ouOujyUVSkDXUSBTU30Ct77UsHl4Tpkq47d53Hc569j7hNd56803ehyOI5Yz+ERwuOHW7Ozv3mId3pycFvHs2Z7hxen7NLGe04iD5BU3d4fuLE9OHD1ytN97id/rxljAEiZ7ell5jy2o5dlinRc4ZWAPcQFdGDhuZ/dG5a9AEf7bis7v6C/AbbWkU8r/FciF7djWPR24nkOCOoA9Z+g+DUcByI4k4gBxAbn5w2uyjMcSrh7SbvaMpxqOfA7btTzV1myqwbh5COxJ2KXmP6LYXM3WQoFQWyTtLZpOLvVMo2JrqdMvL8uVhKKrpK9TRoaxw4rV4ODTb8HswZ7+M+W6fjDs8herXp+76+8s2pyWNgknJy9iTnPcEpzoeMH3744RvK94wLFy58y/iKcf78+a8ZP4MfwW/g0qVLv4KfwC/g4sWLf4KrV69eu3bt8uXLN2/eXJyfKfOYXobn8zSizyF1X0CNDtEPHXoo67w/Y5kDXshJdVj6QDrZmVRbWr3TMiQ6iBgpWnYTJdHtkJGn4HVpED3dsB0XMT908GnvgL58EAjPwb0rs+8fe59ZTj2fBTWen3LglsNzLrqjORCan6dUaA6o5sDRXHguNAc3J6jmZUR16jlMX2QRnYp+ZmGai35oXRLSn7UMYg8SOdmM1rkSMF3pV2rIoOhPmLjjkAkpiC6VBQzG9JVk6qIn4w1+QDJhfu/ji54B/e5RJrow/d7n74NjnEkwO1mr+Xs10VzEc655ZTQX4bxWc1CjeWU4n+fhHPASnTXdkbmz22sw/TBMP1w/pD9tGaWNyIGZeudKdGZUytothkSX/yKDdjObbQNqOVVQ44Ji9R8badCOS7fgebxPebbcDx6t9HzpO9fySRxAhPP3TtYm7SJrZ55vRHNJOGdZO6jUHHhl7W7jfRSizy8CJvocRKee05D+sG7j/UXLKHaUNGCwQ0+RkCCcQEbhNyqpb/lpSO2ewxM6FwQIAmqTfhIdRmZsBjdd6PeabsUJnhP30CsDOhedm37vJDTHi4kOy5npwnOf4RzUy9qBR9YORNbONHerc96SK6MZx3txaMahG4fUfZqZvrrRZ1BYLWO+SgchSVhVFdDb9LBkx6i2UiSk5kMoaaljBxRFB+3atxZ1JHSIDjql7bhcS570s/fRzH31qBAdnj84Bs+F5pV5u4jmXppzy+tV5z/LmnDcc6+sHYdzQkTnqfscv7027UT0qYd1cvfnLNN0kUakcpvOG5DRSkzv1DbdfEhiruIS4LBtYEpOQJ6DaHl4WayTaBJ9m7Qd1617rqV8vfu/GwH9bIXoL7uaC8tn3XjuUttr927CAa9wLjT3qs655rwJVxqr2rxWZktgj2PBDIp0nrpz0+vsYttrmSaZIo1ItFmbItZVUwDH/K50j+lbARRSXS/U00y7UV10tLT0Tu+LEF2iZxKSH5GMt2aD8wuOCRs573KF6A94F054LjSvtRxHTdour84lTTjvcM5fgJ7KYzMzNffREdOh+dTURuN9TW2gu/l+HOhK6nw6Kkz3mSJ26FvTG1IuW3pVC/SEuuhgp94bnNuIJtHBTkk7Lq2wxknDXtV3qzJ3t+t+b5IV50L0iptqOERxLsK5sFxU5z7COZDfOnf1xrmi647ba7REn6M1+gka0rnoFatmbpta/qoeBgWhpjupdl+cELnp7ZpmodqdUtFVby4m1KLpk1HSkID6JsJsv1pWEdclury32JuVPBJdK7Ul+trZjYj+kRvPRbd9lnfhuOcQ3bMHByTRXF6dc81FOJ/Zg3C+MXeCV+q8Rl+kRTrbvSZ6cTD9kGeR/rxlHtG8kRPJNPfDvS0Ox3y1Cfr0bbAPqUe/+JBKPA8RNdEFYY23PdqID4Ia5gpGNXYV5LxaM3Bi5ayI6C/z4px320XaXu+eGjxniJVwnp6rN+FKYAyiAxHXy/NlnrkjpJ8R99FZSN+oQe5oaMUZeORZtM1Wr86DCR+9roieJ0lsiauKnkkRoGUv/PYUaVb0ASIn+qTCzQ29orcRVeJJSzM7akRfFhH94KwbzMUqmQ+//unitevXL1/+3Q83pOy5scebsT3UaLjNX8xsnJ0r+8gWzLgRfeHMCaftPgXWPUR/yTKMSHl9Maiour07JOtqK48ilJPMEjXRQU9DJ2yfRiSIsuiCRn/8KZ91U2wr0Sx6LEUU6ba082J10/2giOh/c8+d8hyen9on9qNX714Dzl50dgJ8/xqfPIGj4GxvwQsb0ukngP0tYo6UM2qGb18rYciMO10GB4fGc/5296k6t9eQuzs1OqgU/R8zq+LkbST9qtu9cvO6bFFX6tiUnQkQddH74w3V7LAak+wm/gg0GTd3xvz8LWaJP4IGH6uRs7Szo3pd3FFH9KWDzg4WHPyu2vl3vGbGifkTxQNsXJwzHRKK40RHTlDVceYjImE49MbVHRc3DMnH3ZFxuHBK/FyC8DCcR3d6heZiaNwEHyWF1F3cR58CDzfWxrU4oIMh4pfBtL8g2x+MEuDL9A4Nc1Zi7UROqMlf5MRuu+Hq3ijZlOh2Y0OzOYWmp0bRnyRqZC0DvFK1o+Wsm7o/qLh7Dj7a5zEc0jnnmefUd+DMm2DgI87jMJ07zthPP/BYzi84sAOdms5OdJcq3qNsjBSOEhWdwne0AGf32hHsXmPNONf0qaq2+61WB3SQJv4JpPsbWberK+4nzXMVkiSInba/vD1MFERXe+JbVl6p59oV/uiUF5sKwlukmrdFCdEuOmgnSqQtA+yoFH1ViH6lwnOwz3vwhKM3U74Iyembj5FCFGchHRRHxtk4KQomUHDR+TwpMe7Z+cB0h+9489kT7I0XE54juu50BexxRHSxYMZT9L1WC9lJiJLruUzdIJAOJwhQML1d/u80ZnuUKIiu/Kzmzl67nmC5sNKfW9OLXEBX3ewm1jZIFAgae5Z1ImmZ4Jkq0d0a/QvqudiT+rfnhBmetfOLKNHZIeI6B5rjGHGnT/CDX3hxDty5cXwQ7Ojw8CgubOQz78OJSVKjZSE6Xxm3IBXdaiV2mCgy2N23q79KgMz2tp4ub+XkJXhfwwxfTjpOlERXD1mpyIDt8f2yNUqUCDS1PFEw2OMR1u2h7gRRIqhh+FxLn+S1w0v0e7Q8F/H84z885rrzd9654Ow+vgFdOFxY6g7cKp2Pk2KD3XkbriB0Z+NlgKs6S9zxGVcc9MRMx6kkVsC699ER0Z2Fcd6p+2tWS8lkSTMkQtlAuLs73N45GCKqpLb4eWhMuEGlkAsQH4Q2+3THUDjY27+h5kBfN7Vch+hgm/+v1/RAUljY0dsTThFVghpGY0k6Kgb4j71z+ZFviOJ4zfQ8untmzMOMGYwxT8QjEu9XRLzfr16Ymeg20X+BjSAWJMSCRFgIsbJDJMLa2los/SVi5XvOt+r07Xa7teq+3Rf1uX2rm9WP+DhVp6rOuS1H9D/8KRkeh3skt2Yc43mmjQOT7bQ9pOAU1oIVwWE5F+wv4RHDfQ1Y+Vyo5YovJSXAbTqu4yud4pC8vQbTub32Rn5Ev8pNli2IOlmWDocLqysbA4J6fX5IT0f9L5msHM9szlw6V2tEMRNx7y2HGv7viv+zmuJFir7VGJ7LXEFcl7NG/wOSE4j+PYrG5YhOxSl7C99AV+l0/RxgaNLxc67VtdizpOF8vefAKVWn6fj4qu4ywnQN6BhhPEUPLZlYS4qi50f0W9yk2VlqTJYrhynAREF2q/nTkF1oPqLo1ePGhKDo+ezUGhNjdvx9bsm1rihu+2tEv0eDOfgBov+cWwWWjnPq3pLfJvo5Rt+QSRo0NZW2DpD7XLfSX+pCqzzLYHtrhEGdI4/LKO+Fa6o8Gce5O+gWnQF94hytNCbJtcNd4SIre0drvbHmSi5O40Un9cn9Y89EFpsrXPTRt17ZEr0orvprRP8tRPQfPv30h99zRe9OyIGWEuo9M+0uU3jfrkUKuovuzMcxE0e4TlfPmXbHq8JL7p3T9mxZd0nGvadLdJ26s2Ycd9d6Rb/ZTYH6JGfvs/94/nzp5VevXnNYP9g52b32H69N5+KLbxQvOvc9JsVsdBGi6fUBuD1HdB/PfwBv5IoeMu6t0GER+KiuhjdlZO817dQC1X1sB01z3FqvYWBAtzk7Rl2i4y8gu7reaclE0xnRJaDnZd1vcFNh69LGpFjvTTsXzFzcbZjJiV4ZmKgoXvTR/+3UXXGsPfoX0X08V37J771miXci83fZQUdMx0DJYbjQ1G8Yr0fjziWgd07H+bm7+A4oO9wW3/FDZMeQab32ipyXYe81LNJRd+Lzz/sl425y02F5pjEZrs65WFMoc9FldooXnSz3D51TFX2/Nuw/XJE8kys6Nf8aovfvpmpL9ZZ+RHJsr6nw8rTw0nPZWNNFehMfvALjOTjVR6M5R7wYwSmbMl3oSVhrycSz7ryQzppxeaLf6KYCq8EUTP61sGrRq4a5uPJLBYgeceVgWqKTIU/yr7pCebonGfebWE7PP/maouf1R6fjQH60JKa3zjHSb4nkqriaDs+Zc5fRB3KL58oFl+dQXUSX5ug2iWcyrrNIp+jWkkk8zxH9Kjc1KoWvFfOr0J008ihedLI11mg6Hxn0rqmN8x94JkL0qM5d1hK9UO7ujejmOciL6BbJMehXiwFdwIiATs0puqK7a/4EbDPcamEeTgeG9FMOdBxw2n5hVSeyxSH9pZaP8g/M3OWmSPGz6MWD/P3scXDZYoToYP/SMS5LViNEp1Lji+lLO9ujim4cD5d0KZjHeyI603Amem4yjobTd0NE157Jus3GzugYLBMHyzlnp+iZFbrm2iG7hnP2SMcrlvsbLcFz4JNxEN3utPRG9BvcdDksdmd5ZrnfmZHRWTroW218YtmJPRcnOutXjO+QQpTo8VeeDlzBMB+XjejUvJ/otrlmeTlqzlScPhrQ8aV6I7LLMRlEd4nmortxyg/gOp0fdktnP1UcfbUKFCb6OxCdXZNpeq/o17lpwgoGxXFFxeWztdIYmVUXITqpzo9p3l6JE50czI0r2TlG0XnMYTCbrnCe6Y7o1JzkrNH/somembgzljOcK/jR5tnXNmRn9YlMRBfDfTzvnJURzyG4VZHiJ6jO/ugf4sAM1+g5Ef1xN30KC+rHO0WGs8tdlOikAjNGZ3PNRYpOto7Hk2+LEz3+dt2uK56nu0U307/5RkR/v1t0qyzjZ+8YefgVXuNbvvBybOJpY2AyThLvIHNzzWbu1iRd+qMDCeb43bW9ZmfdNev+MUL6R/ln3W91JaCgoL5eLXLiOl+NFJ1URk0T8FZttOhkebMxMhsuQvTIOtrWh6l4bn20e+r+Nfnms296IvqblnU/4+jPwFrdCX7hh7+Rfp6Zvrd96l18V8uRj6PoMoaoDrWB+I3h1Idz7qJTdLRes04tXvS3upJxz7pycDT+bd3Fw+KWqPQ8WnRyOOo/83rFRYtuXDJiSq52pYsSPb6RPttdFM8z2YhungMT/UdfM+4siG5z95Za/jIt5+wdhD22NjfR8QoQHC+DOgbhNHz5oC6+i+TysmAceaWrOCS215B114j+bjgZV6KJO1lbX2qMk9r6mvs76tETVxaLjxedrC00RqCGlfFoopODkRKDc4cuVvT4k/hbbiI83ono9wTNxfS+WXfuoAffZfLO2ftZULzpvyA7p+3IyPE6Ol8BER0ExfEQmO6vtUi9Z/U903tNAzpFz7um+uiaKw/LVyyNT/O9/aFMuzw62V11o4lOrpkbNf8QL7pRma3Fz2uWXYTo0d2ZyLybDJWnLaKb6OD7XNENlT0M53piRjXvVI4DUB2PLwLrN9IxglAWkuXi5BuKS7U4v0hXyzl15/ydEZ0VZpB2Z++1nlYtd7tSMTbVF7bckGzUGhGsMBkUL7qxvBD/f5qRRTd2IoP6Eu4EFiC62xulfdVYl+nZiP4N+ap/RNc4rq63OGpMt+upraZl49oa0YEZboVgRXFLx/nzrzpmq8BiNLhI9xGdnVrouVxTLdUCPav6yhhSVAcuh/hSEvlVmUcXnRxcHhPOr3FkdNHJSYzqm1uuGNHr00/FkWcsosNzH8+/R0TvV3jiLGyhd9eYASz2zAGfVlsCOg+4Szyn5oaP6RhZdiIYL11U4TpFN9m19xqz7l90Ck8wopdrgZ5VfXY01VfW6+6fcUJbh2Zxt+KGEL1A1RdRFHo40YtUfebIuUJEBzODd/Mmx5Mi+gcQ3TyH6QPW6Kq6Ko4Xo2biNN9u83fO21kA9qXQuaEZYjqB5Bx4nwWDfjERZ8fiaDvG96Tcs07dEdC7RS/bAj1DlSUeopi/shKxFNtYbAzNyiVVB6JFH131Of4JhhK9ONUvw5yiONFXB+Vf9t3kuOpJP3X/xjQfJDrfUEYq3GBjdRl9mi1O3AFLu0umHTS74nl4PLyeiudUX4Ex3V9TxdQd22u8vAbT2ajFi16+Bfrorh9fve/iqJxsDxnFrl1zbryik+Vrh9zQnmedqwJEB/XZ4+HW5guHjkSLHt+dadtNkls/CKLT9B7Rvw2iW90JPuq57Kbji/P2MEJ00MYXK0mx8gSED7G83TH9gkVl7I4qqz3rCViWjvOy86y7mK5T93cz5Z7LuEAfxfWl+UvqbhT2Zy/721DKVUEhooP9jb91/VL+r6wY0Un9ir9zvba5WnUuVvTRuzOduInyBEU3zQdFdJpu19j0ErroTsPxxTW6hHSekrFluriutnPOLh9oDjAAMZynZl7pzN/hu0e213hN1dd7huZe9HIu0LupXjM7VOH22ubsYcWNzvLuwlzfGfv2Rj3vEtxCPusuiv3V9c1+sWxxYTd/wnK40IfYtWx9Y+GyWr8Z+xUn+Su+jYU+xKXIDxoktyX6ZHlBRee0Hfz0/U85Z90t3d6VjzNaQARn3YlQ0/3cV5zgLVUtISemd9bnpjoMz5x+FdmtmarCCjOcun8kogMWh3y64v4dLB9e0v8/u9ql21esHlbd+Ng62lifX1xqGEvH83uXXHNQcRMD5dO3UeN5yf4Ei/PrGydbbqJU6qvr86jxXLM/hf6rXnYTYrlWQEv0WNNVdJhO0X/KE13lJrK11ikYp70bOtP2JgvM+Lpxbas74Qu7A1/n2UaAgZFcu7XQ7wv1HC+z7uyPrhH9o+w11YdKmojrQ6V+dOXqJVesL2xvXraIKuPbC3tXzG4cbRWmX6W6vFWvby2vVdzUqOCPcLCPP8FUqe4f4N9DteImy9URLdEL40mIbp6DfttrtlLP2A6/MdjMvXMlnXP3l84tlENzQt/l7RSQkgew0aL4bWl3u9TSfdadoj9SiqssiUQfKseFtESPN/2e74PnYMAanbK3rMCM1XWXNxycOQc6bdd0HGlmRA+hnKt0loHVn8y9K6www0FqxtntNZR7BhrSk+eJknNUTEv0+E22e6g5yV5qsak7scYNbL4GKHu2rrvAGlJEjsvAeGL9FfHx9dw1oIPuenGh8gQ817bJnLqzlFQQvcQba4kE2C6mJXq86ff4PJzwa+4anak4M505OBZ75ipdR994DZr7+pAYGdVtf01DOr51EMs5cpWOFTro9GXqnHXngRkV/V0/dX/CJRJlph7REr1YrnsKnlPzX/uKTtc7u2tAZ/ECs3AI6RSd91Q1FcdDsO3QfY2OK3BcRj6Kr+puCfcQ0jNT906FmYddIlFqtgtriR5vOjXPFx1CexjTeRm9b113gFgOzQV8+6OwCmtPWO8GwnwcXlP9gudgs1l3nnXXSy0fSaeWO10iUWp2IlqiF84dT1Fz0L1GN9EZyK2wu8byv9Z1b7EbUzjwzpNxvI7e7qkDaw0WX7Hb6NYiPVSB1eE9W6Mj646NdEzdk+eJ0jNfaEv0+Nm7iT6wbTI/mWYtkJ3Lcx/LITZ054EZao6PDkD8tjqwtqcGzfUBGHnQXQYG9FdR113LPcPzL9ioJXmeKD2HRbdEjzf9V2XgfXTO3c10bqBjkLHZ1JfnZZh3DxdVYXoXzMSp7IPrunPmLh0ceNQdJ2bgeVqfJ0rPZlwfpuK56jnR/Lff+mbd5cOvll+o59Z1Pyc6a2+eq+VwHiMFt7m70FvX/ZVsXfcLzcdpWXeJ6GzJhJD+Vsq3J0pP/z30uaqbJjT9t19/y4vo2VQ7LcegmrORKkZEc3xJ+r1ttaRY/bXtv+C3JOIyovObvRVDHdiwiW7VnlkcMpOMS/vnidJTuaz44q/xpj+PgJ4vOuF1lpYl5fyddKbbNaxb0p2tGzDgxSAR3Rqv8b1gFOfAbDtHKn7BSTzQiA7P2U31oXQeLjFllvcq7m9YKEfFiX48/1fR3+yUe85uprf8SVjA7XNGc8A1OqHkPhXXtK7J2TqwLPZMz1/FL8ithBMzPBlnt9eS54mps85eeAOYbTRKdcz9L7yYG9HNcSousTz0VO1Ax2XkA3glPXunpd1x3dJx/poqHk26q+GM7Aqn7t705Hli6uwv4T553Q1gt9Eo1zH3HNMHTd0pewuyt+weeoucsS4kH7FbikmFzDsVt+7oNJ2I6LBbbRfHZQzBnKYzorOb6n1Vl0hMmb0GWFqtuH7sLDVKureW4bqHBpZ7BvqL8ZzGazg/E+dDEk5eDeXsj463SdlDMo6PLNQ1DcdjcTRdJafobNQiFWYoeto+T0yfrZpX9sTlU0eFn7LurWWo3tfvCGynvyIG1oyzis/WkgmPfqC6PtBbHzn72vSS2yqdvZLx8rKqXmbBxxef6DRZfP1LnIx7KKXbEyVgrxHYrOfl26+uNfqzWKY56b1e9O+y++hmuzxqO3XXfXRWgJWR9Z55KA5fzME1w7Rd3zYG20jHI+tzXmBjyh0/guTyJRFdknFp2p4oAxrQTfVr93s0371s6p2Sh+fuh/IjOt4WTbepu1qOoI6Xd9f08hplt8oTL/Hba07H1XVTXVxnMk4dx0cH9RyFJzBzT9P2RCno3TjbvKS+5sjayRWLjYHMuHJRvS+nlJQVheTILXS/Pm/KAl132VgDlk1VdYWOj26uWUS3qTsfrs45defmOX6o6Jn+6GnanigHB3kT86XjzcvnZ44bpPwp9wx39opuVWDFb6be9WEuLvRNxqeptHlshp1a2py+h80167LIVTpefqnjprv1R8elljRtT5SEIbrRlH0PvXf6ntupxaTHLwZ0noK1fFz3NrpWe9bT7qciuhWMU6+pt2biCPwmMNwOzED0NG1PlISDxgjUtlwJqdz5dvcaXb/1t15OxRCW6KBlZ+MAd9DxHSrA6oC0exueA4yctOObxgO9vmamM54r96VDMomyMExAL/Ep93xuva+nrjtvqLKhgyXdz5l3xw+M3FgLzVp4WqYpj52L40eGi9A42epNiOf6BtfBY+lOaqI01BsjMFfeNgQPP0bRuxukS2kZxnMA10V1wL4NwLo4qOpNoJZLWGdAt0KwvmMLHc8eg7WAfvu/pRdL4v/AEF0sS9Nu7R9Rvf3NzBqdgyXeobs+UBxy2zY6/W437eGdlqB4Wx33eTjznOgxmXA2Dtyfku2JErHzX5y4e+6+30d0s139FmB2aLIoM/YWgObivN1o4aenazI+wPqvQXO+kFz+Dhzn57F7XSJRIkYJ6Juln5ve+4BpzkDOJg5WeEJehnJupLckD4dXP5qMk1djuSlvDdIRxmUE6jlexnQ8t6c9tUSpGCWgz5XhGvrfUL3zAdtV4865yE7T8YrqQtNXk9IvfOTVHXTJxzHtzmhuYCv9Fbu/BpiRYx7u9pRrT5SM+UY8R+7fQOXeB85C42R5iUhul9LPhWA5gN4c9V6LWN61Uuci3fbW+C3FX4VXr0+aJ0rHYSOeWfcvoXLvgy+fmencWiNqN0VHUOfems7dgUhOz/GY5RjCYRkdwrydh+JeTZonSslmI5p19+8BqrMArNjuR4byM33OO6dlhJcY1FlJqsv0tibieACW91r4+JpxSfNEKTn4H8Rzz8M+qp9lV+gs744vX/Q5C4+6+2k7XiJ2c8h0Y4LoMlx/Z0rBJcrJNSuNODbcv44nbn+NG+msDxkkF8ebDO/NcGBGxJavpu+uCFR3v8Fm3VqoO+P5/fcmzROlZeuyRgS1ct1BH5bqvfefESsDq55Tc7vUYkdm8PGKn2aur6nmVvD5Fa098didac6eKDXVvcY/ZuUa92/l1jsfFMu95xh0fX6mBd1puT8ogxduE67Rqbq1U7V2LViZp0NwifKzuvRPb6b+2d7ZrDYMw3A8tKPrRjZI2UcpIRD2Ueg1GFNsjDGB0vMuOY2Bn2DHvf0UWzFjsC3s0trVL4mdB4iQZEX6R1A//4Ut02EOLDp0r49u4cEhM0E52Q5l9A6ecCaHONU11R79b0ME0VPPLl7Gcx6vOx+Ytsx46TVYYHVZOvau9ZsNoskuW+9xa2e9lQd/rqWgkJ2Ih9titFcvEjlyagTTr4AfJxW6WqwL4oHe0MMcqa+F9Dc8h9soThE7ERv55GpMcl7VWUI0Qmqsobsw3rt1uO3gzL14shda7IKMgzNyCtiJKJlf/3UAf7c+3u7zf7MVTIG1Y3YO+PY1uPyOwsmhzrYxku/JyImYycvZjyNfH6tllixzMHdp3l1+jhbuXrx9Y9S+U0zsKSUn0qBe3599Hwh7s3rOsxOgaQXnjEmpjNHafuidUUoyxrloKVQnkmOaXz6Ui1VVTBbl07I+3Cf+CRWg2ejcJux2AAAAAElFTkSuQmCC;" vertex="1" parent="49">
                    <mxGeometry x="180" y="266" width="60" height="15.06" as="geometry"/>
                </mxCell>
                <mxCell id="69" value="" style="shape=image;verticalLabelPosition=bottom;labelBackgroundColor=#ffffff;verticalAlign=top;aspect=fixed;imageAspect=0;image=data:image/svg+xml,PHN2ZyB4bWxucz0iaHR0cDovL3d3dy53My5vcmcvMjAwMC9zdmciIHhtbG5zOnhsaW5rPSJodHRwOi8vd3d3LnczLm9yZy8xOTk5L3hsaW5rIiB2aWV3Qm94PSIwIDAgMzY4LjY5IDEyNS41OSI+PGRlZnM+PHN0eWxlPi5jbHMtMXtmaWxsOm5vbmU7fS5jbHMtMntjbGlwLXBhdGg6dXJsKCNjbGlwLXBhdGgpO30uY2xzLTN7ZmlsbDojYTMyNDIyO30uY2xzLTR7ZmlsbDojZGMzODJjO30uY2xzLTV7ZmlsbDojZmZmO30uY2xzLTZ7ZmlsbDojNzQxMTEzO30uY2xzLTd7ZmlsbDojYWMyNzI0O30uY2xzLTh7ZmlsbDojNDk0YzRkO308L3N0eWxlPjxjbGlwUGF0aCBpZD0iY2xpcC1wYXRoIiB0cmFuc2Zvcm09InRyYW5zbGF0ZSgwLjAxIDAuMDEpIj48cmVjdCBjbGFzcz0iY2xzLTEiIHdpZHRoPSIxNDYuNDIiIGhlaWdodD0iMTI1LjQ4Ii8+PC9jbGlwUGF0aD48L2RlZnM+PGcgaWQ9IkxheWVyXzIiIGRhdGEtbmFtZT0iTGF5ZXIgMiI+PGcgaWQ9IkxheWVyXzEtMiIgZGF0YS1uYW1lPSJMYXllciAxIj48ZyBjbGFzcz0iY2xzLTIiPjxwYXRoIGNsYXNzPSJjbHMtMyIgZD0iTTE0MC42Niw5Ni43NGMtNy44LDQuMDgtNDguMjgsMjAuNzMtNTcsMjUuM3MtMTMuMzksNC40NC0yMC4yMSwxLjE4UzEzLjcsMTAyLjUsNS45Miw5OC43OEMyLDk2Ljk0LDAsOTUuMzcsMCw5My45Vjc5LjA5UzU2LjA4LDY2LjkyLDY1LjEzLDYzLjY0LDc3LjMxLDYwLjI4LDg1LDYzLjEsMTM4Ljc5LDc0LjI0LDE0Ni40LDc3VjkxLjZjMCwxLjUyLTEuNzUsMy01Ljc0LDUuMTNaIiB0cmFuc2Zvcm09InRyYW5zbGF0ZSgwLjAxIDAuMDEpIi8+PHBhdGggY2xhc3M9ImNscy00IiBkPSJNMTQwLjY2LDgyYy03LjgsNC4wNi00OC4yOCwyMC43MS01NywyNS4ycy0xMy4zOSw0LjQ1LTIwLjIxLDEuMlMxMy43LDg3LjY5LDUuOTIsODRzLTcuOTMtNi4yNy0uMy05LjI1UzU2LjA4LDU1LDY1LjEzLDUxLjcsNzcuMzEsNDguMzMsODUsNTEuMTYsMTMzLDcwLDE0MC41Nyw3Mi43OXM3LjkyLDUuMDguMDksOS4xM1oiIHRyYW5zZm9ybT0idHJhbnNsYXRlKDAuMDEgMC4wMSkiLz48cGF0aCBjbGFzcz0iY2xzLTMiIGQ9Ik0xNDAuNjYsNzIuNjJjLTcuOCw0LjA3LTQ4LjI4LDIwLjcxLTU3LDI1LjJTNzAuMzEsMTAyLjI3LDYzLjQ5LDk5LDEzLjcsNzguMzcsNS45Miw3NC42NkMyLDcyLjgsMCw3MS4yNCwwLDY5Ljc2VjU1UzU2LjA4LDQyLjc5LDY1LjEzLDM5LjUxLDc3LjMxLDM2LjE0LDg1LDM5LDEzOC43OSw1MC4xLDE0Ni40LDUyLjg4djE0LjZDMTQ2LjQsNjksMTQ0LjY1LDcwLjUyLDE0MC42Niw3Mi42MloiIHRyYW5zZm9ybT0idHJhbnNsYXRlKDAuMDEgMC4wMSkiLz48cGF0aCBjbGFzcz0iY2xzLTQiIGQ9Ik0xNDAuNjYsNTcuODFjLTcuOCw0LjA4LTQ4LjI4LDIwLjcyLTU3LDI1LjIxcy0xMy4zOSw0LjQ2LTIwLjIxLDEuMlMxMy43LDYzLjU3LDUuOTIsNTkuODUtMiw1My42LDUuNjIsNTAuNjJzNTAuNDYtMTkuNzksNTkuNTEtMjNTNzcuMzEsMjQuMjEsODUsMjcsMTMzLDQ1Ljk0LDE0MC41Nyw0OC42NXM3LjkyLDUuMDkuMDksOS4xM1oiIHRyYW5zZm9ybT0idHJhbnNsYXRlKDAuMDEgMC4wMSkiLz48cGF0aCBjbGFzcz0iY2xzLTMiIGQ9Ik0xNDAuNjYsNDcuNTljLTcuOCw0LjA4LTQ4LjI4LDIwLjczLTU3LDI1LjIxUzcwLjMxLDc3LjI1LDYzLjQ5LDc0LDEzLjcsNTMuMzQsNS45Miw0OS42M0MyLDQ3Ljc5LDAsNDYuMjIsMCw0NC43NFYyOS45M1M1Ni4wOCwxNy43Niw2NS4xMywxNC40OSw3Ny4zMSwxMS4xMiw4NSwxMy45NHM1My43NywxMS4xNCw2MS4zOCwxMy45MnYxNC42QzE0Ni40LDQ0LDE0NC42NSw0NS41LDE0MC42Niw0Ny41OVoiIHRyYW5zZm9ybT0idHJhbnNsYXRlKDAuMDEgMC4wMSkiLz48cGF0aCBjbGFzcz0iY2xzLTQiIGQ9Ik0xNDAuNjYsMzIuOGMtNy44LDQtNDguMjgsMjAuNzUtNTcsMjUuMnMtMTMuMzksNC40NC0yMC4yMSwxLjJTMTMuNywzOC41Myw1LjkyLDM0Ljgzcy03LjkzLTYuMjctLjMtOS4yNVM1Ni4wOCw1LjgsNjUuMTMsMi41NCw3Ny4zMS0uODIsODUsMiwxMzMsMjAuODUsMTQwLjU3LDIzLjYzczcuOTIsNS4wOS4wOSw5LjE0WiIgdHJhbnNmb3JtPSJ0cmFuc2xhdGUoMC4wMSAwLjAxKSIvPjwvZz48cG9seWdvbiBjbGFzcz0iY2xzLTUiIHBvaW50cz0iNzUuNTEgMTEuNzggODUuMTcgOC42MSA4Mi41NSAxNC44NyA5Mi4zOCAxOC41NSA3OS43MSAxOS44NyA3Ni44NiAyNi43MSA3Mi4yOCAxOS4wOCA1Ny42MyAxNy43NiA2OC41NyAxMy44MiA2NS4yOCA3Ljc2IDc1LjUxIDExLjc4IDc1LjUxIDExLjc4IDc1LjUxIDExLjc4Ii8+PHBvbHlnb24gY2xhc3M9ImNscy01IiBwb2ludHM9Ijc2LjEyIDUxLjcxIDUyLjQ0IDQxLjg4IDg2LjM2IDM2LjY3IDc2LjEyIDUxLjcxIDc2LjEyIDUxLjcxIDc2LjEyIDUxLjcxIi8+PHBhdGggY2xhc3M9ImNscy01IiBkPSJNNDMuMjgsMjIuMzRjMTAsMCwxOC4xMywzLjE1LDE4LjEzLDdzLTguMTUsNy0xOC4xMyw3LTE4LjE0LTMuMTUtMTguMTQtN1MzMy4yNywyMi4zNCw0My4yOCwyMi4zNFoiIHRyYW5zZm9ybT0idHJhbnNsYXRlKDAuMDEgMC4wMSkiLz48cG9seWdvbiBjbGFzcz0iY2xzLTYiIHBvaW50cz0iMTA3LjM5IDIwLjQyIDEyNy40NiAyOC4zNSAxMDcuNDEgMzYuMjggMTA3LjM5IDIwLjQyIDEwNy4zOSAyMC40MiAxMDcuMzkgMjAuNDIiLz48cG9seWdvbiBjbGFzcz0iY2xzLTciIHBvaW50cz0iMTA3LjM5IDIwLjQyIDEwNy40MSAzNi4yOCAxMDUuMjMgMzcuMTMgODUuMTcgMjkuMiAxMDcuMzkgMjAuNDIgMTA3LjM5IDIwLjQyIDEwNy4zOSAyMC40MiIvPjxwYXRoIGNsYXNzPSJjbHMtOCIgZD0iTTE5Myw0MS40YTE3LjM2LDE3LjM2LDAsMCwxLDYuMjMtNC4zNCwyMCwyMCwwLDAsMSw3LjMtMS42MSw2LjcxLDYuNzEsMCwwLDEsNSwxLjYxLDUsNSwwLDAsMSwxLjUyLDMuNzksNS4zOSw1LjM5LDAsMCwxLTEuNTIsMy43OSw0LjksNC45LDAsMCwxLTMuNzksMS42M2MtNi4yNC41NS0xNC45LDYuNzctMTQuOSwxNS4yMlY4MC42N2E1LjU3LDUuNTcsMCwwLDEtNS40Miw1LjQxLDQuOTIsNC45MiwwLDAsMS0zLjg3LTEuNjcsNS4zNiw1LjM2LDAsMCwxLTEuNjItMy43OXYtNDBhNS4zNSw1LjM1LDAsMCwxLDEuNjItMy43OSw3LjIsNy4yLDAsMCwxLDQuMDctMS4zNiw1LjUyLDUuNTIsMCwwLDEsNS40MSw1LjRaIiB0cmFuc2Zvcm09InRyYW5zbGF0ZSgwLjAxIDAuMDEpIi8+PHBhdGggY2xhc3M9ImNscy04IiBkPSJNMjU4LjcxLDU5YTUuMjUsNS4yNSwwLDAsMS0xLjM1LDMuNTQsNi4xMSw2LjExLDAsMCwxLTMuNzksMS42MmgtMzJhMTAuMzEsMTAuMzEsMCwwLDAsMy40Nyw2LjU2LDE0LjQ2LDE0LjQ2LDAsMCwwLDkuNDgsNC41NywxNC4wNywxNC4wNywwLDAsMCwxMC41Ni0yLjQ0LDUuNTIsNS41MiwwLDAsMSw0LjA3LTEuNjMsNC42NSw0LjY1LDAsMCwxLDMuNTEsMS4zNiw0LjQxLDQuNDEsMCwwLDEsLjI2LDYuMjRjLS4wOC4wOS0uMTcuMTctLjI2LjI2YTI0LjQ5LDI0LjQ5LDAsMCwxLTE3LjU5LDYuNUEyMywyMywwLDAsMSwyMTcuNSw3OGEyNi42NywyNi42NywwLDAsMS03LjMtMTcuOSwyNC4zMSwyNC4zMSwwLDAsMSw3LjMtMTcuODgsMjIuNTksMjIuNTksMCwwLDEsMTcuMDYtNy4zMSwyMiwyMiwwLDAsMSwxNi43NCw2Ljc4LDI0Ljc4LDI0Ljc4LDAsMCwxLDcuNjEsMTYuNzR2LjUzWm0tMjQuMS0xNC4zNWExNC4yLDE0LjIsMCwwLDAtOS4xMywzLjUzLDEzLjE3LDEzLjE3LDAsMCwwLTQuMzMsN2gyOC40M2ExMi4zOSwxMi4zOSwwLDAsMC00Ljg4LTYuNzYsMTcuMywxNy4zLDAsMCwwLTEwLTMuODEiIHRyYW5zZm9ybT0idHJhbnNsYXRlKDAuMDEgMC4wMSkiLz48cGF0aCBjbGFzcz0iY2xzLTgiIGQ9Ik0zMDkuNjYsODAuMTJhNS41Nyw1LjU3LDAsMCwxLTUuNDEsNS40Miw1Ljg1LDUuODUsMCwwLDEtNS40Mi00LjM0QTIzLjIzLDIzLjIzLDAsMCwxLDI4NSw4NS41NGEyMy41NywyMy41NywwLDAsMS0xNy4zMy03LjMxLDI0LjE0LDI0LjE0LDAsMCwxLTcuMDUtMTcuODgsMjUuNzUsMjUuNzUsMCwwLDEsNy4wNS0xNy44N0EyMy44NSwyMy44NSwwLDAsMSwyODUsMzQuODdhMjIuMzQsMjIuMzQsMCwwLDEsMTMuNTMsNC4zNFYyMC4yOGE0LjkyLDQuOTIsMCwwLDEsMS42My0zLjc5QTUuMzcsNS4zNywwLDAsMSwzMDQsMTQuODZhNC45Miw0LjkyLDAsMCwxLDMuNzksMS42Myw1LjM2LDUuMzYsMCwwLDEsMS42MywzLjc5VjgwLjEyWk0yODUuMzEsNzQuN2ExMiwxMiwwLDAsMCw5LjQ3LTQuMzIsMTQuNCwxNC40LDAsMCwwLDAtMjBBMTMsMTMsMCwwLDAsMjg1LjMxLDQ2YTExLjY1LDExLjY1LDAsMCwwLTkuNDgsNC4zNCwxNC40LDE0LjQsMCwwLDAsMCwyMCwxMi40OSwxMi40OSwwLDAsMCw5LjQ4LDQuMzIiIHRyYW5zZm9ybT0idHJhbnNsYXRlKDAuMDEgMC4wMSkiLz48cGF0aCBjbGFzcz0iY2xzLTgiIGQ9Ik0zMjUuNjcsMjAuMjh2Mi4xOEE1LjUsNS41LDAsMCwxLDMyNCwyNi41OGE0LjY0LDQuNjQsMCwwLDEtMy43OSwxLjM1LDQuODYsNC44NiwwLDAsMS0zLjc4LTEuNjEsNS40NCw1LjQ0LDAsMCwxLTEuNjMtNC4wNnYtMmE1LjI4LDUuMjgsMCwwLDEsMS42My0zLjc5LDUuMzMsNS4zMywwLDAsMSwzLjc4LTEuNjNBNSw1LDAsMCwxLDMyNCwxNi40OWE0LjksNC45LDAsMCwxLDEuNjYsMy43OW0tOS4xMywxNi41M2E1LjI4LDUuMjgsMCwwLDEsMy43OS0xLjYzLDQuODUsNC44NSwwLDAsMSwzLjc5LDEuNjMsNS40OCw1LjQ4LDAsMCwxLDEuNTUsNFY4MC40MkE0LjU1LDQuNTUsMCwwLDEsMzI0LDg0LjIxYTUuMzMsNS4zMywwLDAsMS0zLjc4LDEuNjMsNC45LDQuOSwwLDAsMS0zLjc5LTEuNjMsNS4yOCw1LjI4LDAsMCwxLTEuNjMtMy43OVY0MC44NWE1LjM5LDUuMzksMCwwLDEsMS42My00IiB0cmFuc2Zvcm09InRyYW5zbGF0ZSgwLjAxIDAuMDEpIi8+PHBhdGggY2xhc3M9ImNscy04IiBkPSJNMzY0LjA4LDQwLjZhNS4yOSw1LjI5LDAsMCwxLDIuMTcsMy4yNCw3LjE3LDcuMTcsMCwwLDEtLjU0LDQuMDYsNS40LDUuNCwwLDAsMS0zLjI1LDIuMTYsNS42MSw1LjYxLDAsMCwxLTQuMDctLjgxYy0zLjc5LTIuNDMtNi43NS0zLjc4LTkuMi0zLjc4YTguNzQsOC43NCwwLDAsMC02LDEuODhjLTEuMDguODItMS42MiwxLjM2LTEuNjIsMS45YTIsMiwwLDAsMCwuMjcsMS4zNiwzLjc0LDMuNzQsMCwwLDAsMS4wOC44MSwxNi4xOSwxNi4xOSwwLDAsMCw3LjMyLDIuNDNoMGEzNy43NSwzNy43NSwwLDAsMSw5Ljc0LDMsMTMuNTcsMTMuNTcsMCwwLDEsNi41LDUuNywxMy40NiwxMy40NiwwLDAsMS00LjA2LDE4LjY3LDIxLjc5LDIxLjc5LDAsMCwxLTEzLDQuMDZjLTYuMjMsMC0xMi4xOC0yLjQzLTE3Ljg3LTdhNS43Nyw1Ljc3LDAsMCwxLTEuOS0zLjUzLDUuMiw1LjIsMCwwLDEsOC40LTQuNTYsMTUuNzMsMTUuNzMsMCwwLDAsMTEuMSw0LjMzLDExLjYxLDExLjYxLDAsMCwwLDYuNzctMS45YzEuMDgtMS4wOCwxLjktMS44OSwxLjktMi43MXMwLTEuMDgtLjI3LTEuMzVjMC0uMjgtLjU1LS44MS0xLjM2LTEuMDhhMjAuMTUsMjAuMTUsMCwwLDAtOC4xMy0yLjg2aDBhMjguMjYsMjguMjYsMCwwLDEtOS4yLTMsMTYuNTYsMTYuNTYsMCwwLDEtNi41LTUuNjcsMTIuNjEsMTIuNjEsMCwwLDEtMS42MS02LjIzLDEzLjMsMTMuMywwLDAsMSw1Ljk1LTExLjExLDIxLjgyLDIxLjgyLDAsMCwxLDEyLjQ1LTMuNzljNC41Ni4yOCw5LjQ4LDIuMTYsMTQuODksNS42OSIgdHJhbnNmb3JtPSJ0cmFuc2xhdGUoMC4wMSAwLjAxKSIvPjwvZz48L2c+PC9zdmc+;" vertex="1" parent="49">
                    <mxGeometry x="532" y="101.45" width="54.33" height="18.55" as="geometry"/>
                </mxCell>
                <mxCell id="70" value="" style="shape=image;verticalLabelPosition=bottom;labelBackgroundColor=#ffffff;verticalAlign=top;aspect=fixed;imageAspect=0;image=data:image/svg+xml,PHN2ZyB4bWxucz0iaHR0cDovL3d3dy53My5vcmcvMjAwMC9zdmciIHdpZHRoPSIyNTYiIGhlaWdodD0iMTMzIiB2aWV3Qm94PSIwIDAgMjA0LjggMTA1Ljc2NSI+PHBhdGggZD0iTTAgOTYuMzM0aDYuNzQ3VjY5LjdsMTAuNDQ1IDIzLjIyN2MxLjIzMiAyLjggMi45MiAzLjgwNiA2LjIyOCAzLjgwNnM0LjkzLS45OTUgNi4xNjQtMy44MDZMNDAuMDMgNjkuN3YyNi42NDRoNi43NDh2LTI2LjZjMC0yLjU5NS0xLjA0LTMuODUtMy4xOC00LjQ5OC01LjEyNS0xLjYtOC41NjQtLjIxNi0xMC4xMiAzLjI0NGwtMTAuMjUgMjIuOTIzTDEzLjMgNjguNDhjLTEuNDkyLTMuNDYtNC45OTUtNC44NDQtMTAuMTItMy4yNDRDMS4wMzggNjUuODg1IDAgNjcuMTQgMCA2OS43MzR2MjYuNnptNTIuMzg2LTIxLjY4Nmg2Ljc0NXYxNC42OGMtLjA2My43OTguMjU2IDIuNjcgMy45NTIgMi43MjcgMS44ODYuMDMgMTQuNTU0IDAgMTQuNjcyIDB2LTE3LjQ4aDYuNzZjLjAzIDAtLjAwNyAyMy44MzQtLjAwNiAyMy45MzYuMDM3IDUuODc4LTcuMjk0IDcuMTU1LTEwLjY3MiA3LjI1NEg1Mi41MzN2LTQuNTRsMjEuMzQyLS4wMDFjNC4zNDItLjQ2IDMuODMtMi42MTcgMy44My0zLjM0NHYtMS43N2gtMTQuMzRjLTYuNjcyLS4wNi0xMC45Mi0yLjk3My0xMC45NzMtNi4zMjMtLjAwNS0uMy4xNDQtMTQuOTk1LS4wMDQtMTUuMTR6IiBmaWxsPSIjMDA2MThhIi8+PHBhdGggZD0iTTg5LjcxNiA5Ni4zMzRoMTkuMzk4YzIuMjcgMCA0LjQ3Ny0uNDc1IDYuMjMtMS4yOTggMi45Mi0xLjM0IDQuMzQ3LTMuMTU3IDQuMzQ3LTUuNTM2di00LjkzYzAtMS45NDctMS42MjItMy43NjMtNC44LTQuOTc0LTEuNjg3LS42NS0zLjc2My0uOTk1LTUuNzc0LS45OTVoLTguMTc1Yy0yLjcyNCAwLTQuMDIyLS44MjItNC4zNDYtMi42MzgtLjA2NS0uMjE2LS4wNjUtLjQtLjA2NS0uNjA2di0zLjA3YzAtLjE3MyAwLS4zNDcuMDY1LS41NjMuMzI0LTEuMzg0IDEuMDM4LTEuNzc0IDMuNDM4LTIgLjE5NSAwIC40NTQtLjA0NC42NS0uMDQ0aDE5LjI2OHYtNC40OTdoLTE4Ljk0NGMtMi43MjUgMC00LjE1Mi4xNzMtNS40NS41NjJDOTEuNTMyIDY3IDg5Ljc4IDY5IDg5Ljc4IDcyLjQ2djMuOTM2YzAgMy4wMjggMy40NCA1LjYyMyA5LjIxMiA2LjIyOC42NS4wNDMgMS4yOTguMDg2IDEuOTQ2LjA4Nmg3LjAwN2MuMjYgMCAuNTIgMCAuNzE0LjA0NCAyLjE0LjE3MyAzLjA1LjU2MiAzLjY5OCAxLjM0LjQuNC41Mi43OC41MiAxLjJ2My45MzZjMCAuNDc2LS4zMjQgMS4wODItLjk3MyAxLjYtLjU4NC41Mi0xLjU1Ny44NjUtMi44NTUuOTUyLS4yNiAwLS40NTQuMDQzLS43MTMuMDQzaC0xOC42MnY0LjQ5OHptNzIuMDY0LTcuODI4YzAgNC42MjggMy40MzggNy4yMjMgMTAuMzggNy43NDJhMjkuNDUgMjkuNDUgMCAwIDAgMS45NDYuMDg2aDE3LjU4MnYtNC40OThoLTE3LjcxMmMtMy45NTcgMC01LjQ1LS45OTUtNS40NS0zLjM3NHYtMjMuMjdoLTYuNzQ3djIzLjMxMnptLTM3Ljc4NS4yMzRWNzIuNzA1YzAtNC4wNzQgMi44Ni02LjU0NSA4LjUxNi03LjMyNWExMi45NCAxMi45NCAwIDAgMSAxLjgyMS0uMTNoMTIuODA3YTEzLjg3IDEzLjg3IDAgMCAxIDEuODg2LjEzYzUuNjU2Ljc4IDguNTE2IDMuMjUgOC41MTYgNy4zMjVWODguNzRjMCAzLjMwNS0xLjIxNSA1LjA3NC00LjAxNSA2LjIyN2w2LjY0NiA2aC03LjgzNGwtNS4zNzctNC44NTQtNS40MTMuMzQzaC03LjIxNmMtMS4yMzUgMC0yLjUzNS0uMTc0LTMuOTY2LS41NjQtNC4zLTEuMTctNi4zNy0zLjQyNC02LjM3LTcuMTUyem03LjI4My0uNGMwIC4yMTcuMDY1LjQzMy4xMy42OTQuNCAxLjg2NCAyLjE0NSAyLjkwNCA0LjggMi45MDRoNi4xM2wtNS42My01LjA4M2g3LjgzNGw0LjkgNC40MzNjLjkwNS0uNDgyIDEuNS0xLjIyIDEuNy0yLjE2Ny4wNjUtLjIxNi4wNjUtLjQzMy4wNjUtLjY1VjczLjA5NmMwLS4xNzMgMC0uNC0uMDY1LS42MDctLjQtMS43MzMtMi4xNDYtMi43My00Ljc0Ni0yLjczSDEzNi4yMmMtMyAwLTQuOTQgMS4zLTQuOTQgMy4zMzd2MTUuMjU2eiIgZmlsbD0iI2U0OGUwMCIvPjxnIGZpbGw9IiMwMDYxOGEiPjxwYXRoIGQ9Ik0xOTcuNjI0IDU3LjczYy00LjE0Ny0uMTEyLTcuMzE2LjI3My0xMC4wMjQgMS40MTUtLjc3LjMyNS0xLjk5Ny4zMzMtMi4xMjMgMS4yOTguNDIzLjQ0My40OSAxLjEwNS44MjUgMS42NS42NDcgMS4wNDcgMS43NCAyLjQ1IDIuNzEzIDMuMTg0IDEuMDY0LjgwMyAyLjE2IDEuNjYzIDMuMzAzIDIuMzYgMi4wMyAxLjIzOCA0LjI5NiAxLjk0NSA2LjI1IDMuMTg0IDEuMTUyLjczIDIuMjk2IDEuNjUgMy40MiAyLjQ3Ni41NTUuNDA4LjkzIDEuMDQyIDEuNjUgMS4yOTd2LS4xMThjLS4zOC0uNDgzLS40NzctMS4xNDctLjgyNS0xLjY1bC0xLjUzMy0xLjUzM2MtMS41LTItMy40MDItMy43MzctNS40MjUtNS4xOS0xLjYxMy0xLjE1OC01LjIyNC0yLjcyMi01Ljg5Ny00LjZsLS4xMTgtLjExOGMxLjE0NC0uMTMgMi40ODMtLjU0MyAzLjU0LS44MjUgMS43NzMtLjQ3NSAzLjM1OC0uMzUzIDUuMTktLjgyNWwyLjQ3Ny0uNzA4di0uNDcyYy0uOTI2LS45NS0xLjU4Ni0yLjIwNy0yLjU5NS0zLjA2Ni0yLjY0LTIuMjUtNS41MjMtNC40OTUtOC40OS02LjM3LTEuNjQ2LTEuMDQtMy42OC0xLjcxNC01LjQyNS0yLjU5NS0uNTg3LS4yOTYtMS42MTgtLjQ1LTIuMDA1LS45NDQtLjkxNi0xLjE2OC0xLjQxNS0yLjY1LTIuMTIyLTQtMS40OC0yLjg1LTIuOTM0LTUuOTY0LTQuMjQ2LTguOTYzLS44OTUtMi4wNDUtMS40OC00LjA2Mi0yLjU5NC01Ljg5Ny01LjM1NS04LjgwNC0xMS4xMi0xNC4xMTgtMjAuMDQ4LTE5LjM0LTEuOS0xLjExLTQuMTg3LTEuNTUtNi42MDUtMi4xMjNsLTMuODkyLS4yMzZjLS43OTItLjMzLTEuNjE2LTEuMy0yLjM2LTEuNzctMi45NTgtMS44Ny0xMC41NDUtNS45MzMtMTIuNzM2LS42LTEuMzgzIDMuMzczIDIuMDY3IDYuNjY0IDMuMzAyIDguMzc0Ljg2NiAxLjIgMS45NzYgMi41NDMgMi41OTQgMy44OTIuNDA3Ljg4Ni40NzggMS43NzUuODI2IDIuNzEzLjg1NyAyLjMgMS42MDMgNC44MjMgMi43MTIgNi45NTguNTYgMS4wOCAxLjE3OCAyLjIxOCAxLjg4NyAzLjE4NC40MzUuNTkzIDEuMTguODU0IDEuMjk3IDEuNzctLjcyOCAxLjAyLS43NyAyLjYtMS4xOCAzLjg5Mi0xLjg0MyA1LjgxMi0xLjE0OCAxMy4wMzUgMS41MzMgMTcuMzM3LjgyMyAxLjMyIDIuNzYgNC4xNTIgNS40MjUgMy4wNjYgMi4zMy0uOTUgMS44LTMuODkgMi40NzctNi40ODYuMTUtLjU5LjA1OC0xLjAyLjM1NC0xLjQxNXYuMTE4bDIuMTIzIDQuMjQ1YzEuNTcgMi41MyA0LjM2IDUuMTc1IDYuNzIyIDYuOTYgMS4yMjUuOTI1IDIuMiAyLjUyNSAzLjc3NCAzLjA2NnYtLjExOGgtLjExOGMtLjMwNy0uNDgtLjc4Ny0uNjc3LTEuMTgtMS4wNi0uOTIzLS45MDUtMS45NS0yLjAzLTIuNzEzLTMuMDY2LTIuMTUtMi45MTgtNC4wNDgtNi4xMS01Ljc3OC05LjQzNS0uODI2LTEuNTg3LTEuNTQ1LTMuMzM4LTIuMjQtNC45NTMtLjI2OC0uNjIzLS4yNjUtMS41NjQtLjgyNS0xLjg4Ny0uNzYzIDEuMTg0LTEuODg3IDIuMTQtMi40NzcgMy41MzgtLjk0NCAyLjIzNC0xLjA2NiA0Ljk1OC0xLjQxNSA3Ljc4NC0uMjA3LjA3NC0uMTE1LjAyMy0uMjM2LjExOC0xLjY0Mi0uMzk2LTIuMjItMi4wODctMi44My0zLjUzOC0xLjU0NC0zLjY3LTEuODMtOS41NzYtLjQ3Mi0xMy43OTguMzUtMS4wOTIgMS45NC00LjUzNCAxLjI5Ny01LjU0My0uMzA3LTEuMDA3LTEuMzItMS42LTEuODg3LTIuMzYtLjctLjk1LTEuNDAyLTIuMjA0LTEuODg3LTMuMzAyLTEuMjY0LTIuODYtMS44NTQtNi4wNy0zLjE4NC04Ljk2My0uNjM2LTEuMzgyLTEuNzEtMi43OC0yLjU5NC00LS45NzgtMS4zNi0yLjA3My0yLjM2NC0yLjgzLTQtLjI3LS41ODUtLjYzNi0xLjUyLS4yMzYtMi4xMjNhLjkzLjkzIDAgMCAxIC43MDgtLjcwOGMuNjg0LS41MjcgMi41OS4xNzUgMy4zMDIuNDcyIDEuODkuNzg2IDMuNDcgMS41MzQgNS4wNzIgMi41OTUuNzcuNSAxLjU0NyAxLjQ5NiAyLjQ3NiAxLjc3aDEuMDZjMS42Ni4zODIgMy41Mi4xMiA1LjA3LjU5IDIuNzQyLjgzMyA1LjE5OCAyLjEzIDcuNDMgMy41MzggNi43OTggNC4yOTIgMTIuMzU1IDEwLjQwMiAxNi4xNTcgMTcuNy42MTIgMS4xNzMuODc2IDIuMjk0IDEuNDE1IDMuNTM4IDEuMDg3IDIuNSAyLjQ1NiA1LjA5MyAzLjUzOCA3LjU0NyAxLjA4IDIuNDUgMi4xMyA0LjkyIDMuNjU2IDYuOTU4LjgwMiAxLjA3IDMuOSAxLjY0NiA1LjMwNyAyLjI0Ljk4Ny40MTcgMi42MDMuODUyIDMuNTM4IDEuNDE1IDEuNzg1IDEuMDc3IDMuNTE1IDIuMzYgNS4xOSAzLjU0LjgzNy41OSAzLjQxIDEuODgzIDMuNTM4IDIuOTQ4eiIvPjxwYXRoIGQ9Ik0xNDQuOTEgMTIuNzk4Yy0uODY1LS4wMTYtMS40NzYuMDk0LTIuMTIzLjIzNnYuMTE4aC4xMThjLjQxMi44NDggMS4xNCAxLjM5MyAxLjY1IDIuMTIzbDEuMTggMi40NzYuMTE4LS4xMThjLjczLS41MTUgMS4wNjUtMS4zMzggMS4wNi0yLjU5NS0uMjkzLS4zMDgtLjMzNi0uNjk0LS41OS0xLjA2Mi0uMzM3LS40OS0xLS43NjgtMS40MTUtMS4xOHoiIGZpbGwtcnVsZT0iZXZlbm9kZCIvPjwvZz48cGF0aCBkPSJNMTk0Ljg1NSA5MS43MDhjMCAyLjk3IDIuMzQ3IDQuOTcyIDQuOTcyIDQuOTcyczQuOTcyLTIuMDAyIDQuOTcyLTQuOTcyLTIuMzQ3LTQuOTcyLTQuOTcyLTQuOTcyLTQuOTcyIDIuMDAyLTQuOTcyIDQuOTcyem04LjgzIDBjMCAyLjI1NC0xLjcyMyAzLjkzOC0zLjg2IDMuOTM4LTIuMTYgMC0zLjg2LTEuNjg0LTMuODYtMy45MzhzMS42OTgtMy45MzggMy44Ni0zLjkzOGMyLjEzNSAwIDMuODYgMS42ODQgMy44NiAzLjkzOHptLTIuNTIgMi44MzhoMS4xMTNsLTEuNjMtMi40OTJjLjg3NS0uMDkzIDEuNTM3LS41MTggMS41MzctMS41NTIgMC0xLjE1NC0uNzMtMS42My0yLjEzNC0xLjYzaC0yLjIxNXY1LjY3NWguOTU1di0yLjQ1M2guODg4bDEuNDg1IDIuNDUzem0tMi4zNzQtMy4yNXYtMS42M2gxLjFjLjU3IDAgMS4yNi4xMDYgMS4yNi43NyAwIC43OTUtLjYyMy44NjItMS4zNC44NjJoLTEuMDJ6IiBmaWxsPSIjZTQ4ZTAwIiBmaWxsLXJ1bGU9ImV2ZW5vZGQiLz48L3N2Zz4=;" vertex="1" parent="49">
                    <mxGeometry x="532" y="252" width="55.82" height="29" as="geometry"/>
                </mxCell>
                <mxCell id="50" value="Unity Assets" style="sketch=0;points=[[0,0,0],[0.25,0,0],[0.5,0,0],[0.75,0,0],[1,0,0],[0,1,0],[0.25,1,0],[0.5,1,0],[0.75,1,0],[1,1,0],[0,0.25,0],[0,0.5,0],[0,0.75,0],[1,0.25,0],[1,0.5,0],[1,0.75,0]];outlineConnect=0;fontColor=#232F3E;gradientColor=#60A337;gradientDirection=north;fillColor=#277116;strokeColor=#ffffff;dashed=0;verticalLabelPosition=bottom;verticalAlign=top;align=center;html=1;fontSize=11;fontStyle=0;aspect=fixed;shape=mxgraph.aws4.resourceIcon;resIcon=mxgraph.aws4.s3;" parent="1" vertex="1">
                    <mxGeometry x="659" y="660" width="60" height="60" as="geometry"/>
                </mxCell>
                <mxCell id="56" value="" style="edgeStyle=none;html=1;fontColor=#1A1A1A;strokeColor=#232F3E;labelPosition=center;verticalLabelPosition=bottom;align=center;verticalAlign=top;exitX=0.5;exitY=1;exitDx=0;exitDy=0;entryX=0.5;entryY=0;entryDx=0;entryDy=0;entryPerimeter=0;" parent="1" source="14" target="50" edge="1">
                    <mxGeometry relative="1" as="geometry">
                        <mxPoint x="934.55" y="504.8499999999999" as="sourcePoint"/>
                        <mxPoint x="890" y="740" as="targetPoint"/>
                    </mxGeometry>
                </mxCell>
                <mxCell id="72" value="&lt;font&gt;CI/CD&lt;/font&gt;" style="sketch=0;outlineConnect=0;gradientColor=none;html=1;whiteSpace=wrap;fontSize=12;fontStyle=0;shape=mxgraph.aws4.group;grIcon=mxgraph.aws4.group_aws_cloud;strokeColor=#004C99;fillColor=none;verticalAlign=top;align=left;spacingLeft=30;fontColor=#004C99;dashed=0;" vertex="1" parent="1">
                    <mxGeometry x="480" y="100" width="640" height="120" as="geometry"/>
                </mxCell>
                <mxCell id="73" value="Git Commit" style="dashed=0;outlineConnect=0;html=1;align=center;labelPosition=center;verticalLabelPosition=bottom;verticalAlign=top;shape=mxgraph.weblogos.github;fontColor=#232F3E;fontSize=11;spacing=5;" vertex="1" parent="1">
                    <mxGeometry x="522.5" y="131.5" width="53.5" height="53.5" as="geometry"/>
                </mxCell>
                <mxCell id="75" value="" style="edgeStyle=none;html=1;fontColor=#1A1A1A;strokeColor=#232F3E;entryX=0;entryY=0.5;entryDx=0;entryDy=0;entryPerimeter=0;" edge="1" parent="1" source="73" target="80">
                    <mxGeometry relative="1" as="geometry">
                        <mxPoint x="590" y="158" as="sourcePoint"/>
                        <mxPoint x="660" y="158" as="targetPoint"/>
                    </mxGeometry>
                </mxCell>
                <mxCell id="77" value="" style="edgeStyle=none;html=1;fontColor=#1A1A1A;strokeColor=#232F3E;entryX=0.5;entryY=0;entryDx=0;entryDy=0;dashed=1;" edge="1" parent="1" target="14">
                    <mxGeometry relative="1" as="geometry">
                        <mxPoint x="689" y="210" as="sourcePoint"/>
                        <mxPoint x="839" y="180" as="targetPoint"/>
                    </mxGeometry>
                </mxCell>
                <mxCell id="78" value="Status Subscription" style="sketch=0;points=[[0,0,0],[0.25,0,0],[0.5,0,0],[0.75,0,0],[1,0,0],[0,1,0],[0.25,1,0],[0.5,1,0],[0.75,1,0],[1,1,0],[0,0.25,0],[0,0.5,0],[0,0.75,0],[1,0.25,0],[1,0.5,0],[1,0.75,0]];outlineConnect=0;fontColor=#232F3E;gradientColor=#FF4F8B;gradientDirection=north;fillColor=#BC1356;strokeColor=#ffffff;dashed=0;verticalLabelPosition=bottom;verticalAlign=top;align=center;html=1;fontSize=11;fontStyle=0;aspect=fixed;shape=mxgraph.aws4.resourceIcon;resIcon=mxgraph.aws4.eventbridge;" vertex="1" parent="1">
                    <mxGeometry x="839" y="128" width="60" height="60" as="geometry"/>
                </mxCell>
                <mxCell id="80" value="Build-Test-Deploy" style="sketch=0;points=[[0,0,0],[0.25,0,0],[0.5,0,0],[0.75,0,0],[1,0,0],[0,1,0],[0.25,1,0],[0.5,1,0],[0.75,1,0],[1,1,0],[0,0.25,0],[0,0.5,0],[0,0.75,0],[1,0.25,0],[1,0.5,0],[1,0.75,0]];outlineConnect=0;fontColor=#232F3E;gradientColor=#4D72F3;gradientDirection=north;fillColor=#3334B9;strokeColor=#ffffff;dashed=0;verticalLabelPosition=bottom;verticalAlign=top;align=center;html=1;fontSize=11;fontStyle=0;aspect=fixed;shape=mxgraph.aws4.resourceIcon;resIcon=mxgraph.aws4.codebuild;" vertex="1" parent="1">
                    <mxGeometry x="659" y="128" width="60" height="60" as="geometry"/>
                </mxCell>
                <mxCell id="83" value="" style="edgeStyle=none;html=1;fontColor=#1A1A1A;strokeColor=#232F3E;entryX=0;entryY=0.5;entryDx=0;entryDy=0;entryPerimeter=0;exitX=1;exitY=0.5;exitDx=0;exitDy=0;exitPerimeter=0;" edge="1" parent="1" source="80" target="78">
                    <mxGeometry relative="1" as="geometry">
                        <mxPoint x="731" y="157.58" as="sourcePoint"/>
                        <mxPoint x="800" y="157.58" as="targetPoint"/>
                    </mxGeometry>
                </mxCell>
                <mxCell id="89" value="" style="edgeStyle=none;html=1;fontColor=#1A1A1A;strokeColor=#232F3E;entryX=0.5;entryY=0;entryDx=0;entryDy=0;dashed=1;" edge="1" parent="1">
                    <mxGeometry relative="1" as="geometry">
                        <mxPoint x="690" y="230" as="sourcePoint"/>
                        <mxPoint x="868.58" y="260" as="targetPoint"/>
                        <Array as="points">
                            <mxPoint x="869" y="230"/>
                        </Array>
                    </mxGeometry>
                </mxCell>
                <mxCell id="90" value="" style="edgeStyle=none;html=1;fontColor=#1A1A1A;strokeColor=#232F3E;exitX=1;exitY=0.5;exitDx=0;exitDy=0;exitPerimeter=0;" edge="1" parent="1" source="78">
                    <mxGeometry relative="1" as="geometry">
                        <mxPoint x="930" y="157.58" as="sourcePoint"/>
                        <mxPoint x="1010" y="158" as="targetPoint"/>
                    </mxGeometry>
                </mxCell>
                <mxCell id="91" value="SMS Notification" style="sketch=0;pointerEvents=1;shadow=0;dashed=0;html=1;strokeColor=none;labelPosition=center;verticalLabelPosition=bottom;verticalAlign=top;align=center;fillColor=#232F3E;shape=mxgraph.mscae.intune.user_group;fontSize=11;fontColor=#232F3E;spacing=17;" vertex="1" parent="1">
                    <mxGeometry x="1012" y="128.6" width="58.65" height="43.4" as="geometry"/>
                </mxCell>
                <mxCell id="92" value="" style="verticalLabelPosition=bottom;verticalAlign=top;html=1;shadow=0;dashed=0;strokeWidth=1;shape=mxgraph.android.phone2;strokeColor=#c0c0c0;fontSize=11;fontColor=#232F3E;fillColor=#232F3E;" vertex="1" parent="1">
                    <mxGeometry x="1058" y="145" width="20.52" height="40" as="geometry"/>
                </mxCell>
            </root>
        </mxGraphModel>
    </diagram>
</mxfile>
